<mxfile host="app.diagrams.net" modified="2020-12-10T10:48:37.423Z" agent="5.0 (Macintosh; Intel Mac OS X 10_15_7) AppleWebKit/537.36 (KHTML, like Gecko) Chrome/87.0.4280.88 Safari/537.36" etag="l-5Cwvq9BqMq-oEYZveb" version="13.10.2" type="github" pages="9">
  <diagram id="SB-Q_lk3heibItQarrXJ" name="发文相关">
    <mxGraphModel dx="1666" dy="793" grid="1" gridSize="10" guides="1" tooltips="1" connect="1" arrows="1" fold="1" page="0" pageScale="1" pageWidth="1654" pageHeight="2336" math="0" shadow="0">
      <root>
        <mxCell id="0" />
        <mxCell id="1" parent="0" />
        <mxCell id="BlkoCDvUHruArEFe79bL-4" value="&lt;span style=&quot;color: rgb(31 , 35 , 41) ; font-size: 13.3333px ; text-align: left&quot;&gt;content.online_cloud.publish_item&lt;br&gt;发布服务&lt;br&gt;&lt;/span&gt;" style="rounded=0;whiteSpace=wrap;html=1;fillColor=#F19C99;strokeColor=#F8CECC;" parent="1" vertex="1">
          <mxGeometry x="560" y="120" width="240" height="170" as="geometry" />
        </mxCell>
        <mxCell id="BlkoCDvUHruArEFe79bL-5" value="&lt;span style=&quot;color: rgb(31 , 35 , 41) ; font-size: 13.3333px ; text-align: left&quot;&gt;content.online_cloud.item_video_relation&lt;br&gt;视频、文章关联服务&lt;br&gt;&lt;/span&gt;" style="rounded=0;whiteSpace=wrap;html=1;fillColor=#FFE599;strokeColor=#FFE599;" parent="1" vertex="1">
          <mxGeometry x="240" y="140" width="280" height="40" as="geometry" />
        </mxCell>
        <mxCell id="BlkoCDvUHruArEFe79bL-6" value="视频、文章关联表" style="shape=cylinder3;whiteSpace=wrap;html=1;boundedLbl=1;backgroundOutline=1;size=15;fillColor=#FFE599;strokeColor=#FFE599;" parent="1" vertex="1">
          <mxGeometry x="130" y="120" width="60" height="80" as="geometry" />
        </mxCell>
        <mxCell id="BlkoCDvUHruArEFe79bL-9" value="拉链服务" style="ellipse;shape=cloud;whiteSpace=wrap;html=1;fillColor=#FFE599;strokeColor=#FFE599;" parent="1" vertex="1">
          <mxGeometry x="90" y="220" width="120" height="80" as="geometry" />
        </mxCell>
        <mxCell id="BlkoCDvUHruArEFe79bL-10" value="&lt;span style=&quot;color: rgb(31 , 35 , 41) ; font-size: 13.3333px ; text-align: left&quot;&gt;content.online_cloud.pop_solver&lt;br&gt;拉链小助手&lt;br&gt;&lt;/span&gt;" style="rounded=0;whiteSpace=wrap;html=1;fillColor=#FFE599;strokeColor=#FFE599;" parent="1" vertex="1">
          <mxGeometry x="240" y="240" width="280" height="40" as="geometry" />
        </mxCell>
        <mxCell id="BlkoCDvUHruArEFe79bL-11" value="" style="endArrow=none;dashed=1;html=1;dashPattern=1 3;strokeWidth=2;exitX=1;exitY=0.5;exitDx=0;exitDy=0;exitPerimeter=0;entryX=0;entryY=0.5;entryDx=0;entryDy=0;fillColor=#FFE599;strokeColor=#FFD966;" parent="1" source="BlkoCDvUHruArEFe79bL-6" target="BlkoCDvUHruArEFe79bL-5" edge="1">
          <mxGeometry width="50" height="50" relative="1" as="geometry">
            <mxPoint x="380" y="454" as="sourcePoint" />
            <mxPoint x="430" y="404" as="targetPoint" />
          </mxGeometry>
        </mxCell>
        <mxCell id="BlkoCDvUHruArEFe79bL-12" value="" style="endArrow=none;dashed=1;html=1;dashPattern=1 3;strokeWidth=2;entryX=0;entryY=0.5;entryDx=0;entryDy=0;exitX=0.875;exitY=0.5;exitDx=0;exitDy=0;exitPerimeter=0;fillColor=#FFE599;strokeColor=#FFD966;" parent="1" source="BlkoCDvUHruArEFe79bL-9" target="BlkoCDvUHruArEFe79bL-10" edge="1">
          <mxGeometry width="50" height="50" relative="1" as="geometry">
            <mxPoint x="1350" y="494" as="sourcePoint" />
            <mxPoint x="230" y="220" as="targetPoint" />
          </mxGeometry>
        </mxCell>
        <mxCell id="BlkoCDvUHruArEFe79bL-14" value="视频架构转码" style="ellipse;shape=cloud;whiteSpace=wrap;html=1;fillColor=#E6D0DE;strokeColor=#E6D0DE;" parent="1" vertex="1">
          <mxGeometry x="1159" y="216" width="120" height="80" as="geometry" />
        </mxCell>
        <mxCell id="BlkoCDvUHruArEFe79bL-40" style="edgeStyle=orthogonalEdgeStyle;rounded=0;orthogonalLoop=1;jettySize=auto;html=1;entryX=0.996;entryY=0.824;entryDx=0;entryDy=0;entryPerimeter=0;fillColor=#E6D0DE;strokeColor=#E6D0DE;" parent="1" source="BlkoCDvUHruArEFe79bL-15" target="BlkoCDvUHruArEFe79bL-4" edge="1">
          <mxGeometry relative="1" as="geometry" />
        </mxCell>
        <mxCell id="BlkoCDvUHruArEFe79bL-15" value="&lt;span style=&quot;color: rgb(31 , 35 , 41) ; font-size: 13.3333px ; text-align: left&quot;&gt;content.online_cloud.video_transcode_sync&lt;br&gt;转码回调&lt;br&gt;&lt;/span&gt;" style="rounded=0;whiteSpace=wrap;html=1;fillColor=#E6D0DE;strokeColor=#E6D0DE;" parent="1" vertex="1">
          <mxGeometry x="840" y="240" width="280" height="40" as="geometry" />
        </mxCell>
        <mxCell id="BlkoCDvUHruArEFe79bL-17" value="" style="endArrow=none;dashed=1;html=1;dashPattern=1 3;strokeWidth=2;entryX=1;entryY=0.5;entryDx=0;entryDy=0;exitX=0.16;exitY=0.55;exitDx=0;exitDy=0;exitPerimeter=0;fillColor=#E6D0DE;strokeColor=#B5739D;" parent="1" source="BlkoCDvUHruArEFe79bL-14" target="BlkoCDvUHruArEFe79bL-15" edge="1">
          <mxGeometry width="50" height="50" relative="1" as="geometry">
            <mxPoint x="1100" y="462" as="sourcePoint" />
            <mxPoint x="1150" y="312" as="targetPoint" />
          </mxGeometry>
        </mxCell>
        <mxCell id="BlkoCDvUHruArEFe79bL-18" value="&lt;span style=&quot;color: rgb(31 , 35 , 41) ; font-size: 13.3333px ; text-align: left&quot;&gt;content.online_cloud.async_retry&lt;br&gt;异步重试脚本&lt;br&gt;&lt;/span&gt;" style="rounded=0;whiteSpace=wrap;html=1;fillColor=#D5E8D4;strokeColor=#D5E8D4;" parent="1" vertex="1">
          <mxGeometry x="560" y="440" width="240" height="40" as="geometry" />
        </mxCell>
        <mxCell id="BlkoCDvUHruArEFe79bL-23" style="edgeStyle=orthogonalEdgeStyle;rounded=0;orthogonalLoop=1;jettySize=auto;html=1;fillColor=#D5E8D4;strokeColor=#D5E8D4;" parent="1" source="BlkoCDvUHruArEFe79bL-20" target="BlkoCDvUHruArEFe79bL-18" edge="1">
          <mxGeometry relative="1" as="geometry" />
        </mxCell>
        <mxCell id="BlkoCDvUHruArEFe79bL-20" value="cc_retry_event" style="ellipse;shape=cloud;whiteSpace=wrap;html=1;fillColor=#D5E8D4;strokeColor=#D5E8D4;" parent="1" vertex="1">
          <mxGeometry x="620" y="320" width="120" height="80" as="geometry" />
        </mxCell>
        <mxCell id="BlkoCDvUHruArEFe79bL-39" style="edgeStyle=orthogonalEdgeStyle;rounded=0;orthogonalLoop=1;jettySize=auto;html=1;entryX=0.996;entryY=0.194;entryDx=0;entryDy=0;entryPerimeter=0;fillColor=#E6D0DE;strokeColor=#E6D0DE;" parent="1" source="BlkoCDvUHruArEFe79bL-24" target="BlkoCDvUHruArEFe79bL-4" edge="1">
          <mxGeometry relative="1" as="geometry" />
        </mxCell>
        <mxCell id="BlkoCDvUHruArEFe79bL-24" value="&lt;span style=&quot;color: rgb(31 , 35 , 41) ; font-size: 13.3333px ; text-align: left&quot;&gt;content.online_cloud.timer_publish&lt;br&gt;定时发文发布脚本&lt;br&gt;&lt;/span&gt;" style="rounded=0;whiteSpace=wrap;html=1;fillColor=#E6D0DE;strokeColor=#E6D0DE;" parent="1" vertex="1">
          <mxGeometry x="840" y="133" width="280" height="40" as="geometry" />
        </mxCell>
        <mxCell id="BlkoCDvUHruArEFe79bL-25" value="定时发文redis" style="ellipse;shape=cloud;whiteSpace=wrap;html=1;fillColor=#E6D0DE;strokeColor=#E6D0DE;" parent="1" vertex="1">
          <mxGeometry x="1150" y="108" width="120" height="80" as="geometry" />
        </mxCell>
        <mxCell id="BlkoCDvUHruArEFe79bL-29" value="" style="endArrow=none;dashed=1;html=1;dashPattern=1 3;strokeWidth=2;exitX=0.16;exitY=0.55;exitDx=0;exitDy=0;exitPerimeter=0;entryX=1;entryY=0.5;entryDx=0;entryDy=0;fillColor=#E6D0DE;strokeColor=#B5739D;" parent="1" source="BlkoCDvUHruArEFe79bL-25" target="BlkoCDvUHruArEFe79bL-24" edge="1">
          <mxGeometry width="50" height="50" relative="1" as="geometry">
            <mxPoint x="980" y="413" as="sourcePoint" />
            <mxPoint x="1170" y="103" as="targetPoint" />
          </mxGeometry>
        </mxCell>
        <mxCell id="BlkoCDvUHruArEFe79bL-43" value="" style="endArrow=classic;html=1;entryX=1;entryY=0.5;entryDx=0;entryDy=0;fillColor=#FFE599;strokeColor=#FFE599;" parent="1" edge="1">
          <mxGeometry width="50" height="50" relative="1" as="geometry">
            <mxPoint x="560" y="160" as="sourcePoint" />
            <mxPoint x="519" y="160" as="targetPoint" />
          </mxGeometry>
        </mxCell>
        <mxCell id="BlkoCDvUHruArEFe79bL-44" value="" style="endArrow=classic;html=1;entryX=1;entryY=0.5;entryDx=0;entryDy=0;exitX=-0.008;exitY=0.824;exitDx=0;exitDy=0;exitPerimeter=0;fillColor=#FFE599;strokeColor=#FFE599;" parent="1" source="BlkoCDvUHruArEFe79bL-4" target="BlkoCDvUHruArEFe79bL-10" edge="1">
          <mxGeometry width="50" height="50" relative="1" as="geometry">
            <mxPoint x="571" y="170" as="sourcePoint" />
            <mxPoint x="530" y="170" as="targetPoint" />
          </mxGeometry>
        </mxCell>
        <mxCell id="BlkoCDvUHruArEFe79bL-45" value="" style="endArrow=none;dashed=1;html=1;dashPattern=1 3;strokeWidth=2;entryX=0.5;entryY=1;entryDx=0;entryDy=0;fillColor=#D5E8D4;strokeColor=#97D077;" parent="1" source="BlkoCDvUHruArEFe79bL-20" target="BlkoCDvUHruArEFe79bL-4" edge="1">
          <mxGeometry width="50" height="50" relative="1" as="geometry">
            <mxPoint x="350" y="410" as="sourcePoint" />
            <mxPoint x="400" y="360" as="targetPoint" />
          </mxGeometry>
        </mxCell>
        <mxCell id="BlkoCDvUHruArEFe79bL-46" value="" style="endArrow=none;dashed=1;html=1;dashPattern=1 3;strokeWidth=2;entryX=0.5;entryY=1;entryDx=0;entryDy=0;exitX=0.875;exitY=0.5;exitDx=0;exitDy=0;exitPerimeter=0;fillColor=#D5E8D4;strokeColor=#97D077;" parent="1" source="BlkoCDvUHruArEFe79bL-20" target="BlkoCDvUHruArEFe79bL-15" edge="1">
          <mxGeometry width="50" height="50" relative="1" as="geometry">
            <mxPoint x="950" y="450" as="sourcePoint" />
            <mxPoint x="1000" y="400" as="targetPoint" />
            <Array as="points">
              <mxPoint x="980" y="360" />
            </Array>
          </mxGeometry>
        </mxCell>
      </root>
    </mxGraphModel>
  </diagram>
  <diagram id="kRv9mvTqaeiFCnGuBBTc" name="读服务">
    <mxGraphModel dx="1666" dy="793" grid="0" gridSize="10" guides="1" tooltips="1" connect="1" arrows="1" fold="1" page="1" pageScale="1" pageWidth="1654" pageHeight="2336" math="0" shadow="0">
      <root>
        <mxCell id="N-5AFMFkSGEF9szTfYK9-0" />
        <mxCell id="N-5AFMFkSGEF9szTfYK9-1" parent="N-5AFMFkSGEF9szTfYK9-0" />
        <mxCell id="3_VCpjRWnadb9fdvBELq-0" value="" style="rounded=1;whiteSpace=wrap;html=1;strokeColor=#F19C99;fillColor=#F8CECC;" parent="N-5AFMFkSGEF9szTfYK9-1" vertex="1">
          <mxGeometry x="70" y="360" width="280" height="100" as="geometry" />
        </mxCell>
        <mxCell id="3_VCpjRWnadb9fdvBELq-1" value="item_db" style="shape=cylinder3;whiteSpace=wrap;html=1;boundedLbl=1;backgroundOutline=1;size=15;strokeColor=#EA6B66;fillColor=#F8CECC;" parent="N-5AFMFkSGEF9szTfYK9-1" vertex="1">
          <mxGeometry x="90" y="370" width="60" height="80" as="geometry" />
        </mxCell>
        <mxCell id="3_VCpjRWnadb9fdvBELq-2" value="group_db" style="shape=cylinder3;whiteSpace=wrap;html=1;boundedLbl=1;backgroundOutline=1;size=15;strokeColor=#EA6B66;fillColor=#F8CECC;" parent="N-5AFMFkSGEF9szTfYK9-1" vertex="1">
          <mxGeometry x="180" y="370" width="60" height="80" as="geometry" />
        </mxCell>
        <mxCell id="3_VCpjRWnadb9fdvBELq-3" value="content&lt;br&gt;abase" style="shape=cylinder3;whiteSpace=wrap;html=1;boundedLbl=1;backgroundOutline=1;size=15;strokeColor=#EA6B66;fillColor=#F8CECC;" parent="N-5AFMFkSGEF9szTfYK9-1" vertex="1">
          <mxGeometry x="270" y="370" width="60" height="80" as="geometry" />
        </mxCell>
        <mxCell id="3_VCpjRWnadb9fdvBELq-11" style="edgeStyle=orthogonalEdgeStyle;rounded=0;orthogonalLoop=1;jettySize=auto;html=1;entryX=0.5;entryY=0;entryDx=0;entryDy=0;strokeColor=#EA6B66;fillColor=#F8CECC;" parent="N-5AFMFkSGEF9szTfYK9-1" source="3_VCpjRWnadb9fdvBELq-4" target="3_VCpjRWnadb9fdvBELq-0" edge="1">
          <mxGeometry relative="1" as="geometry" />
        </mxCell>
        <mxCell id="3_VCpjRWnadb9fdvBELq-15" style="edgeStyle=orthogonalEdgeStyle;rounded=0;orthogonalLoop=1;jettySize=auto;html=1;strokeColor=#EA6B66;fillColor=#F8CECC;" parent="N-5AFMFkSGEF9szTfYK9-1" source="3_VCpjRWnadb9fdvBELq-4" target="3_VCpjRWnadb9fdvBELq-10" edge="1">
          <mxGeometry relative="1" as="geometry">
            <Array as="points">
              <mxPoint x="340" y="320" />
              <mxPoint x="500" y="320" />
            </Array>
          </mxGeometry>
        </mxCell>
        <mxCell id="3_VCpjRWnadb9fdvBELq-4" value="&lt;span style=&quot;color: rgb(31 , 35 , 41) ; font-size: 13.3333px ; text-align: left&quot;&gt;toutiao.article.item_v2&lt;/span&gt;" style="rounded=0;whiteSpace=wrap;html=1;strokeColor=#EA6B66;fillColor=#F8CECC;" parent="N-5AFMFkSGEF9szTfYK9-1" vertex="1">
          <mxGeometry x="240" y="240" width="200" height="40" as="geometry" />
        </mxCell>
        <mxCell id="3_VCpjRWnadb9fdvBELq-5" value="counter/comment" style="rounded=0;whiteSpace=wrap;html=1;strokeColor=#FFD966;fillColor=#FFF2CC;" parent="N-5AFMFkSGEF9szTfYK9-1" vertex="1">
          <mxGeometry x="520" y="240" width="150" height="40" as="geometry" />
        </mxCell>
        <mxCell id="3_VCpjRWnadb9fdvBELq-7" style="edgeStyle=orthogonalEdgeStyle;rounded=0;orthogonalLoop=1;jettySize=auto;html=1;strokeColor=#EA6B66;fillColor=#F8CECC;" parent="N-5AFMFkSGEF9szTfYK9-1" source="3_VCpjRWnadb9fdvBELq-6" target="3_VCpjRWnadb9fdvBELq-4" edge="1">
          <mxGeometry relative="1" as="geometry" />
        </mxCell>
        <mxCell id="3_VCpjRWnadb9fdvBELq-8" style="edgeStyle=orthogonalEdgeStyle;rounded=0;orthogonalLoop=1;jettySize=auto;html=1;entryX=0.5;entryY=0;entryDx=0;entryDy=0;strokeColor=#FFD966;fillColor=#FFF2CC;" parent="N-5AFMFkSGEF9szTfYK9-1" source="3_VCpjRWnadb9fdvBELq-6" target="3_VCpjRWnadb9fdvBELq-5" edge="1">
          <mxGeometry relative="1" as="geometry" />
        </mxCell>
        <mxCell id="3_VCpjRWnadb9fdvBELq-6" value="&lt;span style=&quot;color: rgb(31 , 35 , 41) ; font-family: &amp;#34;larkhacksafarifont&amp;#34; , &amp;#34;larkemojifont&amp;#34; , &amp;#34;larkchinesequote&amp;#34; , , , &amp;#34;helvetica neue&amp;#34; , &amp;#34;tahoma&amp;#34; , &amp;#34;pingfang sc&amp;#34; , &amp;#34;microsoft yahei&amp;#34; , &amp;#34;arial&amp;#34; , &amp;#34;hiragino sans gb&amp;#34; , sans-serif , &amp;#34;apple color emoji&amp;#34; , &amp;#34;segoe ui emoji&amp;#34; , &amp;#34;segoe ui symbol&amp;#34; , &amp;#34;noto color emoji&amp;#34; ; font-size: 13.3333px ; text-align: left&quot;&gt;toutiao.article.article&lt;/span&gt;" style="rounded=0;whiteSpace=wrap;html=1;strokeColor=#EA6B66;fillColor=#F8CECC;" parent="N-5AFMFkSGEF9szTfYK9-1" vertex="1">
          <mxGeometry x="380" y="160" width="200" height="40" as="geometry" />
        </mxCell>
        <mxCell id="3_VCpjRWnadb9fdvBELq-14" style="edgeStyle=orthogonalEdgeStyle;rounded=0;orthogonalLoop=1;jettySize=auto;html=1;entryX=0.5;entryY=0;entryDx=0;entryDy=0;entryPerimeter=0;strokeColor=#EA6B66;fillColor=#F8CECC;" parent="N-5AFMFkSGEF9szTfYK9-1" source="3_VCpjRWnadb9fdvBELq-10" target="3_VCpjRWnadb9fdvBELq-13" edge="1">
          <mxGeometry relative="1" as="geometry" />
        </mxCell>
        <mxCell id="3_VCpjRWnadb9fdvBELq-10" value="&lt;span style=&quot;color: rgb(31 , 35 , 41) ; font-size: 13.3333px ; text-align: left&quot;&gt;toutiao.article.relation&lt;/span&gt;" style="rounded=0;whiteSpace=wrap;html=1;strokeColor=#EA6B66;fillColor=#F8CECC;" parent="N-5AFMFkSGEF9szTfYK9-1" vertex="1">
          <mxGeometry x="400" y="340" width="200" height="40" as="geometry" />
        </mxCell>
        <mxCell id="3_VCpjRWnadb9fdvBELq-13" value="ref&lt;br&gt;redis" style="shape=cylinder3;whiteSpace=wrap;html=1;boundedLbl=1;backgroundOutline=1;size=15;strokeColor=#EA6B66;fillColor=#F8CECC;" parent="N-5AFMFkSGEF9szTfYK9-1" vertex="1">
          <mxGeometry x="470" y="400" width="60" height="80" as="geometry" />
        </mxCell>
        <mxCell id="3_VCpjRWnadb9fdvBELq-16" value="" style="rounded=1;whiteSpace=wrap;html=1;strokeColor=#F19C99;fillColor=#F8CECC;" parent="N-5AFMFkSGEF9szTfYK9-1" vertex="1">
          <mxGeometry x="800" y="360" width="280" height="100" as="geometry" />
        </mxCell>
        <mxCell id="3_VCpjRWnadb9fdvBELq-17" value="item_db" style="shape=cylinder3;whiteSpace=wrap;html=1;boundedLbl=1;backgroundOutline=1;size=15;strokeColor=#EA6B66;fillColor=#F8CECC;" parent="N-5AFMFkSGEF9szTfYK9-1" vertex="1">
          <mxGeometry x="820" y="370" width="60" height="80" as="geometry" />
        </mxCell>
        <mxCell id="3_VCpjRWnadb9fdvBELq-18" value="group_db" style="shape=cylinder3;whiteSpace=wrap;html=1;boundedLbl=1;backgroundOutline=1;size=15;strokeColor=#EA6B66;fillColor=#F8CECC;" parent="N-5AFMFkSGEF9szTfYK9-1" vertex="1">
          <mxGeometry x="910" y="370" width="60" height="80" as="geometry" />
        </mxCell>
        <mxCell id="3_VCpjRWnadb9fdvBELq-19" value="content&lt;br&gt;abase" style="shape=cylinder3;whiteSpace=wrap;html=1;boundedLbl=1;backgroundOutline=1;size=15;strokeColor=#EA6B66;fillColor=#F8CECC;" parent="N-5AFMFkSGEF9szTfYK9-1" vertex="1">
          <mxGeometry x="1000" y="370" width="60" height="80" as="geometry" />
        </mxCell>
        <mxCell id="3_VCpjRWnadb9fdvBELq-21" style="edgeStyle=orthogonalEdgeStyle;rounded=0;orthogonalLoop=1;jettySize=auto;html=1;strokeColor=#EA6B66;fillColor=#FFF2CC;" parent="N-5AFMFkSGEF9szTfYK9-1" source="3_VCpjRWnadb9fdvBELq-20" target="3_VCpjRWnadb9fdvBELq-16" edge="1">
          <mxGeometry relative="1" as="geometry" />
        </mxCell>
        <mxCell id="3_VCpjRWnadb9fdvBELq-20" value="&lt;span style=&quot;color: rgb(31 , 35 , 41) ; font-size: 13.3333px ; text-align: left&quot;&gt;toutiao.article.rawdata&lt;/span&gt;" style="rounded=0;whiteSpace=wrap;html=1;strokeColor=#EA6B66;fillColor=#F8CECC;" parent="N-5AFMFkSGEF9szTfYK9-1" vertex="1">
          <mxGeometry x="840" y="280" width="200" height="40" as="geometry" />
        </mxCell>
      </root>
    </mxGraphModel>
  </diagram>
  <diagram id="DTCnmIYNuXqVJTmdcf1L" name="数据相关">
    <mxGraphModel dx="1666" dy="793" grid="1" gridSize="10" guides="1" tooltips="1" connect="1" arrows="1" fold="1" page="1" pageScale="1" pageWidth="1654" pageHeight="2336" math="0" shadow="0">
      <root>
        <mxCell id="vmRFOWgvLukVwsNA1SD3-0" />
        <mxCell id="vmRFOWgvLukVwsNA1SD3-1" parent="vmRFOWgvLukVwsNA1SD3-0" />
        <mxCell id="vmRFOWgvLukVwsNA1SD3-6" value="" style="rounded=1;whiteSpace=wrap;html=1;strokeColor=#F19C99;fillColor=#F19C99;" parent="vmRFOWgvLukVwsNA1SD3-1" vertex="1">
          <mxGeometry x="325" y="50" width="280" height="100" as="geometry" />
        </mxCell>
        <mxCell id="vmRFOWgvLukVwsNA1SD3-2" value="item_db" style="shape=cylinder3;whiteSpace=wrap;html=1;boundedLbl=1;backgroundOutline=1;size=15;strokeColor=#EA6B66;fillColor=#F19C99;" parent="vmRFOWgvLukVwsNA1SD3-1" vertex="1">
          <mxGeometry x="345" y="60" width="60" height="80" as="geometry" />
        </mxCell>
        <mxCell id="vmRFOWgvLukVwsNA1SD3-3" value="group_db" style="shape=cylinder3;whiteSpace=wrap;html=1;boundedLbl=1;backgroundOutline=1;size=15;strokeColor=#EA6B66;fillColor=#F19C99;" parent="vmRFOWgvLukVwsNA1SD3-1" vertex="1">
          <mxGeometry x="435" y="60" width="60" height="80" as="geometry" />
        </mxCell>
        <mxCell id="vmRFOWgvLukVwsNA1SD3-4" value="content&lt;br&gt;abase" style="shape=cylinder3;whiteSpace=wrap;html=1;boundedLbl=1;backgroundOutline=1;size=15;strokeColor=#EA6B66;fillColor=#F19C99;" parent="vmRFOWgvLukVwsNA1SD3-1" vertex="1">
          <mxGeometry x="525" y="60" width="60" height="80" as="geometry" />
        </mxCell>
        <mxCell id="vmRFOWgvLukVwsNA1SD3-5" value="tbase" style="shape=cylinder3;whiteSpace=wrap;html=1;boundedLbl=1;backgroundOutline=1;size=15;strokeColor=#FFB570;fillColor=#FFCE9F;" parent="vmRFOWgvLukVwsNA1SD3-1" vertex="1">
          <mxGeometry x="200" y="380" width="240" height="70" as="geometry" />
        </mxCell>
        <mxCell id="vmRFOWgvLukVwsNA1SD3-7" value="&lt;span style=&quot;color: rgb(31 , 35 , 41) ; font-size: 13.3333px ; text-align: left&quot;&gt;toutiao.article.commit_tbase_diff&lt;br&gt;&lt;/span&gt;&lt;span style=&quot;color: rgb(31 , 35 , 41) ; font-size: 13.3333px ; text-align: left&quot;&gt;对比并修复&lt;br&gt;&lt;/span&gt;" style="rounded=0;whiteSpace=wrap;html=1;strokeColor=#A9C4EB;fillColor=#D4E1F5;" parent="vmRFOWgvLukVwsNA1SD3-1" vertex="1">
          <mxGeometry x="360" y="280" width="210" height="40" as="geometry" />
        </mxCell>
        <mxCell id="vmRFOWgvLukVwsNA1SD3-8" value="&lt;span style=&quot;color: rgb(31 , 35 , 41) ; font-size: 13.3333px ; text-align: left&quot;&gt;toutiao.article.sync_tbase&lt;br&gt;数据搬运&lt;br&gt;&lt;/span&gt;" style="rounded=0;whiteSpace=wrap;html=1;strokeColor=#B9E0A5;fillColor=#D5E8D4;" parent="vmRFOWgvLukVwsNA1SD3-1" vertex="1">
          <mxGeometry x="80" y="240" width="200" height="40" as="geometry" />
        </mxCell>
        <mxCell id="vmRFOWgvLukVwsNA1SD3-10" value="" style="endArrow=classic;html=1;strokeColor=#B9E0A5;fillColor=#D5E8D4;entryX=0.145;entryY=0;entryDx=0;entryDy=4.35;entryPerimeter=0;exitX=0.5;exitY=1;exitDx=0;exitDy=0;" parent="vmRFOWgvLukVwsNA1SD3-1" source="vmRFOWgvLukVwsNA1SD3-8" target="vmRFOWgvLukVwsNA1SD3-5" edge="1">
          <mxGeometry width="50" height="50" relative="1" as="geometry">
            <mxPoint x="70" y="430" as="sourcePoint" />
            <mxPoint x="120" y="380" as="targetPoint" />
            <Array as="points">
              <mxPoint x="180" y="340" />
              <mxPoint x="235" y="340" />
            </Array>
          </mxGeometry>
        </mxCell>
        <mxCell id="vmRFOWgvLukVwsNA1SD3-11" value="&lt;span style=&quot;color: rgb(31 , 35 , 41) ; font-size: 13.3333px ; text-align: left&quot;&gt;toutiao.article.commit_tbase_scan&lt;/span&gt;&lt;br style=&quot;color: rgb(31 , 35 , 41) ; font-size: 13.3333px ; text-align: left&quot;&gt;&lt;span style=&quot;color: rgb(31 , 35 , 41) ; font-size: 13.3333px ; text-align: left&quot;&gt;扫描需要对比的文章&lt;/span&gt;" style="rounded=0;whiteSpace=wrap;html=1;strokeColor=#A9C4EB;fillColor=#D4E1F5;" parent="vmRFOWgvLukVwsNA1SD3-1" vertex="1">
          <mxGeometry x="360" y="210" width="210" height="40" as="geometry" />
        </mxCell>
        <mxCell id="vmRFOWgvLukVwsNA1SD3-13" value="" style="endArrow=none;dashed=1;html=1;dashPattern=1 3;strokeWidth=2;fillColor=#D4E1F5;exitX=0.855;exitY=0;exitDx=0;exitDy=4.35;exitPerimeter=0;entryX=0.5;entryY=1;entryDx=0;entryDy=0;strokeColor=#A9C4EB;" parent="vmRFOWgvLukVwsNA1SD3-1" source="vmRFOWgvLukVwsNA1SD3-5" target="vmRFOWgvLukVwsNA1SD3-7" edge="1">
          <mxGeometry width="50" height="50" relative="1" as="geometry">
            <mxPoint x="340" y="360" as="sourcePoint" />
            <mxPoint x="510" y="360" as="targetPoint" />
            <Array as="points">
              <mxPoint x="405" y="350" />
              <mxPoint x="465" y="350" />
            </Array>
          </mxGeometry>
        </mxCell>
        <mxCell id="vmRFOWgvLukVwsNA1SD3-14" value="" style="endArrow=none;dashed=1;html=1;dashPattern=1 3;strokeWidth=2;fillColor=#D4E1F5;entryX=0.5;entryY=1;entryDx=0;entryDy=0;exitX=0.5;exitY=0;exitDx=0;exitDy=0;strokeColor=#A9C4EB;" parent="vmRFOWgvLukVwsNA1SD3-1" source="vmRFOWgvLukVwsNA1SD3-7" target="vmRFOWgvLukVwsNA1SD3-11" edge="1">
          <mxGeometry width="50" height="50" relative="1" as="geometry">
            <mxPoint x="680" y="300" as="sourcePoint" />
            <mxPoint x="730" y="250" as="targetPoint" />
          </mxGeometry>
        </mxCell>
        <mxCell id="vmRFOWgvLukVwsNA1SD3-15" value="" style="endArrow=none;dashed=1;html=1;dashPattern=1 3;strokeWidth=2;fillColor=#D4E1F5;entryX=0.5;entryY=1;entryDx=0;entryDy=0;exitX=0.5;exitY=0;exitDx=0;exitDy=0;strokeColor=#A9C4EB;" parent="vmRFOWgvLukVwsNA1SD3-1" source="vmRFOWgvLukVwsNA1SD3-11" target="vmRFOWgvLukVwsNA1SD3-6" edge="1">
          <mxGeometry width="50" height="50" relative="1" as="geometry">
            <mxPoint x="590" y="200" as="sourcePoint" />
            <mxPoint x="640" y="150" as="targetPoint" />
            <Array as="points">
              <mxPoint x="465" y="190" />
            </Array>
          </mxGeometry>
        </mxCell>
        <mxCell id="vmRFOWgvLukVwsNA1SD3-16" value="commit_event" style="ellipse;shape=cloud;whiteSpace=wrap;html=1;strokeColor=#B9E0A5;fillColor=#D5E8D4;" parent="vmRFOWgvLukVwsNA1SD3-1" vertex="1">
          <mxGeometry x="105" y="60" width="150" height="90" as="geometry" />
        </mxCell>
        <mxCell id="vmRFOWgvLukVwsNA1SD3-17" value="" style="endArrow=none;dashed=1;html=1;dashPattern=1 3;strokeWidth=2;fillColor=#D5E8D4;exitX=0.5;exitY=0;exitDx=0;exitDy=0;strokeColor=#B9E0A5;" parent="vmRFOWgvLukVwsNA1SD3-1" source="vmRFOWgvLukVwsNA1SD3-8" edge="1">
          <mxGeometry width="50" height="50" relative="1" as="geometry">
            <mxPoint x="60" y="200" as="sourcePoint" />
            <mxPoint x="180" y="146" as="targetPoint" />
          </mxGeometry>
        </mxCell>
        <mxCell id="vmRFOWgvLukVwsNA1SD3-18" value="" style="endArrow=classic;html=1;strokeColor=#A9C4EB;fillColor=#D4E1F5;entryX=0.921;entryY=0.114;entryDx=0;entryDy=0;entryPerimeter=0;exitX=0.571;exitY=1.025;exitDx=0;exitDy=0;exitPerimeter=0;" parent="vmRFOWgvLukVwsNA1SD3-1" source="vmRFOWgvLukVwsNA1SD3-7" target="vmRFOWgvLukVwsNA1SD3-5" edge="1">
          <mxGeometry width="50" height="50" relative="1" as="geometry">
            <mxPoint x="470" y="410" as="sourcePoint" />
            <mxPoint x="520" y="360" as="targetPoint" />
            <Array as="points">
              <mxPoint x="480" y="360" />
              <mxPoint x="421" y="360" />
            </Array>
          </mxGeometry>
        </mxCell>
      </root>
    </mxGraphModel>
  </diagram>
  <diagram id="Im49ktrQdpAzQ_h4rDum" name="审核交互">
    <mxGraphModel dx="1666" dy="793" grid="0" gridSize="10" guides="1" tooltips="1" connect="1" arrows="1" fold="1" page="1" pageScale="1" pageWidth="1654" pageHeight="2336" math="0" shadow="0">
      <root>
        <mxCell id="gkxCEOZfBoG95KxoGRfA-0" />
        <mxCell id="gkxCEOZfBoG95KxoGRfA-1" parent="gkxCEOZfBoG95KxoGRfA-0" />
        <mxCell id="S6iYzV9x7fzSShM5kgWS-2" value="文章数据" style="rounded=0;whiteSpace=wrap;html=1;strokeColor=#EA6B66;fillColor=#F8CECC;" parent="gkxCEOZfBoG95KxoGRfA-1" vertex="1">
          <mxGeometry x="80" y="120" width="160" height="40" as="geometry" />
        </mxCell>
        <mxCell id="S6iYzV9x7fzSShM5kgWS-3" value="作者数据" style="rounded=0;whiteSpace=wrap;html=1;strokeColor=#EA6B66;fillColor=#F8CECC;" parent="gkxCEOZfBoG95KxoGRfA-1" vertex="1">
          <mxGeometry x="80" y="200" width="160" height="40" as="geometry" />
        </mxCell>
        <mxCell id="S6iYzV9x7fzSShM5kgWS-4" value="文章互动数据" style="rounded=0;whiteSpace=wrap;html=1;strokeColor=#EA6B66;fillColor=#F8CECC;" parent="gkxCEOZfBoG95KxoGRfA-1" vertex="1">
          <mxGeometry x="80" y="280" width="160" height="40" as="geometry" />
        </mxCell>
        <mxCell id="l3CKcGDzhflk3ki8KnRf-1" style="edgeStyle=orthogonalEdgeStyle;rounded=0;orthogonalLoop=1;jettySize=auto;html=1;exitX=0.5;exitY=0;exitDx=0;exitDy=0;entryX=1;entryY=0.5;entryDx=0;entryDy=0;strokeColor=#B5739D;fillColor=#E6D0DE;" parent="gkxCEOZfBoG95KxoGRfA-1" source="S6iYzV9x7fzSShM5kgWS-5" target="l3CKcGDzhflk3ki8KnRf-0" edge="1">
          <mxGeometry relative="1" as="geometry" />
        </mxCell>
        <mxCell id="S6iYzV9x7fzSShM5kgWS-5" value="审核系统" style="rounded=0;whiteSpace=wrap;html=1;strokeColor=#EA6B66;fillColor=#F8CECC;" parent="gkxCEOZfBoG95KxoGRfA-1" vertex="1">
          <mxGeometry x="680" y="120" width="160" height="280" as="geometry" />
        </mxCell>
        <mxCell id="S6iYzV9x7fzSShM5kgWS-18" style="edgeStyle=orthogonalEdgeStyle;rounded=0;orthogonalLoop=1;jettySize=auto;html=1;entryX=0;entryY=0.357;entryDx=0;entryDy=0;entryPerimeter=0;strokeColor=#FFD966;fillColor=#FFE599;" parent="gkxCEOZfBoG95KxoGRfA-1" source="S6iYzV9x7fzSShM5kgWS-6" target="S6iYzV9x7fzSShM5kgWS-5" edge="1">
          <mxGeometry relative="1" as="geometry" />
        </mxCell>
        <mxCell id="S6iYzV9x7fzSShM5kgWS-6" value="&lt;span style=&quot;color: rgb(31 , 35 , 41) ; font-size: 13.3333px ; text-align: left&quot;&gt;content.online_cloud.author_callback&lt;/span&gt;" style="rounded=0;whiteSpace=wrap;html=1;strokeColor=#FFD966;fillColor=#FFE599;" parent="gkxCEOZfBoG95KxoGRfA-1" vertex="1">
          <mxGeometry x="320" y="200" width="240" height="40" as="geometry" />
        </mxCell>
        <mxCell id="S6iYzV9x7fzSShM5kgWS-17" style="edgeStyle=orthogonalEdgeStyle;rounded=0;orthogonalLoop=1;jettySize=auto;html=1;entryX=-0.012;entryY=0.071;entryDx=0;entryDy=0;entryPerimeter=0;strokeColor=#FFD966;fillColor=#FFE599;" parent="gkxCEOZfBoG95KxoGRfA-1" source="S6iYzV9x7fzSShM5kgWS-7" target="S6iYzV9x7fzSShM5kgWS-5" edge="1">
          <mxGeometry relative="1" as="geometry" />
        </mxCell>
        <mxCell id="l3CKcGDzhflk3ki8KnRf-3" style="edgeStyle=orthogonalEdgeStyle;rounded=0;orthogonalLoop=1;jettySize=auto;html=1;exitX=0;exitY=0.25;exitDx=0;exitDy=0;entryX=1;entryY=0.25;entryDx=0;entryDy=0;strokeColor=#B5739D;fillColor=#E6D0DE;" parent="gkxCEOZfBoG95KxoGRfA-1" source="S6iYzV9x7fzSShM5kgWS-7" target="S6iYzV9x7fzSShM5kgWS-2" edge="1">
          <mxGeometry relative="1" as="geometry" />
        </mxCell>
        <mxCell id="S6iYzV9x7fzSShM5kgWS-7" value="&lt;span style=&quot;color: rgb(31 , 35 , 41) ; font-family: &amp;#34;larkhacksafarifont&amp;#34; , &amp;#34;larkemojifont&amp;#34; , &amp;#34;larkchinesequote&amp;#34; , , , &amp;#34;helvetica neue&amp;#34; , &amp;#34;tahoma&amp;#34; , &amp;#34;pingfang sc&amp;#34; , &amp;#34;microsoft yahei&amp;#34; , &amp;#34;arial&amp;#34; , &amp;#34;hiragino sans gb&amp;#34; , sans-serif , &amp;#34;apple color emoji&amp;#34; , &amp;#34;segoe ui emoji&amp;#34; , &amp;#34;segoe ui symbol&amp;#34; , &amp;#34;noto color emoji&amp;#34; ; font-size: 13.3333px ; text-align: left&quot;&gt;content.online_cloud.pipeline_callback&lt;/span&gt;" style="rounded=0;whiteSpace=wrap;html=1;strokeColor=#7EA6E0;fillColor=#D4E1F5;" parent="gkxCEOZfBoG95KxoGRfA-1" vertex="1">
          <mxGeometry x="320" y="120" width="240" height="40" as="geometry" />
        </mxCell>
        <mxCell id="S6iYzV9x7fzSShM5kgWS-19" style="edgeStyle=orthogonalEdgeStyle;rounded=0;orthogonalLoop=1;jettySize=auto;html=1;entryX=-0.019;entryY=0.643;entryDx=0;entryDy=0;entryPerimeter=0;strokeColor=#FFD966;fillColor=#FFE599;" parent="gkxCEOZfBoG95KxoGRfA-1" source="S6iYzV9x7fzSShM5kgWS-8" target="S6iYzV9x7fzSShM5kgWS-5" edge="1">
          <mxGeometry relative="1" as="geometry" />
        </mxCell>
        <mxCell id="S6iYzV9x7fzSShM5kgWS-8" value="&lt;span style=&quot;color: rgb(31 , 35 , 41) ; font-family: &amp;#34;larkhacksafarifont&amp;#34; , &amp;#34;larkemojifont&amp;#34; , &amp;#34;larkchinesequote&amp;#34; , , , &amp;#34;helvetica neue&amp;#34; , &amp;#34;tahoma&amp;#34; , &amp;#34;pingfang sc&amp;#34; , &amp;#34;microsoft yahei&amp;#34; , &amp;#34;arial&amp;#34; , &amp;#34;hiragino sans gb&amp;#34; , sans-serif , &amp;#34;apple color emoji&amp;#34; , &amp;#34;segoe ui emoji&amp;#34; , &amp;#34;segoe ui symbol&amp;#34; , &amp;#34;noto color emoji&amp;#34; ; font-size: 13.3333px ; text-align: left&quot;&gt;content.online_cloud.stats_callback&lt;/span&gt;" style="rounded=0;whiteSpace=wrap;html=1;strokeColor=#FFD966;fillColor=#FFE599;" parent="gkxCEOZfBoG95KxoGRfA-1" vertex="1">
          <mxGeometry x="320" y="280" width="240" height="40" as="geometry" />
        </mxCell>
        <mxCell id="S6iYzV9x7fzSShM5kgWS-20" style="edgeStyle=orthogonalEdgeStyle;rounded=0;orthogonalLoop=1;jettySize=auto;html=1;entryX=0;entryY=0.929;entryDx=0;entryDy=0;entryPerimeter=0;strokeColor=#FFD966;fillColor=#FFE599;" parent="gkxCEOZfBoG95KxoGRfA-1" source="S6iYzV9x7fzSShM5kgWS-9" target="S6iYzV9x7fzSShM5kgWS-5" edge="1">
          <mxGeometry relative="1" as="geometry" />
        </mxCell>
        <mxCell id="S6iYzV9x7fzSShM5kgWS-9" value="&lt;span style=&quot;color: rgb(31 , 35 , 41) ; font-family: &amp;#34;larkhacksafarifont&amp;#34; , &amp;#34;larkemojifont&amp;#34; , &amp;#34;larkchinesequote&amp;#34; , , , &amp;#34;helvetica neue&amp;#34; , &amp;#34;tahoma&amp;#34; , &amp;#34;pingfang sc&amp;#34; , &amp;#34;microsoft yahei&amp;#34; , &amp;#34;arial&amp;#34; , &amp;#34;hiragino sans gb&amp;#34; , sans-serif , &amp;#34;apple color emoji&amp;#34; , &amp;#34;segoe ui emoji&amp;#34; , &amp;#34;segoe ui symbol&amp;#34; , &amp;#34;noto color emoji&amp;#34; ; font-size: 13.3333px ; text-align: left&quot;&gt;content.online_cloud.paid_callback&lt;/span&gt;" style="rounded=0;whiteSpace=wrap;html=1;strokeColor=#FFD966;fillColor=#FFE599;" parent="gkxCEOZfBoG95KxoGRfA-1" vertex="1">
          <mxGeometry x="320" y="360" width="240" height="40" as="geometry" />
        </mxCell>
        <mxCell id="S6iYzV9x7fzSShM5kgWS-10" value="" style="endArrow=none;dashed=1;html=1;dashPattern=1 3;strokeWidth=2;fillColor=#FFE599;entryX=0;entryY=0.5;entryDx=0;entryDy=0;exitX=1;exitY=0.5;exitDx=0;exitDy=0;strokeColor=#FFD966;" parent="gkxCEOZfBoG95KxoGRfA-1" source="S6iYzV9x7fzSShM5kgWS-2" target="S6iYzV9x7fzSShM5kgWS-7" edge="1">
          <mxGeometry width="50" height="50" relative="1" as="geometry">
            <mxPoint x="260" y="120" as="sourcePoint" />
            <mxPoint x="310" y="70" as="targetPoint" />
          </mxGeometry>
        </mxCell>
        <mxCell id="S6iYzV9x7fzSShM5kgWS-11" value="" style="endArrow=none;dashed=1;html=1;dashPattern=1 3;strokeWidth=2;fillColor=#FFE599;entryX=0;entryY=0.5;entryDx=0;entryDy=0;exitX=1;exitY=0.5;exitDx=0;exitDy=0;strokeColor=#FFD966;" parent="gkxCEOZfBoG95KxoGRfA-1" source="S6iYzV9x7fzSShM5kgWS-3" target="S6iYzV9x7fzSShM5kgWS-6" edge="1">
          <mxGeometry width="50" height="50" relative="1" as="geometry">
            <mxPoint x="250" y="150" as="sourcePoint" />
            <mxPoint x="330" y="150" as="targetPoint" />
          </mxGeometry>
        </mxCell>
        <mxCell id="S6iYzV9x7fzSShM5kgWS-12" value="" style="endArrow=none;dashed=1;html=1;dashPattern=1 3;strokeWidth=2;fillColor=#FFE599;entryX=0;entryY=0.5;entryDx=0;entryDy=0;exitX=1;exitY=0.5;exitDx=0;exitDy=0;strokeColor=#FFD966;" parent="gkxCEOZfBoG95KxoGRfA-1" source="S6iYzV9x7fzSShM5kgWS-4" target="S6iYzV9x7fzSShM5kgWS-8" edge="1">
          <mxGeometry width="50" height="50" relative="1" as="geometry">
            <mxPoint x="260" y="160" as="sourcePoint" />
            <mxPoint x="340" y="160" as="targetPoint" />
          </mxGeometry>
        </mxCell>
        <mxCell id="l3CKcGDzhflk3ki8KnRf-2" style="edgeStyle=orthogonalEdgeStyle;rounded=0;orthogonalLoop=1;jettySize=auto;html=1;entryX=0.5;entryY=0;entryDx=0;entryDy=0;strokeColor=#B5739D;fillColor=#E6D0DE;exitX=0;exitY=0.5;exitDx=0;exitDy=0;" parent="gkxCEOZfBoG95KxoGRfA-1" source="l3CKcGDzhflk3ki8KnRf-0" target="S6iYzV9x7fzSShM5kgWS-7" edge="1">
          <mxGeometry relative="1" as="geometry" />
        </mxCell>
        <mxCell id="l3CKcGDzhflk3ki8KnRf-0" value="&lt;span style=&quot;color: rgb(31 , 35 , 41) ; font-family: &amp;#34;larkhacksafarifont&amp;#34; , &amp;#34;larkemojifont&amp;#34; , &amp;#34;larkchinesequote&amp;#34; , , , &amp;#34;helvetica neue&amp;#34; , &amp;#34;tahoma&amp;#34; , &amp;#34;pingfang sc&amp;#34; , &amp;#34;microsoft yahei&amp;#34; , &amp;#34;arial&amp;#34; , &amp;#34;hiragino sans gb&amp;#34; , sans-serif , &amp;#34;apple color emoji&amp;#34; , &amp;#34;segoe ui emoji&amp;#34; , &amp;#34;segoe ui symbol&amp;#34; , &amp;#34;noto color emoji&amp;#34; ; font-size: 13.3333px ; text-align: left&quot;&gt;content.online_cloud.review_judge&lt;/span&gt;" style="rounded=0;whiteSpace=wrap;html=1;strokeColor=#B5739D;fillColor=#E6D0DE;" parent="gkxCEOZfBoG95KxoGRfA-1" vertex="1">
          <mxGeometry x="480" y="40" width="240" height="40" as="geometry" />
        </mxCell>
      </root>
    </mxGraphModel>
  </diagram>
  <diagram id="TsRbZmJi_-khFxju_MwS" name="平台 &amp; 小工具">
    <mxGraphModel dx="1666" dy="793" grid="0" gridSize="10" guides="1" tooltips="1" connect="1" arrows="1" fold="1" page="1" pageScale="1" pageWidth="1654" pageHeight="2336" math="0" shadow="0">
      <root>
        <mxCell id="yDxjAmLHYFx4tHy8RkNM-0" />
        <mxCell id="yDxjAmLHYFx4tHy8RkNM-1" parent="yDxjAmLHYFx4tHy8RkNM-0" />
        <mxCell id="Wh7yKYV9lKNIelcgcXR9-31" value="" style="rounded=1;whiteSpace=wrap;html=1;strokeColor=#F8CECC;fillColor=#F8CECC;" parent="yDxjAmLHYFx4tHy8RkNM-1" vertex="1">
          <mxGeometry x="860" y="310" width="200" height="110" as="geometry" />
        </mxCell>
        <mxCell id="WYB5oDW0QnodUoMi3XfG-5" style="edgeStyle=orthogonalEdgeStyle;rounded=0;orthogonalLoop=1;jettySize=auto;html=1;entryX=0;entryY=0.5;entryDx=0;entryDy=0;strokeColor=#000000;fillColor=#D4E1F5;" parent="yDxjAmLHYFx4tHy8RkNM-1" source="WYB5oDW0QnodUoMi3XfG-2" target="WYB5oDW0QnodUoMi3XfG-3" edge="1">
          <mxGeometry relative="1" as="geometry" />
        </mxCell>
        <mxCell id="WYB5oDW0QnodUoMi3XfG-2" value="&lt;span style=&quot;color: rgb(31 , 35 , 41) ; font-family: &amp;#34;larkhacksafarifont&amp;#34; , &amp;#34;larkemojifont&amp;#34; , &amp;#34;larkchinesequote&amp;#34; , , , &amp;#34;helvetica neue&amp;#34; , &amp;#34;tahoma&amp;#34; , &amp;#34;pingfang sc&amp;#34; , &amp;#34;microsoft yahei&amp;#34; , &amp;#34;arial&amp;#34; , &amp;#34;hiragino sans gb&amp;#34; , sans-serif , &amp;#34;apple color emoji&amp;#34; , &amp;#34;segoe ui emoji&amp;#34; , &amp;#34;segoe ui symbol&amp;#34; , &amp;#34;noto color emoji&amp;#34; ; font-size: 13.3333px ; text-align: left ; background-color: rgb(255 , 255 , 255)&quot;&gt;content.online_cloud.user_status_sync&lt;/span&gt;" style="rounded=0;whiteSpace=wrap;html=1;strokeColor=#000000;fillColor=none;" parent="yDxjAmLHYFx4tHy8RkNM-1" vertex="1">
          <mxGeometry x="251" y="80" width="240" height="40" as="geometry" />
        </mxCell>
        <mxCell id="WYB5oDW0QnodUoMi3XfG-3" value="文章数据&lt;br&gt;文章状态变更" style="rounded=0;whiteSpace=wrap;html=1;strokeColor=#000000;fillColor=none;" parent="yDxjAmLHYFx4tHy8RkNM-1" vertex="1">
          <mxGeometry x="544" y="80" width="160" height="40" as="geometry" />
        </mxCell>
        <mxCell id="NgeuPF-14jXu04zpqgk1-2" value="巡检到特征未计算" style="rounded=0;whiteSpace=wrap;html=1;strokeColor=#000000;fillColor=none;" parent="yDxjAmLHYFx4tHy8RkNM-1" vertex="1">
          <mxGeometry x="80" y="200" width="120" height="40" as="geometry" />
        </mxCell>
        <mxCell id="NgeuPF-14jXu04zpqgk1-5" style="edgeStyle=orthogonalEdgeStyle;rounded=0;orthogonalLoop=1;jettySize=auto;html=1;entryX=0;entryY=0.5;entryDx=0;entryDy=0;strokeColor=#000000;fillColor=#E6D0DE;" parent="yDxjAmLHYFx4tHy8RkNM-1" source="NgeuPF-14jXu04zpqgk1-3" target="NgeuPF-14jXu04zpqgk1-4" edge="1">
          <mxGeometry relative="1" as="geometry" />
        </mxCell>
        <mxCell id="NgeuPF-14jXu04zpqgk1-3" value="&lt;span style=&quot;color: rgb(31 , 35 , 41) ; font-family: &amp;#34;larkhacksafarifont&amp;#34; , &amp;#34;larkemojifont&amp;#34; , &amp;#34;larkchinesequote&amp;#34; , , , &amp;#34;helvetica neue&amp;#34; , &amp;#34;tahoma&amp;#34; , &amp;#34;pingfang sc&amp;#34; , &amp;#34;microsoft yahei&amp;#34; , &amp;#34;arial&amp;#34; , &amp;#34;hiragino sans gb&amp;#34; , sans-serif , &amp;#34;apple color emoji&amp;#34; , &amp;#34;segoe ui emoji&amp;#34; , &amp;#34;segoe ui symbol&amp;#34; , &amp;#34;noto color emoji&amp;#34; ; font-size: 13.3333px ; text-align: left ; background-color: rgb(255 , 255 , 255)&quot;&gt;content.toutiao.article_feature_fix&lt;/span&gt;" style="rounded=0;whiteSpace=wrap;html=1;strokeColor=#000000;fillColor=none;" parent="yDxjAmLHYFx4tHy8RkNM-1" vertex="1">
          <mxGeometry x="251" y="200" width="240" height="40" as="geometry" />
        </mxCell>
        <mxCell id="NgeuPF-14jXu04zpqgk1-4" value="文章数据&lt;br&gt;特征计算标记位变更" style="rounded=0;whiteSpace=wrap;html=1;strokeColor=#000000;fillColor=none;" parent="yDxjAmLHYFx4tHy8RkNM-1" vertex="1">
          <mxGeometry x="544" y="200" width="160" height="40" as="geometry" />
        </mxCell>
        <mxCell id="NgeuPF-14jXu04zpqgk1-7" value="" style="endArrow=none;dashed=1;html=1;dashPattern=1 3;strokeWidth=2;fillColor=#E6D0DE;entryX=0;entryY=0.5;entryDx=0;entryDy=0;exitX=1;exitY=0.5;exitDx=0;exitDy=0;" parent="yDxjAmLHYFx4tHy8RkNM-1" source="NgeuPF-14jXu04zpqgk1-2" target="NgeuPF-14jXu04zpqgk1-3" edge="1">
          <mxGeometry width="50" height="50" relative="1" as="geometry">
            <mxPoint x="200" y="200" as="sourcePoint" />
            <mxPoint x="250" y="150" as="targetPoint" />
          </mxGeometry>
        </mxCell>
        <mxCell id="NgeuPF-14jXu04zpqgk1-8" value="文章修改作者消息" style="ellipse;shape=cloud;whiteSpace=wrap;html=1;strokeColor=#000000;fillColor=none;" parent="yDxjAmLHYFx4tHy8RkNM-1" vertex="1">
          <mxGeometry x="70" y="340" width="120" height="80" as="geometry" />
        </mxCell>
        <mxCell id="NgeuPF-14jXu04zpqgk1-10" style="edgeStyle=orthogonalEdgeStyle;rounded=0;orthogonalLoop=1;jettySize=auto;html=1;entryX=0;entryY=0.5;entryDx=0;entryDy=0;strokeColor=#000000;fillColor=#E6D0DE;" parent="yDxjAmLHYFx4tHy8RkNM-1" source="NgeuPF-14jXu04zpqgk1-9" target="WYB5oDW0QnodUoMi3XfG-2" edge="1">
          <mxGeometry relative="1" as="geometry" />
        </mxCell>
        <mxCell id="NgeuPF-14jXu04zpqgk1-9" value="用户状态变更&lt;br&gt;封禁、注销" style="rounded=0;whiteSpace=wrap;html=1;strokeColor=#000000;fillColor=none;" parent="yDxjAmLHYFx4tHy8RkNM-1" vertex="1">
          <mxGeometry x="80" y="80" width="120" height="40" as="geometry" />
        </mxCell>
        <mxCell id="NgeuPF-14jXu04zpqgk1-14" style="edgeStyle=orthogonalEdgeStyle;rounded=0;orthogonalLoop=1;jettySize=auto;html=1;entryX=0;entryY=0.5;entryDx=0;entryDy=0;strokeColor=#000000;fillColor=#E6D0DE;" parent="yDxjAmLHYFx4tHy8RkNM-1" source="NgeuPF-14jXu04zpqgk1-11" target="NgeuPF-14jXu04zpqgk1-12" edge="1">
          <mxGeometry relative="1" as="geometry" />
        </mxCell>
        <mxCell id="NgeuPF-14jXu04zpqgk1-15" style="edgeStyle=orthogonalEdgeStyle;rounded=0;orthogonalLoop=1;jettySize=auto;html=1;entryX=0;entryY=0.5;entryDx=0;entryDy=0;strokeColor=#000000;fillColor=#E6D0DE;" parent="yDxjAmLHYFx4tHy8RkNM-1" source="NgeuPF-14jXu04zpqgk1-11" target="NgeuPF-14jXu04zpqgk1-13" edge="1">
          <mxGeometry relative="1" as="geometry" />
        </mxCell>
        <mxCell id="NgeuPF-14jXu04zpqgk1-11" value="&lt;span style=&quot;color: rgb(31 , 35 , 41) ; font-family: &amp;#34;larkhacksafarifont&amp;#34; , &amp;#34;larkemojifont&amp;#34; , &amp;#34;larkchinesequote&amp;#34; , , , &amp;#34;helvetica neue&amp;#34; , &amp;#34;tahoma&amp;#34; , &amp;#34;pingfang sc&amp;#34; , &amp;#34;microsoft yahei&amp;#34; , &amp;#34;arial&amp;#34; , &amp;#34;hiragino sans gb&amp;#34; , sans-serif , &amp;#34;apple color emoji&amp;#34; , &amp;#34;segoe ui emoji&amp;#34; , &amp;#34;segoe ui symbol&amp;#34; , &amp;#34;noto color emoji&amp;#34; ; font-size: 13.3333px ; text-align: left ; background-color: rgb(255 , 255 , 255)&quot;&gt;toutiao.pgc.pgc_article_account_combination&lt;/span&gt;" style="rounded=0;whiteSpace=wrap;html=1;strokeColor=#000000;fillColor=none;" parent="yDxjAmLHYFx4tHy8RkNM-1" vertex="1">
          <mxGeometry x="230" y="360" width="280" height="40" as="geometry" />
        </mxCell>
        <mxCell id="NgeuPF-14jXu04zpqgk1-12" value="文章数据&lt;br&gt;mid、uid变更" style="rounded=0;whiteSpace=wrap;html=1;strokeColor=#000000;fillColor=none;" parent="yDxjAmLHYFx4tHy8RkNM-1" vertex="1">
          <mxGeometry x="550" y="340" width="160" height="40" as="geometry" />
        </mxCell>
        <mxCell id="NgeuPF-14jXu04zpqgk1-13" value="拉链数据&lt;br&gt;拉链增删" style="rounded=0;whiteSpace=wrap;html=1;strokeColor=#000000;fillColor=none;" parent="yDxjAmLHYFx4tHy8RkNM-1" vertex="1">
          <mxGeometry x="550" y="400" width="160" height="40" as="geometry" />
        </mxCell>
        <mxCell id="NgeuPF-14jXu04zpqgk1-16" value="" style="endArrow=none;dashed=1;html=1;dashPattern=1 3;strokeWidth=2;fillColor=#E6D0DE;entryX=0;entryY=0.5;entryDx=0;entryDy=0;exitX=0.875;exitY=0.5;exitDx=0;exitDy=0;exitPerimeter=0;" parent="yDxjAmLHYFx4tHy8RkNM-1" source="NgeuPF-14jXu04zpqgk1-8" target="NgeuPF-14jXu04zpqgk1-11" edge="1">
          <mxGeometry width="50" height="50" relative="1" as="geometry">
            <mxPoint x="110" y="530" as="sourcePoint" />
            <mxPoint x="160" y="480" as="targetPoint" />
          </mxGeometry>
        </mxCell>
        <mxCell id="NgeuPF-14jXu04zpqgk1-17" value="用户姓名变更消息" style="ellipse;shape=cloud;whiteSpace=wrap;html=1;strokeColor=#000000;fillColor=none;" parent="yDxjAmLHYFx4tHy8RkNM-1" vertex="1">
          <mxGeometry x="70" y="520" width="120" height="80" as="geometry" />
        </mxCell>
        <mxCell id="NgeuPF-14jXu04zpqgk1-21" style="edgeStyle=orthogonalEdgeStyle;rounded=0;orthogonalLoop=1;jettySize=auto;html=1;entryX=0;entryY=0.5;entryDx=0;entryDy=0;strokeColor=#000000;fillColor=#E6D0DE;" parent="yDxjAmLHYFx4tHy8RkNM-1" source="NgeuPF-14jXu04zpqgk1-18" target="NgeuPF-14jXu04zpqgk1-19" edge="1">
          <mxGeometry relative="1" as="geometry" />
        </mxCell>
        <mxCell id="NgeuPF-14jXu04zpqgk1-18" value="&lt;span style=&quot;color: rgb(31 , 35 , 41) ; font-family: &amp;#34;larkhacksafarifont&amp;#34; , &amp;#34;larkemojifont&amp;#34; , &amp;#34;larkchinesequote&amp;#34; , , , &amp;#34;helvetica neue&amp;#34; , &amp;#34;tahoma&amp;#34; , &amp;#34;pingfang sc&amp;#34; , &amp;#34;microsoft yahei&amp;#34; , &amp;#34;arial&amp;#34; , &amp;#34;hiragino sans gb&amp;#34; , sans-serif , &amp;#34;apple color emoji&amp;#34; , &amp;#34;segoe ui emoji&amp;#34; , &amp;#34;segoe ui symbol&amp;#34; , &amp;#34;noto color emoji&amp;#34; ; font-size: 13.3333px ; text-align: left ; background-color: rgb(255 , 255 , 255)&quot;&gt;toutiao.pgc.article_sync_name_modify&lt;/span&gt;" style="rounded=0;whiteSpace=wrap;html=1;strokeColor=#000000;fillColor=none;" parent="yDxjAmLHYFx4tHy8RkNM-1" vertex="1">
          <mxGeometry x="240" y="540" width="240" height="40" as="geometry" />
        </mxCell>
        <mxCell id="NgeuPF-14jXu04zpqgk1-19" value="文章数据&lt;br&gt;url_source/source变更" style="rounded=0;whiteSpace=wrap;html=1;strokeColor=#000000;fillColor=none;" parent="yDxjAmLHYFx4tHy8RkNM-1" vertex="1">
          <mxGeometry x="550" y="540" width="160" height="40" as="geometry" />
        </mxCell>
        <mxCell id="NgeuPF-14jXu04zpqgk1-20" value="" style="endArrow=none;dashed=1;html=1;dashPattern=1 3;strokeWidth=2;fillColor=#E6D0DE;entryX=0;entryY=0.5;entryDx=0;entryDy=0;exitX=0.875;exitY=0.5;exitDx=0;exitDy=0;exitPerimeter=0;" parent="yDxjAmLHYFx4tHy8RkNM-1" source="NgeuPF-14jXu04zpqgk1-17" target="NgeuPF-14jXu04zpqgk1-18" edge="1">
          <mxGeometry width="50" height="50" relative="1" as="geometry">
            <mxPoint x="160" y="640" as="sourcePoint" />
            <mxPoint x="210" y="590" as="targetPoint" />
          </mxGeometry>
        </mxCell>
        <mxCell id="K9s3yXcRB9WmWFMie_xs-0" value="commit_event" style="ellipse;shape=cloud;whiteSpace=wrap;html=1;strokeColor=#000000;fillColor=none;" parent="yDxjAmLHYFx4tHy8RkNM-1" vertex="1">
          <mxGeometry x="180" y="670" width="120" height="80" as="geometry" />
        </mxCell>
        <mxCell id="K9s3yXcRB9WmWFMie_xs-7" style="edgeStyle=orthogonalEdgeStyle;rounded=0;orthogonalLoop=1;jettySize=auto;html=1;entryX=0;entryY=0.5;entryDx=0;entryDy=0;entryPerimeter=0;strokeColor=#000000;fillColor=#E6D0DE;" parent="yDxjAmLHYFx4tHy8RkNM-1" source="K9s3yXcRB9WmWFMie_xs-1" target="K9s3yXcRB9WmWFMie_xs-6" edge="1">
          <mxGeometry relative="1" as="geometry" />
        </mxCell>
        <mxCell id="K9s3yXcRB9WmWFMie_xs-1" value="&lt;span style=&quot;color: rgb(31 , 35 , 41) ; font-family: &amp;#34;larkhacksafarifont&amp;#34; , &amp;#34;larkemojifont&amp;#34; , &amp;#34;larkchinesequote&amp;#34; , , , &amp;#34;helvetica neue&amp;#34; , &amp;#34;tahoma&amp;#34; , &amp;#34;pingfang sc&amp;#34; , &amp;#34;microsoft yahei&amp;#34; , &amp;#34;arial&amp;#34; , &amp;#34;hiragino sans gb&amp;#34; , sans-serif , &amp;#34;apple color emoji&amp;#34; , &amp;#34;segoe ui emoji&amp;#34; , &amp;#34;segoe ui symbol&amp;#34; , &amp;#34;noto color emoji&amp;#34; ; font-size: 13.3333px ; text-align: left ; background-color: rgb(255 , 255 , 255)&quot;&gt;content.online_cloud.article_commit_event_agent_server&lt;/span&gt;" style="rounded=0;whiteSpace=wrap;html=1;strokeColor=#000000;fillColor=none;" parent="yDxjAmLHYFx4tHy8RkNM-1" vertex="1">
          <mxGeometry x="350" y="690" width="360" height="40" as="geometry" />
        </mxCell>
        <mxCell id="K9s3yXcRB9WmWFMie_xs-3" value="" style="endArrow=none;dashed=1;html=1;dashPattern=1 3;strokeWidth=2;fillColor=#E6D0DE;entryX=0;entryY=0.5;entryDx=0;entryDy=0;exitX=0.875;exitY=0.5;exitDx=0;exitDy=0;exitPerimeter=0;" parent="yDxjAmLHYFx4tHy8RkNM-1" source="K9s3yXcRB9WmWFMie_xs-0" target="K9s3yXcRB9WmWFMie_xs-1" edge="1">
          <mxGeometry width="50" height="50" relative="1" as="geometry">
            <mxPoint x="290" y="700" as="sourcePoint" />
            <mxPoint x="340" y="650" as="targetPoint" />
          </mxGeometry>
        </mxCell>
        <mxCell id="K9s3yXcRB9WmWFMie_xs-4" value="线上数据" style="shape=cylinder3;whiteSpace=wrap;html=1;boundedLbl=1;backgroundOutline=1;size=15;strokeColor=#000000;fillColor=none;" parent="yDxjAmLHYFx4tHy8RkNM-1" vertex="1">
          <mxGeometry x="70" y="673" width="60" height="80" as="geometry" />
        </mxCell>
        <mxCell id="K9s3yXcRB9WmWFMie_xs-5" value="" style="endArrow=none;dashed=1;html=1;dashPattern=1 3;strokeWidth=2;fillColor=#E6D0DE;entryX=0.16;entryY=0.55;entryDx=0;entryDy=0;entryPerimeter=0;" parent="yDxjAmLHYFx4tHy8RkNM-1" source="K9s3yXcRB9WmWFMie_xs-4" target="K9s3yXcRB9WmWFMie_xs-0" edge="1">
          <mxGeometry width="50" height="50" relative="1" as="geometry">
            <mxPoint x="150" y="710" as="sourcePoint" />
            <mxPoint x="200" y="660" as="targetPoint" />
          </mxGeometry>
        </mxCell>
        <mxCell id="K9s3yXcRB9WmWFMie_xs-6" value="BOE数据" style="shape=cylinder3;whiteSpace=wrap;html=1;boundedLbl=1;backgroundOutline=1;size=15;strokeColor=#000000;fillColor=none;" parent="yDxjAmLHYFx4tHy8RkNM-1" vertex="1">
          <mxGeometry x="740" y="670" width="60" height="80" as="geometry" />
        </mxCell>
        <mxCell id="K9s3yXcRB9WmWFMie_xs-9" value="" style="rounded=1;whiteSpace=wrap;html=1;strokeColor=#000000;fillColor=none;" parent="yDxjAmLHYFx4tHy8RkNM-1" vertex="1">
          <mxGeometry x="60" y="50" width="660" height="80" as="geometry" />
        </mxCell>
        <mxCell id="K9s3yXcRB9WmWFMie_xs-10" value="用户注销/封禁 -&amp;gt; 文章下架" style="text;html=1;align=center;verticalAlign=middle;resizable=0;points=[];autosize=1;" parent="yDxjAmLHYFx4tHy8RkNM-1" vertex="1">
          <mxGeometry x="60" y="50" width="160" height="20" as="geometry" />
        </mxCell>
        <mxCell id="K9s3yXcRB9WmWFMie_xs-11" value="" style="rounded=1;whiteSpace=wrap;html=1;strokeColor=#000000;fillColor=none;" parent="yDxjAmLHYFx4tHy8RkNM-1" vertex="1">
          <mxGeometry x="60" y="170" width="660" height="80" as="geometry" />
        </mxCell>
        <mxCell id="K9s3yXcRB9WmWFMie_xs-12" value="超时未算完特征 -&amp;gt; 补全标记位" style="text;html=1;align=center;verticalAlign=middle;resizable=0;points=[];autosize=1;" parent="yDxjAmLHYFx4tHy8RkNM-1" vertex="1">
          <mxGeometry x="60" y="172" width="180" height="20" as="geometry" />
        </mxCell>
        <mxCell id="K9s3yXcRB9WmWFMie_xs-13" value="" style="rounded=1;whiteSpace=wrap;html=1;strokeColor=#000000;fillColor=none;" parent="yDxjAmLHYFx4tHy8RkNM-1" vertex="1">
          <mxGeometry x="70" y="320" width="650" height="130" as="geometry" />
        </mxCell>
        <mxCell id="K9s3yXcRB9WmWFMie_xs-14" value="文章作者变更" style="text;html=1;align=center;verticalAlign=middle;resizable=0;points=[];autosize=1;" parent="yDxjAmLHYFx4tHy8RkNM-1" vertex="1">
          <mxGeometry x="71" y="322" width="90" height="20" as="geometry" />
        </mxCell>
        <mxCell id="K9s3yXcRB9WmWFMie_xs-15" value="" style="rounded=1;whiteSpace=wrap;html=1;strokeColor=#000000;fillColor=none;" parent="yDxjAmLHYFx4tHy8RkNM-1" vertex="1">
          <mxGeometry x="70" y="500" width="650" height="100" as="geometry" />
        </mxCell>
        <mxCell id="K9s3yXcRB9WmWFMie_xs-16" value="作者姓名变更" style="text;html=1;align=center;verticalAlign=middle;resizable=0;points=[];autosize=1;" parent="yDxjAmLHYFx4tHy8RkNM-1" vertex="1">
          <mxGeometry x="71" y="510" width="90" height="20" as="geometry" />
        </mxCell>
        <mxCell id="K9s3yXcRB9WmWFMie_xs-17" value="" style="rounded=1;whiteSpace=wrap;html=1;strokeColor=#000000;fillColor=none;" parent="yDxjAmLHYFx4tHy8RkNM-1" vertex="1">
          <mxGeometry x="60" y="640" width="750" height="120" as="geometry" />
        </mxCell>
        <mxCell id="K9s3yXcRB9WmWFMie_xs-18" value="线上-&amp;gt;BOE 数据同步" style="text;html=1;align=center;verticalAlign=middle;resizable=0;points=[];autosize=1;" parent="yDxjAmLHYFx4tHy8RkNM-1" vertex="1">
          <mxGeometry x="70" y="640" width="130" height="20" as="geometry" />
        </mxCell>
        <mxCell id="Wh7yKYV9lKNIelcgcXR9-5" style="edgeStyle=orthogonalEdgeStyle;rounded=0;orthogonalLoop=1;jettySize=auto;html=1;entryX=0.5;entryY=0;entryDx=0;entryDy=0;strokeColor=#FFD966;fillColor=#FFF2CC;" parent="yDxjAmLHYFx4tHy8RkNM-1" source="Wh7yKYV9lKNIelcgcXR9-0" target="Wh7yKYV9lKNIelcgcXR9-1" edge="1">
          <mxGeometry relative="1" as="geometry" />
        </mxCell>
        <mxCell id="Wh7yKYV9lKNIelcgcXR9-0" value="api_gateway" style="rounded=0;whiteSpace=wrap;html=1;strokeColor=#FFD966;fillColor=#FFF2CC;" parent="yDxjAmLHYFx4tHy8RkNM-1" vertex="1">
          <mxGeometry x="1080" y="120" width="200" height="40" as="geometry" />
        </mxCell>
        <mxCell id="Wh7yKYV9lKNIelcgcXR9-20" style="edgeStyle=orthogonalEdgeStyle;rounded=0;orthogonalLoop=1;jettySize=auto;html=1;strokeColor=#EA6B66;fillColor=#FFF2CC;exitX=0.5;exitY=1;exitDx=0;exitDy=0;" parent="yDxjAmLHYFx4tHy8RkNM-1" source="Wh7yKYV9lKNIelcgcXR9-1" target="Wh7yKYV9lKNIelcgcXR9-18" edge="1">
          <mxGeometry relative="1" as="geometry">
            <mxPoint x="1300" y="250" as="sourcePoint" />
          </mxGeometry>
        </mxCell>
        <mxCell id="Wh7yKYV9lKNIelcgcXR9-21" style="edgeStyle=orthogonalEdgeStyle;rounded=0;orthogonalLoop=1;jettySize=auto;html=1;entryX=0.5;entryY=0;entryDx=0;entryDy=0;strokeColor=#EA6B66;fillColor=#FFF2CC;exitX=0.5;exitY=1;exitDx=0;exitDy=0;" parent="yDxjAmLHYFx4tHy8RkNM-1" source="Wh7yKYV9lKNIelcgcXR9-1" target="Wh7yKYV9lKNIelcgcXR9-12" edge="1">
          <mxGeometry relative="1" as="geometry">
            <mxPoint x="1300" y="250" as="sourcePoint" />
          </mxGeometry>
        </mxCell>
        <mxCell id="Wh7yKYV9lKNIelcgcXR9-22" style="edgeStyle=orthogonalEdgeStyle;rounded=0;orthogonalLoop=1;jettySize=auto;html=1;entryX=0.5;entryY=0;entryDx=0;entryDy=0;strokeColor=#B5739D;fillColor=#FFF2CC;exitX=0.5;exitY=1;exitDx=0;exitDy=0;" parent="yDxjAmLHYFx4tHy8RkNM-1" source="Wh7yKYV9lKNIelcgcXR9-1" target="Wh7yKYV9lKNIelcgcXR9-2" edge="1">
          <mxGeometry relative="1" as="geometry">
            <mxPoint x="1300" y="250" as="sourcePoint" />
          </mxGeometry>
        </mxCell>
        <mxCell id="Wh7yKYV9lKNIelcgcXR9-26" style="edgeStyle=orthogonalEdgeStyle;rounded=0;orthogonalLoop=1;jettySize=auto;html=1;entryX=0.5;entryY=0;entryDx=0;entryDy=0;entryPerimeter=0;strokeColor=#EA6B66;fillColor=#FFF2CC;" parent="yDxjAmLHYFx4tHy8RkNM-1" source="Wh7yKYV9lKNIelcgcXR9-1" target="Wh7yKYV9lKNIelcgcXR9-8" edge="1">
          <mxGeometry relative="1" as="geometry" />
        </mxCell>
        <mxCell id="Wh7yKYV9lKNIelcgcXR9-29" style="edgeStyle=orthogonalEdgeStyle;rounded=0;orthogonalLoop=1;jettySize=auto;html=1;strokeColor=#EA6B66;fillColor=#FFF2CC;exitX=0.5;exitY=1;exitDx=0;exitDy=0;" parent="yDxjAmLHYFx4tHy8RkNM-1" source="Wh7yKYV9lKNIelcgcXR9-1" target="Wh7yKYV9lKNIelcgcXR9-28" edge="1">
          <mxGeometry relative="1" as="geometry" />
        </mxCell>
        <mxCell id="Wh7yKYV9lKNIelcgcXR9-30" style="edgeStyle=orthogonalEdgeStyle;rounded=0;orthogonalLoop=1;jettySize=auto;html=1;strokeColor=#EA6B66;fillColor=#FFF2CC;exitX=0.5;exitY=1;exitDx=0;exitDy=0;" parent="yDxjAmLHYFx4tHy8RkNM-1" source="Wh7yKYV9lKNIelcgcXR9-1" target="Wh7yKYV9lKNIelcgcXR9-27" edge="1">
          <mxGeometry relative="1" as="geometry" />
        </mxCell>
        <mxCell id="Wh7yKYV9lKNIelcgcXR9-1" value="content.online_cloud.platform" style="rounded=0;whiteSpace=wrap;html=1;strokeColor=#FFD966;fillColor=#FFF2CC;" parent="yDxjAmLHYFx4tHy8RkNM-1" vertex="1">
          <mxGeometry x="1080" y="200" width="200" height="40" as="geometry" />
        </mxCell>
        <mxCell id="Wh7yKYV9lKNIelcgcXR9-24" style="edgeStyle=orthogonalEdgeStyle;rounded=0;orthogonalLoop=1;jettySize=auto;html=1;entryX=1;entryY=0.5;entryDx=0;entryDy=0;strokeColor=#B5739D;fillColor=#FFF2CC;exitX=1;exitY=0.5;exitDx=0;exitDy=0;" parent="yDxjAmLHYFx4tHy8RkNM-1" source="Wh7yKYV9lKNIelcgcXR9-2" target="Wh7yKYV9lKNIelcgcXR9-1" edge="1">
          <mxGeometry relative="1" as="geometry" />
        </mxCell>
        <mxCell id="Wh7yKYV9lKNIelcgcXR9-2" value="bpm" style="rounded=0;whiteSpace=wrap;html=1;strokeColor=#B5739D;fillColor=#E6D0DE;" parent="yDxjAmLHYFx4tHy8RkNM-1" vertex="1">
          <mxGeometry x="1440" y="330" width="80" height="40" as="geometry" />
        </mxCell>
        <mxCell id="Wh7yKYV9lKNIelcgcXR9-8" value="online_cloud" style="shape=cylinder3;whiteSpace=wrap;html=1;boundedLbl=1;backgroundOutline=1;size=15;strokeColor=#EA6B66;fillColor=#F8CECC;" parent="yDxjAmLHYFx4tHy8RkNM-1" vertex="1">
          <mxGeometry x="1090" y="330" width="70" height="80" as="geometry" />
        </mxCell>
        <mxCell id="Wh7yKYV9lKNIelcgcXR9-12" value="ms" style="rounded=0;whiteSpace=wrap;html=1;strokeColor=#EA6B66;fillColor=#F8CECC;" parent="yDxjAmLHYFx4tHy8RkNM-1" vertex="1">
          <mxGeometry x="1320" y="330" width="80" height="40" as="geometry" />
        </mxCell>
        <mxCell id="Wh7yKYV9lKNIelcgcXR9-18" value="tcc" style="rounded=0;whiteSpace=wrap;html=1;strokeColor=#EA6B66;fillColor=#F8CECC;" parent="yDxjAmLHYFx4tHy8RkNM-1" vertex="1">
          <mxGeometry x="1200" y="330" width="80" height="40" as="geometry" />
        </mxCell>
        <mxCell id="Wh7yKYV9lKNIelcgcXR9-27" value="click_house" style="shape=cylinder3;whiteSpace=wrap;html=1;boundedLbl=1;backgroundOutline=1;size=15;strokeColor=#EA6B66;fillColor=#F8CECC;" parent="yDxjAmLHYFx4tHy8RkNM-1" vertex="1">
          <mxGeometry x="980" y="330" width="70" height="80" as="geometry" />
        </mxCell>
        <mxCell id="Wh7yKYV9lKNIelcgcXR9-28" value="log_house" style="shape=cylinder3;whiteSpace=wrap;html=1;boundedLbl=1;backgroundOutline=1;size=15;strokeColor=#EA6B66;fillColor=#F8CECC;" parent="yDxjAmLHYFx4tHy8RkNM-1" vertex="1">
          <mxGeometry x="890" y="330" width="70" height="80" as="geometry" />
        </mxCell>
        <mxCell id="Wh7yKYV9lKNIelcgcXR9-32" value="审计" style="text;html=1;align=center;verticalAlign=middle;resizable=0;points=[];autosize=1;" parent="yDxjAmLHYFx4tHy8RkNM-1" vertex="1">
          <mxGeometry x="860" y="320" width="40" height="20" as="geometry" />
        </mxCell>
      </root>
    </mxGraphModel>
  </diagram>
  <diagram id="Vd9u2zg2RwG1-HongbXL" name="核心流程">
    <mxGraphModel dx="1666" dy="793" grid="0" gridSize="10" guides="1" tooltips="1" connect="1" arrows="1" fold="1" page="1" pageScale="1" pageWidth="3300" pageHeight="4681" math="0" shadow="0">
      <root>
        <mxCell id="dVSpkT2BSdJXHW_wpIsH-0" />
        <mxCell id="dVSpkT2BSdJXHW_wpIsH-1" parent="dVSpkT2BSdJXHW_wpIsH-0" />
        <mxCell id="dVSpkT2BSdJXHW_wpIsH-67" value="" style="rounded=0;whiteSpace=wrap;html=1;strokeColor=#000000;fillColor=none;" parent="dVSpkT2BSdJXHW_wpIsH-1" vertex="1">
          <mxGeometry x="805" y="518.5" width="60" height="90" as="geometry" />
        </mxCell>
        <mxCell id="dVSpkT2BSdJXHW_wpIsH-63" value="" style="rounded=0;whiteSpace=wrap;html=1;strokeColor=#000000;fillColor=none;" parent="dVSpkT2BSdJXHW_wpIsH-1" vertex="1">
          <mxGeometry x="730" y="518.5" width="70" height="230" as="geometry" />
        </mxCell>
        <mxCell id="dVSpkT2BSdJXHW_wpIsH-12" style="edgeStyle=orthogonalEdgeStyle;rounded=0;orthogonalLoop=1;jettySize=auto;html=1;strokeColor=#000000;fillColor=#FFF2CC;" parent="dVSpkT2BSdJXHW_wpIsH-1" source="dVSpkT2BSdJXHW_wpIsH-2" target="dVSpkT2BSdJXHW_wpIsH-11" edge="1">
          <mxGeometry relative="1" as="geometry" />
        </mxCell>
        <mxCell id="dVSpkT2BSdJXHW_wpIsH-2" value="平台接入" style="rounded=0;whiteSpace=wrap;html=1;strokeColor=#000000;fillColor=none;" parent="dVSpkT2BSdJXHW_wpIsH-1" vertex="1">
          <mxGeometry x="160" y="276" width="80" height="40" as="geometry" />
        </mxCell>
        <mxCell id="dVSpkT2BSdJXHW_wpIsH-10" style="edgeStyle=orthogonalEdgeStyle;rounded=0;orthogonalLoop=1;jettySize=auto;html=1;entryX=0;entryY=0.5;entryDx=0;entryDy=0;strokeColor=#000000;fillColor=#FFF2CC;" parent="dVSpkT2BSdJXHW_wpIsH-1" source="dVSpkT2BSdJXHW_wpIsH-4" target="dVSpkT2BSdJXHW_wpIsH-2" edge="1">
          <mxGeometry relative="1" as="geometry" />
        </mxCell>
        <mxCell id="dVSpkT2BSdJXHW_wpIsH-4" value="Actor" style="shape=umlActor;verticalLabelPosition=bottom;verticalAlign=top;html=1;outlineConnect=0;strokeColor=#000000;fillColor=none;" parent="dVSpkT2BSdJXHW_wpIsH-1" vertex="1">
          <mxGeometry x="80" y="266" width="30" height="60" as="geometry" />
        </mxCell>
        <mxCell id="dVSpkT2BSdJXHW_wpIsH-26" style="edgeStyle=orthogonalEdgeStyle;rounded=0;orthogonalLoop=1;jettySize=auto;html=1;entryX=0;entryY=0.5;entryDx=0;entryDy=0;strokeColor=#000000;fillColor=#FFF2CC;" parent="dVSpkT2BSdJXHW_wpIsH-1" source="dVSpkT2BSdJXHW_wpIsH-11" target="dVSpkT2BSdJXHW_wpIsH-25" edge="1">
          <mxGeometry relative="1" as="geometry" />
        </mxCell>
        <mxCell id="dVSpkT2BSdJXHW_wpIsH-11" value="配置流程" style="rounded=0;whiteSpace=wrap;html=1;strokeColor=#000000;fillColor=none;" parent="dVSpkT2BSdJXHW_wpIsH-1" vertex="1">
          <mxGeometry x="280" y="276" width="80" height="40" as="geometry" />
        </mxCell>
        <mxCell id="dVSpkT2BSdJXHW_wpIsH-23" style="edgeStyle=orthogonalEdgeStyle;rounded=0;orthogonalLoop=1;jettySize=auto;html=1;entryX=0.16;entryY=0.55;entryDx=0;entryDy=0;entryPerimeter=0;strokeColor=#000000;fillColor=#FFF2CC;" parent="dVSpkT2BSdJXHW_wpIsH-1" source="dVSpkT2BSdJXHW_wpIsH-13" target="dVSpkT2BSdJXHW_wpIsH-18" edge="1">
          <mxGeometry relative="1" as="geometry" />
        </mxCell>
        <mxCell id="dVSpkT2BSdJXHW_wpIsH-24" style="edgeStyle=orthogonalEdgeStyle;rounded=0;orthogonalLoop=1;jettySize=auto;html=1;entryX=0;entryY=0.5;entryDx=0;entryDy=0;entryPerimeter=0;strokeColor=#000000;fillColor=#FFF2CC;" parent="dVSpkT2BSdJXHW_wpIsH-1" source="dVSpkT2BSdJXHW_wpIsH-13" target="dVSpkT2BSdJXHW_wpIsH-17" edge="1">
          <mxGeometry relative="1" as="geometry" />
        </mxCell>
        <mxCell id="dVSpkT2BSdJXHW_wpIsH-13" value="写入配置" style="rounded=0;whiteSpace=wrap;html=1;strokeColor=#000000;fillColor=none;" parent="dVSpkT2BSdJXHW_wpIsH-1" vertex="1">
          <mxGeometry x="520" y="276" width="80" height="40" as="geometry" />
        </mxCell>
        <mxCell id="dVSpkT2BSdJXHW_wpIsH-17" value="mysql" style="shape=cylinder3;whiteSpace=wrap;html=1;boundedLbl=1;backgroundOutline=1;size=15;strokeColor=#000000;fillColor=none;" parent="dVSpkT2BSdJXHW_wpIsH-1" vertex="1">
          <mxGeometry x="650" y="196" width="40" height="60" as="geometry" />
        </mxCell>
        <mxCell id="dVSpkT2BSdJXHW_wpIsH-18" value="tcc" style="ellipse;shape=cloud;whiteSpace=wrap;html=1;strokeColor=#000000;fillColor=none;" parent="dVSpkT2BSdJXHW_wpIsH-1" vertex="1">
          <mxGeometry x="650" y="286" width="70" height="60" as="geometry" />
        </mxCell>
        <mxCell id="dVSpkT2BSdJXHW_wpIsH-27" style="edgeStyle=orthogonalEdgeStyle;rounded=0;orthogonalLoop=1;jettySize=auto;html=1;entryX=0;entryY=0.5;entryDx=0;entryDy=0;strokeColor=#000000;fillColor=#FFF2CC;" parent="dVSpkT2BSdJXHW_wpIsH-1" source="dVSpkT2BSdJXHW_wpIsH-25" target="dVSpkT2BSdJXHW_wpIsH-13" edge="1">
          <mxGeometry relative="1" as="geometry" />
        </mxCell>
        <mxCell id="dVSpkT2BSdJXHW_wpIsH-25" value="工单审批" style="rounded=0;whiteSpace=wrap;html=1;strokeColor=#000000;fillColor=none;" parent="dVSpkT2BSdJXHW_wpIsH-1" vertex="1">
          <mxGeometry x="400" y="276" width="80" height="40" as="geometry" />
        </mxCell>
        <mxCell id="dVSpkT2BSdJXHW_wpIsH-55" style="edgeStyle=orthogonalEdgeStyle;rounded=0;orthogonalLoop=1;jettySize=auto;html=1;entryX=0;entryY=0.5;entryDx=0;entryDy=0;strokeColor=#000000;fillColor=#FFF2CC;" parent="dVSpkT2BSdJXHW_wpIsH-1" source="dVSpkT2BSdJXHW_wpIsH-29" target="dVSpkT2BSdJXHW_wpIsH-30" edge="1">
          <mxGeometry relative="1" as="geometry" />
        </mxCell>
        <mxCell id="dVSpkT2BSdJXHW_wpIsH-29" value="Actor" style="shape=umlActor;verticalLabelPosition=bottom;verticalAlign=top;html=1;outlineConnect=0;strokeColor=#000000;fillColor=none;" parent="dVSpkT2BSdJXHW_wpIsH-1" vertex="1">
          <mxGeometry x="80" y="426" width="30" height="60" as="geometry" />
        </mxCell>
        <mxCell id="dVSpkT2BSdJXHW_wpIsH-56" style="edgeStyle=orthogonalEdgeStyle;rounded=0;orthogonalLoop=1;jettySize=auto;html=1;entryX=0;entryY=0.5;entryDx=0;entryDy=0;strokeColor=#000000;fillColor=#FFF2CC;" parent="dVSpkT2BSdJXHW_wpIsH-1" source="dVSpkT2BSdJXHW_wpIsH-30" target="dVSpkT2BSdJXHW_wpIsH-31" edge="1">
          <mxGeometry relative="1" as="geometry" />
        </mxCell>
        <mxCell id="dVSpkT2BSdJXHW_wpIsH-30" value="业务API" style="rounded=0;whiteSpace=wrap;html=1;strokeColor=#000000;fillColor=none;" parent="dVSpkT2BSdJXHW_wpIsH-1" vertex="1">
          <mxGeometry x="160" y="436" width="80" height="40" as="geometry" />
        </mxCell>
        <mxCell id="dVSpkT2BSdJXHW_wpIsH-57" style="edgeStyle=orthogonalEdgeStyle;rounded=0;orthogonalLoop=1;jettySize=auto;html=1;entryX=0;entryY=0.5;entryDx=0;entryDy=0;strokeColor=#000000;fillColor=#FFF2CC;" parent="dVSpkT2BSdJXHW_wpIsH-1" source="dVSpkT2BSdJXHW_wpIsH-31" target="dVSpkT2BSdJXHW_wpIsH-32" edge="1">
          <mxGeometry relative="1" as="geometry" />
        </mxCell>
        <mxCell id="dVSpkT2BSdJXHW_wpIsH-237" style="edgeStyle=orthogonalEdgeStyle;rounded=0;orthogonalLoop=1;jettySize=auto;html=1;entryX=0;entryY=0.25;entryDx=0;entryDy=0;strokeColor=#000000;fillColor=#FFF2CC;" parent="dVSpkT2BSdJXHW_wpIsH-1" source="dVSpkT2BSdJXHW_wpIsH-31" target="dVSpkT2BSdJXHW_wpIsH-33" edge="1">
          <mxGeometry relative="1" as="geometry" />
        </mxCell>
        <mxCell id="dVSpkT2BSdJXHW_wpIsH-31" value="发文接口" style="rounded=0;whiteSpace=wrap;html=1;strokeColor=#000000;fillColor=none;" parent="dVSpkT2BSdJXHW_wpIsH-1" vertex="1">
          <mxGeometry x="280" y="436" width="80" height="40" as="geometry" />
        </mxCell>
        <mxCell id="dVSpkT2BSdJXHW_wpIsH-58" style="edgeStyle=orthogonalEdgeStyle;rounded=0;orthogonalLoop=1;jettySize=auto;html=1;entryX=0;entryY=0.5;entryDx=0;entryDy=0;strokeColor=#000000;fillColor=#FFF2CC;" parent="dVSpkT2BSdJXHW_wpIsH-1" source="dVSpkT2BSdJXHW_wpIsH-32" target="dVSpkT2BSdJXHW_wpIsH-37" edge="1">
          <mxGeometry relative="1" as="geometry" />
        </mxCell>
        <mxCell id="jXVKR33a2lAW2Qp4Rx-c-2" style="edgeStyle=orthogonalEdgeStyle;rounded=0;orthogonalLoop=1;jettySize=auto;html=1;entryX=0.31;entryY=0.8;entryDx=0;entryDy=0;entryPerimeter=0;strokeColor=#000000;fillColor=#FFF2CC;exitX=0.5;exitY=0;exitDx=0;exitDy=0;" parent="dVSpkT2BSdJXHW_wpIsH-1" source="dVSpkT2BSdJXHW_wpIsH-32" target="dVSpkT2BSdJXHW_wpIsH-18" edge="1">
          <mxGeometry relative="1" as="geometry" />
        </mxCell>
        <mxCell id="dVSpkT2BSdJXHW_wpIsH-32" value="读取业务配置" style="rounded=0;whiteSpace=wrap;html=1;strokeColor=#000000;fillColor=none;" parent="dVSpkT2BSdJXHW_wpIsH-1" vertex="1">
          <mxGeometry x="400" y="436" width="80" height="40" as="geometry" />
        </mxCell>
        <mxCell id="dVSpkT2BSdJXHW_wpIsH-236" style="edgeStyle=orthogonalEdgeStyle;rounded=0;orthogonalLoop=1;jettySize=auto;html=1;entryX=0;entryY=0.5;entryDx=0;entryDy=0;strokeColor=#000000;fillColor=#FFF2CC;exitX=1;exitY=0.5;exitDx=0;exitDy=0;" parent="dVSpkT2BSdJXHW_wpIsH-1" source="dVSpkT2BSdJXHW_wpIsH-33" target="dVSpkT2BSdJXHW_wpIsH-235" edge="1">
          <mxGeometry relative="1" as="geometry" />
        </mxCell>
        <mxCell id="dVSpkT2BSdJXHW_wpIsH-33" value="读取用户信息" style="rounded=0;whiteSpace=wrap;html=1;strokeColor=#000000;fillColor=none;" parent="dVSpkT2BSdJXHW_wpIsH-1" vertex="1">
          <mxGeometry x="400" y="516" width="80" height="40" as="geometry" />
        </mxCell>
        <mxCell id="dVSpkT2BSdJXHW_wpIsH-60" style="edgeStyle=orthogonalEdgeStyle;rounded=0;orthogonalLoop=1;jettySize=auto;html=1;entryX=0;entryY=0.5;entryDx=0;entryDy=0;strokeColor=#000000;fillColor=#FFF2CC;" parent="dVSpkT2BSdJXHW_wpIsH-1" source="dVSpkT2BSdJXHW_wpIsH-37" target="dVSpkT2BSdJXHW_wpIsH-38" edge="1">
          <mxGeometry relative="1" as="geometry" />
        </mxCell>
        <mxCell id="dVSpkT2BSdJXHW_wpIsH-37" value="平台侧&lt;br&gt;通用检查" style="rhombus;whiteSpace=wrap;html=1;strokeColor=#000000;fillColor=none;" parent="dVSpkT2BSdJXHW_wpIsH-1" vertex="1">
          <mxGeometry x="520" y="416" width="80" height="80" as="geometry" />
        </mxCell>
        <mxCell id="dVSpkT2BSdJXHW_wpIsH-61" style="edgeStyle=orthogonalEdgeStyle;rounded=0;orthogonalLoop=1;jettySize=auto;html=1;strokeColor=#000000;fillColor=#FFF2CC;" parent="dVSpkT2BSdJXHW_wpIsH-1" source="dVSpkT2BSdJXHW_wpIsH-38" target="dVSpkT2BSdJXHW_wpIsH-40" edge="1">
          <mxGeometry relative="1" as="geometry" />
        </mxCell>
        <mxCell id="dVSpkT2BSdJXHW_wpIsH-38" value="业务&lt;br&gt;可选检查" style="rhombus;whiteSpace=wrap;html=1;strokeColor=#000000;fillColor=none;" parent="dVSpkT2BSdJXHW_wpIsH-1" vertex="1">
          <mxGeometry x="640" y="416" width="80" height="80" as="geometry" />
        </mxCell>
        <mxCell id="dVSpkT2BSdJXHW_wpIsH-65" style="edgeStyle=orthogonalEdgeStyle;rounded=0;orthogonalLoop=1;jettySize=auto;html=1;entryX=0.5;entryY=0;entryDx=0;entryDy=0;strokeColor=#000000;fillColor=#FFF2CC;" parent="dVSpkT2BSdJXHW_wpIsH-1" source="dVSpkT2BSdJXHW_wpIsH-40" target="dVSpkT2BSdJXHW_wpIsH-63" edge="1">
          <mxGeometry relative="1" as="geometry" />
        </mxCell>
        <mxCell id="dVSpkT2BSdJXHW_wpIsH-69" style="edgeStyle=orthogonalEdgeStyle;rounded=0;orthogonalLoop=1;jettySize=auto;html=1;entryX=0.5;entryY=0;entryDx=0;entryDy=0;strokeColor=#000000;fillColor=#FFF2CC;" parent="dVSpkT2BSdJXHW_wpIsH-1" source="dVSpkT2BSdJXHW_wpIsH-40" target="dVSpkT2BSdJXHW_wpIsH-67" edge="1">
          <mxGeometry relative="1" as="geometry" />
        </mxCell>
        <mxCell id="dVSpkT2BSdJXHW_wpIsH-82" style="edgeStyle=orthogonalEdgeStyle;rounded=0;orthogonalLoop=1;jettySize=auto;html=1;entryX=0;entryY=0.5;entryDx=0;entryDy=0;strokeColor=#000000;fillColor=#FFF2CC;" parent="dVSpkT2BSdJXHW_wpIsH-1" source="dVSpkT2BSdJXHW_wpIsH-40" target="dVSpkT2BSdJXHW_wpIsH-52" edge="1">
          <mxGeometry relative="1" as="geometry" />
        </mxCell>
        <mxCell id="dVSpkT2BSdJXHW_wpIsH-40" value="写入存储" style="rounded=0;whiteSpace=wrap;html=1;strokeColor=#000000;fillColor=none;" parent="dVSpkT2BSdJXHW_wpIsH-1" vertex="1">
          <mxGeometry x="760" y="436" width="80" height="40" as="geometry" />
        </mxCell>
        <mxCell id="dVSpkT2BSdJXHW_wpIsH-41" value="item_db" style="shape=cylinder3;whiteSpace=wrap;html=1;boundedLbl=1;backgroundOutline=1;size=15;strokeColor=#000000;fillColor=none;" parent="dVSpkT2BSdJXHW_wpIsH-1" vertex="1">
          <mxGeometry x="740" y="528.5" width="50" height="60" as="geometry" />
        </mxCell>
        <mxCell id="dVSpkT2BSdJXHW_wpIsH-43" value="group_id" style="shape=cylinder3;whiteSpace=wrap;html=1;boundedLbl=1;backgroundOutline=1;size=15;strokeColor=#000000;fillColor=none;" parent="dVSpkT2BSdJXHW_wpIsH-1" vertex="1">
          <mxGeometry x="740" y="598.5" width="50" height="60" as="geometry" />
        </mxCell>
        <mxCell id="dVSpkT2BSdJXHW_wpIsH-44" value="content" style="shape=cylinder3;whiteSpace=wrap;html=1;boundedLbl=1;backgroundOutline=1;size=15;strokeColor=#000000;fillColor=none;" parent="dVSpkT2BSdJXHW_wpIsH-1" vertex="1">
          <mxGeometry x="740" y="668.5" width="50" height="60" as="geometry" />
        </mxCell>
        <mxCell id="dVSpkT2BSdJXHW_wpIsH-45" value="history" style="shape=cylinder3;whiteSpace=wrap;html=1;boundedLbl=1;backgroundOutline=1;size=15;strokeColor=#000000;fillColor=none;" parent="dVSpkT2BSdJXHW_wpIsH-1" vertex="1">
          <mxGeometry x="810" y="528.5" width="50" height="60" as="geometry" />
        </mxCell>
        <mxCell id="dVSpkT2BSdJXHW_wpIsH-205" style="edgeStyle=orthogonalEdgeStyle;rounded=0;orthogonalLoop=1;jettySize=auto;html=1;entryX=0;entryY=0.5;entryDx=0;entryDy=0;strokeColor=#000000;fillColor=#FFF2CC;" parent="dVSpkT2BSdJXHW_wpIsH-1" source="dVSpkT2BSdJXHW_wpIsH-46" target="dVSpkT2BSdJXHW_wpIsH-195" edge="1">
          <mxGeometry relative="1" as="geometry" />
        </mxCell>
        <mxCell id="dVSpkT2BSdJXHW_wpIsH-46" value="可选转码" style="rhombus;whiteSpace=wrap;html=1;strokeColor=#000000;fillColor=none;" parent="dVSpkT2BSdJXHW_wpIsH-1" vertex="1">
          <mxGeometry x="1240" y="243.5" width="80" height="80" as="geometry" />
        </mxCell>
        <mxCell id="dVSpkT2BSdJXHW_wpIsH-206" style="edgeStyle=orthogonalEdgeStyle;rounded=0;orthogonalLoop=1;jettySize=auto;html=1;entryX=0;entryY=0.5;entryDx=0;entryDy=0;strokeColor=#000000;fillColor=#FFF2CC;" parent="dVSpkT2BSdJXHW_wpIsH-1" source="dVSpkT2BSdJXHW_wpIsH-48" target="dVSpkT2BSdJXHW_wpIsH-196" edge="1">
          <mxGeometry relative="1" as="geometry" />
        </mxCell>
        <mxCell id="dVSpkT2BSdJXHW_wpIsH-48" value="可选拉链" style="rhombus;whiteSpace=wrap;html=1;strokeColor=#000000;fillColor=none;" parent="dVSpkT2BSdJXHW_wpIsH-1" vertex="1">
          <mxGeometry x="1240" y="363.5" width="80" height="80" as="geometry" />
        </mxCell>
        <mxCell id="dVSpkT2BSdJXHW_wpIsH-207" style="edgeStyle=orthogonalEdgeStyle;rounded=0;orthogonalLoop=1;jettySize=auto;html=1;entryX=0;entryY=0.5;entryDx=0;entryDy=0;strokeColor=#000000;fillColor=#FFF2CC;" parent="dVSpkT2BSdJXHW_wpIsH-1" source="dVSpkT2BSdJXHW_wpIsH-49" target="dVSpkT2BSdJXHW_wpIsH-197" edge="1">
          <mxGeometry relative="1" as="geometry" />
        </mxCell>
        <mxCell id="dVSpkT2BSdJXHW_wpIsH-49" value="可选送审" style="rhombus;whiteSpace=wrap;html=1;strokeColor=#000000;fillColor=none;" parent="dVSpkT2BSdJXHW_wpIsH-1" vertex="1">
          <mxGeometry x="1240" y="483.5" width="80" height="80" as="geometry" />
        </mxCell>
        <mxCell id="dVSpkT2BSdJXHW_wpIsH-210" style="edgeStyle=orthogonalEdgeStyle;rounded=0;orthogonalLoop=1;jettySize=auto;html=1;strokeColor=#000000;fillColor=#FFF2CC;" parent="dVSpkT2BSdJXHW_wpIsH-1" source="dVSpkT2BSdJXHW_wpIsH-51" target="dVSpkT2BSdJXHW_wpIsH-199" edge="1">
          <mxGeometry relative="1" as="geometry" />
        </mxCell>
        <mxCell id="dVSpkT2BSdJXHW_wpIsH-51" value="可选定时" style="rhombus;whiteSpace=wrap;html=1;strokeColor=#000000;fillColor=none;" parent="dVSpkT2BSdJXHW_wpIsH-1" vertex="1">
          <mxGeometry x="1240" y="676.25" width="80" height="79.5" as="geometry" />
        </mxCell>
        <mxCell id="dVSpkT2BSdJXHW_wpIsH-83" style="edgeStyle=orthogonalEdgeStyle;rounded=0;orthogonalLoop=1;jettySize=auto;html=1;entryX=0;entryY=0.5;entryDx=0;entryDy=0;strokeColor=#000000;fillColor=#FFF2CC;" parent="dVSpkT2BSdJXHW_wpIsH-1" source="dVSpkT2BSdJXHW_wpIsH-52" target="dVSpkT2BSdJXHW_wpIsH-53" edge="1">
          <mxGeometry relative="1" as="geometry" />
        </mxCell>
        <mxCell id="dVSpkT2BSdJXHW_wpIsH-52" value="清缓存" style="rounded=0;whiteSpace=wrap;html=1;strokeColor=#000000;fillColor=none;" parent="dVSpkT2BSdJXHW_wpIsH-1" vertex="1">
          <mxGeometry x="880" y="436" width="80" height="40" as="geometry" />
        </mxCell>
        <mxCell id="dVSpkT2BSdJXHW_wpIsH-84" style="edgeStyle=orthogonalEdgeStyle;rounded=0;orthogonalLoop=1;jettySize=auto;html=1;entryX=0;entryY=0.5;entryDx=0;entryDy=0;strokeColor=#000000;fillColor=#FFF2CC;" parent="dVSpkT2BSdJXHW_wpIsH-1" source="dVSpkT2BSdJXHW_wpIsH-53" target="dVSpkT2BSdJXHW_wpIsH-54" edge="1">
          <mxGeometry relative="1" as="geometry" />
        </mxCell>
        <mxCell id="dVSpkT2BSdJXHW_wpIsH-123" style="edgeStyle=orthogonalEdgeStyle;rounded=0;orthogonalLoop=1;jettySize=auto;html=1;strokeColor=#000000;fillColor=#FFF2CC;" parent="dVSpkT2BSdJXHW_wpIsH-1" source="dVSpkT2BSdJXHW_wpIsH-53" target="dVSpkT2BSdJXHW_wpIsH-118" edge="1">
          <mxGeometry relative="1" as="geometry" />
        </mxCell>
        <mxCell id="dVSpkT2BSdJXHW_wpIsH-53" value="发送变更事件" style="rounded=0;whiteSpace=wrap;html=1;strokeColor=#000000;fillColor=none;" parent="dVSpkT2BSdJXHW_wpIsH-1" vertex="1">
          <mxGeometry x="1000" y="436" width="80" height="40" as="geometry" />
        </mxCell>
        <mxCell id="dVSpkT2BSdJXHW_wpIsH-85" style="edgeStyle=orthogonalEdgeStyle;rounded=0;orthogonalLoop=1;jettySize=auto;html=1;entryX=0;entryY=0.5;entryDx=0;entryDy=0;strokeColor=#000000;fillColor=#FFF2CC;" parent="dVSpkT2BSdJXHW_wpIsH-1" source="dVSpkT2BSdJXHW_wpIsH-54" target="dVSpkT2BSdJXHW_wpIsH-46" edge="1">
          <mxGeometry relative="1" as="geometry" />
        </mxCell>
        <mxCell id="dVSpkT2BSdJXHW_wpIsH-86" style="edgeStyle=orthogonalEdgeStyle;rounded=0;orthogonalLoop=1;jettySize=auto;html=1;entryX=0;entryY=0.5;entryDx=0;entryDy=0;strokeColor=#000000;fillColor=#FFF2CC;" parent="dVSpkT2BSdJXHW_wpIsH-1" source="dVSpkT2BSdJXHW_wpIsH-54" target="dVSpkT2BSdJXHW_wpIsH-48" edge="1">
          <mxGeometry relative="1" as="geometry" />
        </mxCell>
        <mxCell id="dVSpkT2BSdJXHW_wpIsH-87" style="edgeStyle=orthogonalEdgeStyle;rounded=0;orthogonalLoop=1;jettySize=auto;html=1;entryX=0;entryY=0.5;entryDx=0;entryDy=0;strokeColor=#000000;fillColor=#FFF2CC;" parent="dVSpkT2BSdJXHW_wpIsH-1" source="dVSpkT2BSdJXHW_wpIsH-54" target="dVSpkT2BSdJXHW_wpIsH-49" edge="1">
          <mxGeometry relative="1" as="geometry" />
        </mxCell>
        <mxCell id="dVSpkT2BSdJXHW_wpIsH-88" style="edgeStyle=orthogonalEdgeStyle;rounded=0;orthogonalLoop=1;jettySize=auto;html=1;entryX=0;entryY=0.5;entryDx=0;entryDy=0;strokeColor=#000000;fillColor=#FFF2CC;" parent="dVSpkT2BSdJXHW_wpIsH-1" source="dVSpkT2BSdJXHW_wpIsH-54" target="dVSpkT2BSdJXHW_wpIsH-51" edge="1">
          <mxGeometry relative="1" as="geometry" />
        </mxCell>
        <mxCell id="dVSpkT2BSdJXHW_wpIsH-124" style="edgeStyle=orthogonalEdgeStyle;rounded=0;orthogonalLoop=1;jettySize=auto;html=1;entryX=0.5;entryY=0.042;entryDx=0;entryDy=0;entryPerimeter=0;strokeColor=#000000;fillColor=#FFF2CC;" parent="dVSpkT2BSdJXHW_wpIsH-1" source="dVSpkT2BSdJXHW_wpIsH-54" target="dVSpkT2BSdJXHW_wpIsH-119" edge="1">
          <mxGeometry relative="1" as="geometry" />
        </mxCell>
        <mxCell id="dVSpkT2BSdJXHW_wpIsH-54" value="发送审计消息" style="rounded=0;whiteSpace=wrap;html=1;strokeColor=#000000;fillColor=none;" parent="dVSpkT2BSdJXHW_wpIsH-1" vertex="1">
          <mxGeometry x="1120" y="436" width="80" height="40" as="geometry" />
        </mxCell>
        <mxCell id="dVSpkT2BSdJXHW_wpIsH-64" value="在线库" style="text;html=1;align=center;verticalAlign=middle;resizable=0;points=[];autosize=1;" parent="dVSpkT2BSdJXHW_wpIsH-1" vertex="1">
          <mxGeometry x="740" y="728.5" width="50" height="20" as="geometry" />
        </mxCell>
        <mxCell id="dVSpkT2BSdJXHW_wpIsH-68" value="历史库" style="text;html=1;align=center;verticalAlign=middle;resizable=0;points=[];autosize=1;" parent="dVSpkT2BSdJXHW_wpIsH-1" vertex="1">
          <mxGeometry x="810" y="588.5" width="50" height="20" as="geometry" />
        </mxCell>
        <mxCell id="dVSpkT2BSdJXHW_wpIsH-93" value="业务方" style="text;html=1;align=center;verticalAlign=middle;resizable=0;points=[];autosize=1;" parent="dVSpkT2BSdJXHW_wpIsH-1" vertex="1">
          <mxGeometry x="110" y="273.5" width="50" height="20" as="geometry" />
        </mxCell>
        <mxCell id="dVSpkT2BSdJXHW_wpIsH-94" value="作者发文" style="text;html=1;align=center;verticalAlign=middle;resizable=0;points=[];autosize=1;" parent="dVSpkT2BSdJXHW_wpIsH-1" vertex="1">
          <mxGeometry x="100" y="435.5" width="60" height="20" as="geometry" />
        </mxCell>
        <mxCell id="dVSpkT2BSdJXHW_wpIsH-97" style="edgeStyle=orthogonalEdgeStyle;rounded=0;orthogonalLoop=1;jettySize=auto;html=1;entryX=0;entryY=0.5;entryDx=0;entryDy=0;strokeColor=#000000;fillColor=#FFF2CC;" parent="dVSpkT2BSdJXHW_wpIsH-1" source="dVSpkT2BSdJXHW_wpIsH-95" target="dVSpkT2BSdJXHW_wpIsH-96" edge="1">
          <mxGeometry relative="1" as="geometry" />
        </mxCell>
        <mxCell id="dVSpkT2BSdJXHW_wpIsH-95" value="Actor" style="shape=umlActor;verticalLabelPosition=bottom;verticalAlign=top;html=1;outlineConnect=0;strokeColor=#000000;fillColor=none;" parent="dVSpkT2BSdJXHW_wpIsH-1" vertex="1">
          <mxGeometry x="80" y="1067" width="30" height="60" as="geometry" />
        </mxCell>
        <mxCell id="dVSpkT2BSdJXHW_wpIsH-99" style="edgeStyle=orthogonalEdgeStyle;rounded=0;orthogonalLoop=1;jettySize=auto;html=1;entryX=0;entryY=0.5;entryDx=0;entryDy=0;strokeColor=#000000;fillColor=#FFF2CC;" parent="dVSpkT2BSdJXHW_wpIsH-1" source="dVSpkT2BSdJXHW_wpIsH-96" target="dVSpkT2BSdJXHW_wpIsH-98" edge="1">
          <mxGeometry relative="1" as="geometry" />
        </mxCell>
        <mxCell id="dVSpkT2BSdJXHW_wpIsH-96" value="feed/频道..." style="rounded=0;whiteSpace=wrap;html=1;strokeColor=#000000;fillColor=none;" parent="dVSpkT2BSdJXHW_wpIsH-1" vertex="1">
          <mxGeometry x="160" y="1077" width="80" height="40" as="geometry" />
        </mxCell>
        <mxCell id="dVSpkT2BSdJXHW_wpIsH-143" style="edgeStyle=orthogonalEdgeStyle;rounded=0;orthogonalLoop=1;jettySize=auto;html=1;entryX=0;entryY=0.5;entryDx=0;entryDy=0;strokeColor=#000000;fillColor=#FFF2CC;" parent="dVSpkT2BSdJXHW_wpIsH-1" source="dVSpkT2BSdJXHW_wpIsH-98" target="dVSpkT2BSdJXHW_wpIsH-142" edge="1">
          <mxGeometry relative="1" as="geometry" />
        </mxCell>
        <mxCell id="dVSpkT2BSdJXHW_wpIsH-248" style="edgeStyle=orthogonalEdgeStyle;rounded=0;orthogonalLoop=1;jettySize=auto;html=1;entryX=0.75;entryY=1;entryDx=0;entryDy=0;strokeColor=#000000;fillColor=#FFF2CC;exitX=0.5;exitY=0;exitDx=0;exitDy=0;" parent="dVSpkT2BSdJXHW_wpIsH-1" source="dVSpkT2BSdJXHW_wpIsH-98" target="dVSpkT2BSdJXHW_wpIsH-232" edge="1">
          <mxGeometry relative="1" as="geometry">
            <Array as="points">
              <mxPoint x="320" y="1016" />
              <mxPoint x="560" y="1016" />
            </Array>
          </mxGeometry>
        </mxCell>
        <mxCell id="dVSpkT2BSdJXHW_wpIsH-98" value="stream" style="rounded=0;whiteSpace=wrap;html=1;strokeColor=#000000;fillColor=none;" parent="dVSpkT2BSdJXHW_wpIsH-1" vertex="1">
          <mxGeometry x="280" y="1077" width="80" height="40" as="geometry" />
        </mxCell>
        <mxCell id="dVSpkT2BSdJXHW_wpIsH-115" value="tbase" style="shape=cylinder3;whiteSpace=wrap;html=1;boundedLbl=1;backgroundOutline=1;size=15;strokeColor=#000000;fillColor=none;" parent="dVSpkT2BSdJXHW_wpIsH-1" vertex="1">
          <mxGeometry x="985" y="916" width="110" height="70" as="geometry" />
        </mxCell>
        <mxCell id="dVSpkT2BSdJXHW_wpIsH-127" style="edgeStyle=orthogonalEdgeStyle;rounded=0;orthogonalLoop=1;jettySize=auto;html=1;entryX=0.5;entryY=0;entryDx=0;entryDy=0;entryPerimeter=0;strokeColor=#000000;fillColor=#FFF2CC;" parent="dVSpkT2BSdJXHW_wpIsH-1" source="dVSpkT2BSdJXHW_wpIsH-117" target="dVSpkT2BSdJXHW_wpIsH-115" edge="1">
          <mxGeometry relative="1" as="geometry" />
        </mxCell>
        <mxCell id="dVSpkT2BSdJXHW_wpIsH-158" style="edgeStyle=orthogonalEdgeStyle;rounded=0;orthogonalLoop=1;jettySize=auto;html=1;strokeColor=#000000;fillColor=#FFF2CC;" parent="dVSpkT2BSdJXHW_wpIsH-1" source="dVSpkT2BSdJXHW_wpIsH-117" edge="1">
          <mxGeometry relative="1" as="geometry">
            <mxPoint x="810" y="695.5" as="targetPoint" />
          </mxGeometry>
        </mxCell>
        <mxCell id="dVSpkT2BSdJXHW_wpIsH-117" value="data_moving" style="whiteSpace=wrap;html=1;strokeColor=#000000;fillColor=none;" parent="dVSpkT2BSdJXHW_wpIsH-1" vertex="1">
          <mxGeometry x="1000" y="675.5" width="80" height="40" as="geometry" />
        </mxCell>
        <mxCell id="dVSpkT2BSdJXHW_wpIsH-118" value="commit&lt;br&gt;event" style="ellipse;shape=cloud;whiteSpace=wrap;html=1;strokeColor=#000000;fillColor=none;" parent="dVSpkT2BSdJXHW_wpIsH-1" vertex="1">
          <mxGeometry x="995" y="514" width="90" height="72" as="geometry" />
        </mxCell>
        <mxCell id="dVSpkT2BSdJXHW_wpIsH-119" value="bubble&lt;br&gt;event" style="ellipse;shape=cloud;whiteSpace=wrap;html=1;strokeColor=#000000;fillColor=none;" parent="dVSpkT2BSdJXHW_wpIsH-1" vertex="1">
          <mxGeometry x="1115" y="510" width="90" height="72" as="geometry" />
        </mxCell>
        <mxCell id="dVSpkT2BSdJXHW_wpIsH-145" style="edgeStyle=orthogonalEdgeStyle;rounded=0;orthogonalLoop=1;jettySize=auto;html=1;entryX=0;entryY=0.5;entryDx=0;entryDy=0;strokeColor=#000000;fillColor=#FFF2CC;" parent="dVSpkT2BSdJXHW_wpIsH-1" source="dVSpkT2BSdJXHW_wpIsH-142" target="dVSpkT2BSdJXHW_wpIsH-144" edge="1">
          <mxGeometry relative="1" as="geometry" />
        </mxCell>
        <mxCell id="dVSpkT2BSdJXHW_wpIsH-142" value="sati" style="rounded=0;whiteSpace=wrap;html=1;strokeColor=#000000;fillColor=none;" parent="dVSpkT2BSdJXHW_wpIsH-1" vertex="1">
          <mxGeometry x="400" y="1077" width="80" height="40" as="geometry" />
        </mxCell>
        <mxCell id="dVSpkT2BSdJXHW_wpIsH-149" style="edgeStyle=orthogonalEdgeStyle;rounded=0;orthogonalLoop=1;jettySize=auto;html=1;entryX=0;entryY=0.5;entryDx=0;entryDy=0;strokeColor=#000000;fillColor=#FFF2CC;" parent="dVSpkT2BSdJXHW_wpIsH-1" source="dVSpkT2BSdJXHW_wpIsH-144" target="dVSpkT2BSdJXHW_wpIsH-148" edge="1">
          <mxGeometry relative="1" as="geometry" />
        </mxCell>
        <mxCell id="dVSpkT2BSdJXHW_wpIsH-168" style="edgeStyle=orthogonalEdgeStyle;rounded=0;orthogonalLoop=1;jettySize=auto;html=1;entryX=0.5;entryY=0;entryDx=0;entryDy=0;strokeColor=#000000;fillColor=#FFF2CC;" parent="dVSpkT2BSdJXHW_wpIsH-1" source="dVSpkT2BSdJXHW_wpIsH-144" target="dVSpkT2BSdJXHW_wpIsH-150" edge="1">
          <mxGeometry relative="1" as="geometry" />
        </mxCell>
        <mxCell id="dVSpkT2BSdJXHW_wpIsH-169" style="edgeStyle=orthogonalEdgeStyle;rounded=0;orthogonalLoop=1;jettySize=auto;html=1;entryX=0.5;entryY=0;entryDx=0;entryDy=0;strokeColor=#000000;fillColor=#FFF2CC;" parent="dVSpkT2BSdJXHW_wpIsH-1" source="dVSpkT2BSdJXHW_wpIsH-144" target="dVSpkT2BSdJXHW_wpIsH-146" edge="1">
          <mxGeometry relative="1" as="geometry" />
        </mxCell>
        <mxCell id="dVSpkT2BSdJXHW_wpIsH-170" style="edgeStyle=orthogonalEdgeStyle;rounded=0;orthogonalLoop=1;jettySize=auto;html=1;strokeColor=#000000;fillColor=#FFF2CC;" parent="dVSpkT2BSdJXHW_wpIsH-1" source="dVSpkT2BSdJXHW_wpIsH-144" target="dVSpkT2BSdJXHW_wpIsH-147" edge="1">
          <mxGeometry relative="1" as="geometry" />
        </mxCell>
        <mxCell id="dVSpkT2BSdJXHW_wpIsH-144" value="sort" style="rounded=0;whiteSpace=wrap;html=1;strokeColor=#000000;fillColor=none;" parent="dVSpkT2BSdJXHW_wpIsH-1" vertex="1">
          <mxGeometry x="520" y="1077" width="320" height="40" as="geometry" />
        </mxCell>
        <mxCell id="dVSpkT2BSdJXHW_wpIsH-146" value="消重" style="rounded=0;whiteSpace=wrap;html=1;strokeColor=#000000;fillColor=none;" parent="dVSpkT2BSdJXHW_wpIsH-1" vertex="1">
          <mxGeometry x="640" y="1157" width="80" height="40" as="geometry" />
        </mxCell>
        <mxCell id="dVSpkT2BSdJXHW_wpIsH-147" value="召回" style="rounded=0;whiteSpace=wrap;html=1;strokeColor=#000000;fillColor=none;" parent="dVSpkT2BSdJXHW_wpIsH-1" vertex="1">
          <mxGeometry x="760" y="1157" width="80" height="40" as="geometry" />
        </mxCell>
        <mxCell id="dVSpkT2BSdJXHW_wpIsH-148" value="正排" style="rounded=0;whiteSpace=wrap;html=1;strokeColor=#000000;fillColor=none;" parent="dVSpkT2BSdJXHW_wpIsH-1" vertex="1">
          <mxGeometry x="880" y="1077" width="80" height="40" as="geometry" />
        </mxCell>
        <mxCell id="dVSpkT2BSdJXHW_wpIsH-150" value="predict&lt;br&gt;精排" style="rounded=0;whiteSpace=wrap;html=1;strokeColor=#000000;fillColor=none;" parent="dVSpkT2BSdJXHW_wpIsH-1" vertex="1">
          <mxGeometry x="520" y="1157" width="80" height="40" as="geometry" />
        </mxCell>
        <mxCell id="dVSpkT2BSdJXHW_wpIsH-155" value="counter" style="ellipse;shape=cloud;whiteSpace=wrap;html=1;strokeColor=#000000;fillColor=none;" parent="dVSpkT2BSdJXHW_wpIsH-1" vertex="1">
          <mxGeometry x="920" y="1157" width="80" height="70" as="geometry" />
        </mxCell>
        <mxCell id="dVSpkT2BSdJXHW_wpIsH-157" style="edgeStyle=orthogonalEdgeStyle;rounded=0;orthogonalLoop=1;jettySize=auto;html=1;entryX=1;entryY=0.5;entryDx=0;entryDy=0;strokeColor=#000000;fillColor=#FFF2CC;" parent="dVSpkT2BSdJXHW_wpIsH-1" source="dVSpkT2BSdJXHW_wpIsH-156" target="dVSpkT2BSdJXHW_wpIsH-148" edge="1">
          <mxGeometry relative="1" as="geometry" />
        </mxCell>
        <mxCell id="dVSpkT2BSdJXHW_wpIsH-156" value="vcp/bole" style="rounded=0;whiteSpace=wrap;html=1;strokeColor=#000000;fillColor=none;" parent="dVSpkT2BSdJXHW_wpIsH-1" vertex="1">
          <mxGeometry x="1000" y="1077" width="80" height="40" as="geometry" />
        </mxCell>
        <mxCell id="dVSpkT2BSdJXHW_wpIsH-159" value="" style="endArrow=none;dashed=1;html=1;dashPattern=1 3;strokeWidth=2;fillColor=#FFF2CC;entryX=0.55;entryY=0.95;entryDx=0;entryDy=0;entryPerimeter=0;" parent="dVSpkT2BSdJXHW_wpIsH-1" source="dVSpkT2BSdJXHW_wpIsH-117" target="dVSpkT2BSdJXHW_wpIsH-118" edge="1">
          <mxGeometry width="50" height="50" relative="1" as="geometry">
            <mxPoint x="940" y="656" as="sourcePoint" />
            <mxPoint x="990" y="606" as="targetPoint" />
          </mxGeometry>
        </mxCell>
        <mxCell id="dVSpkT2BSdJXHW_wpIsH-161" value="" style="endArrow=classic;html=1;strokeColor=#000000;fillColor=#FFF2CC;exitX=0.5;exitY=1;exitDx=0;exitDy=0;exitPerimeter=0;" parent="dVSpkT2BSdJXHW_wpIsH-1" source="dVSpkT2BSdJXHW_wpIsH-115" target="dVSpkT2BSdJXHW_wpIsH-156" edge="1">
          <mxGeometry width="50" height="50" relative="1" as="geometry">
            <mxPoint x="910" y="856" as="sourcePoint" />
            <mxPoint x="960" y="806" as="targetPoint" />
          </mxGeometry>
        </mxCell>
        <mxCell id="dVSpkT2BSdJXHW_wpIsH-162" value="profile" style="ellipse;shape=cloud;whiteSpace=wrap;html=1;strokeColor=#000000;fillColor=none;" parent="dVSpkT2BSdJXHW_wpIsH-1" vertex="1">
          <mxGeometry x="1010" y="1157" width="80" height="70" as="geometry" />
        </mxCell>
        <mxCell id="dVSpkT2BSdJXHW_wpIsH-163" value="..." style="ellipse;shape=cloud;whiteSpace=wrap;html=1;strokeColor=#000000;fillColor=none;" parent="dVSpkT2BSdJXHW_wpIsH-1" vertex="1">
          <mxGeometry x="1100" y="1157" width="80" height="70" as="geometry" />
        </mxCell>
        <mxCell id="dVSpkT2BSdJXHW_wpIsH-164" value="" style="endArrow=none;dashed=1;html=1;dashPattern=1 3;strokeWidth=2;fillColor=#FFF2CC;entryX=0.5;entryY=1;entryDx=0;entryDy=0;exitX=0.625;exitY=0.2;exitDx=0;exitDy=0;exitPerimeter=0;" parent="dVSpkT2BSdJXHW_wpIsH-1" source="dVSpkT2BSdJXHW_wpIsH-155" target="dVSpkT2BSdJXHW_wpIsH-156" edge="1">
          <mxGeometry width="50" height="50" relative="1" as="geometry">
            <mxPoint x="850" y="1227" as="sourcePoint" />
            <mxPoint x="900" y="1177" as="targetPoint" />
          </mxGeometry>
        </mxCell>
        <mxCell id="dVSpkT2BSdJXHW_wpIsH-166" value="" style="endArrow=none;dashed=1;html=1;dashPattern=1 3;strokeWidth=2;fillColor=#FFF2CC;entryX=0.5;entryY=1;entryDx=0;entryDy=0;exitX=0.4;exitY=0.1;exitDx=0;exitDy=0;exitPerimeter=0;" parent="dVSpkT2BSdJXHW_wpIsH-1" source="dVSpkT2BSdJXHW_wpIsH-162" target="dVSpkT2BSdJXHW_wpIsH-156" edge="1">
          <mxGeometry width="50" height="50" relative="1" as="geometry">
            <mxPoint x="990" y="1181" as="sourcePoint" />
            <mxPoint x="1050" y="1127" as="targetPoint" />
          </mxGeometry>
        </mxCell>
        <mxCell id="dVSpkT2BSdJXHW_wpIsH-167" value="" style="endArrow=none;dashed=1;html=1;dashPattern=1 3;strokeWidth=2;fillColor=#FFF2CC;entryX=0.5;entryY=1;entryDx=0;entryDy=0;" parent="dVSpkT2BSdJXHW_wpIsH-1" source="dVSpkT2BSdJXHW_wpIsH-163" target="dVSpkT2BSdJXHW_wpIsH-156" edge="1">
          <mxGeometry width="50" height="50" relative="1" as="geometry">
            <mxPoint x="990" y="1181" as="sourcePoint" />
            <mxPoint x="1050" y="1127" as="targetPoint" />
          </mxGeometry>
        </mxCell>
        <mxCell id="dVSpkT2BSdJXHW_wpIsH-172" value="redis" style="shape=cylinder3;whiteSpace=wrap;html=1;boundedLbl=1;backgroundOutline=1;size=15;strokeColor=#000000;fillColor=none;" parent="dVSpkT2BSdJXHW_wpIsH-1" vertex="1">
          <mxGeometry x="635" y="791" width="50" height="70" as="geometry" />
        </mxCell>
        <mxCell id="dVSpkT2BSdJXHW_wpIsH-178" value="counter" style="ellipse;shape=cloud;whiteSpace=wrap;html=1;strokeColor=#000000;fillColor=none;" parent="dVSpkT2BSdJXHW_wpIsH-1" vertex="1">
          <mxGeometry x="410" y="686" width="90" height="70" as="geometry" />
        </mxCell>
        <mxCell id="dVSpkT2BSdJXHW_wpIsH-180" value="comment" style="ellipse;shape=cloud;whiteSpace=wrap;html=1;strokeColor=#000000;fillColor=none;" parent="dVSpkT2BSdJXHW_wpIsH-1" vertex="1">
          <mxGeometry x="500" y="686" width="90" height="70" as="geometry" />
        </mxCell>
        <mxCell id="dVSpkT2BSdJXHW_wpIsH-181" value="" style="endArrow=none;dashed=1;html=1;dashPattern=1 3;strokeWidth=2;fillColor=#FFF2CC;entryX=0.55;entryY=0.95;entryDx=0;entryDy=0;entryPerimeter=0;exitX=0.5;exitY=0;exitDx=0;exitDy=0;" parent="dVSpkT2BSdJXHW_wpIsH-1" source="dVSpkT2BSdJXHW_wpIsH-232" target="dVSpkT2BSdJXHW_wpIsH-178" edge="1">
          <mxGeometry width="50" height="50" relative="1" as="geometry">
            <mxPoint x="540" y="806" as="sourcePoint" />
            <mxPoint x="360" y="766" as="targetPoint" />
          </mxGeometry>
        </mxCell>
        <mxCell id="dVSpkT2BSdJXHW_wpIsH-182" value="" style="endArrow=none;dashed=1;html=1;dashPattern=1 3;strokeWidth=2;fillColor=#FFF2CC;entryX=0.55;entryY=0.95;entryDx=0;entryDy=0;entryPerimeter=0;" parent="dVSpkT2BSdJXHW_wpIsH-1" source="dVSpkT2BSdJXHW_wpIsH-232" target="dVSpkT2BSdJXHW_wpIsH-180" edge="1">
          <mxGeometry width="50" height="50" relative="1" as="geometry">
            <mxPoint x="542.561433447099" y="806" as="sourcePoint" />
            <mxPoint x="370" y="806" as="targetPoint" />
          </mxGeometry>
        </mxCell>
        <mxCell id="dVSpkT2BSdJXHW_wpIsH-184" value="用户" style="text;html=1;align=center;verticalAlign=middle;resizable=0;points=[];autosize=1;" parent="dVSpkT2BSdJXHW_wpIsH-1" vertex="1">
          <mxGeometry x="112" y="1071" width="40" height="20" as="geometry" />
        </mxCell>
        <mxCell id="dVSpkT2BSdJXHW_wpIsH-191" style="edgeStyle=orthogonalEdgeStyle;rounded=0;orthogonalLoop=1;jettySize=auto;html=1;entryX=0;entryY=0.5;entryDx=0;entryDy=0;strokeColor=#000000;fillColor=#FFF2CC;" parent="dVSpkT2BSdJXHW_wpIsH-1" source="dVSpkT2BSdJXHW_wpIsH-185" target="dVSpkT2BSdJXHW_wpIsH-189" edge="1">
          <mxGeometry relative="1" as="geometry" />
        </mxCell>
        <mxCell id="dVSpkT2BSdJXHW_wpIsH-221" style="edgeStyle=orthogonalEdgeStyle;rounded=0;orthogonalLoop=1;jettySize=auto;html=1;exitX=1;exitY=0.25;exitDx=0;exitDy=0;strokeColor=#000000;fillColor=#FFF2CC;entryX=0.5;entryY=1;entryDx=0;entryDy=0;" parent="dVSpkT2BSdJXHW_wpIsH-1" source="dVSpkT2BSdJXHW_wpIsH-185" target="dVSpkT2BSdJXHW_wpIsH-218" edge="1">
          <mxGeometry relative="1" as="geometry">
            <mxPoint x="1720" y="316" as="targetPoint" />
            <Array as="points">
              <mxPoint x="1600" y="514" />
              <mxPoint x="1600" y="216" />
              <mxPoint x="1060" y="216" />
            </Array>
          </mxGeometry>
        </mxCell>
        <mxCell id="dVSpkT2BSdJXHW_wpIsH-229" style="edgeStyle=orthogonalEdgeStyle;rounded=0;orthogonalLoop=1;jettySize=auto;html=1;entryX=0.5;entryY=0;entryDx=0;entryDy=0;strokeColor=#000000;fillColor=#FFF2CC;exitX=0.5;exitY=1;exitDx=0;exitDy=0;" parent="dVSpkT2BSdJXHW_wpIsH-1" source="dVSpkT2BSdJXHW_wpIsH-185" target="dVSpkT2BSdJXHW_wpIsH-226" edge="1">
          <mxGeometry relative="1" as="geometry" />
        </mxCell>
        <mxCell id="dVSpkT2BSdJXHW_wpIsH-230" style="edgeStyle=orthogonalEdgeStyle;rounded=0;orthogonalLoop=1;jettySize=auto;html=1;strokeColor=#000000;fillColor=#FFF2CC;" parent="dVSpkT2BSdJXHW_wpIsH-1" source="dVSpkT2BSdJXHW_wpIsH-185" target="dVSpkT2BSdJXHW_wpIsH-227" edge="1">
          <mxGeometry relative="1" as="geometry" />
        </mxCell>
        <mxCell id="dVSpkT2BSdJXHW_wpIsH-231" style="edgeStyle=orthogonalEdgeStyle;rounded=0;orthogonalLoop=1;jettySize=auto;html=1;entryX=0.5;entryY=0;entryDx=0;entryDy=0;strokeColor=#000000;fillColor=#FFF2CC;exitX=0.5;exitY=1;exitDx=0;exitDy=0;" parent="dVSpkT2BSdJXHW_wpIsH-1" source="dVSpkT2BSdJXHW_wpIsH-185" target="dVSpkT2BSdJXHW_wpIsH-228" edge="1">
          <mxGeometry relative="1" as="geometry" />
        </mxCell>
        <mxCell id="dVSpkT2BSdJXHW_wpIsH-185" value="审核pipeline" style="rounded=0;whiteSpace=wrap;html=1;strokeColor=#000000;fillColor=none;" parent="dVSpkT2BSdJXHW_wpIsH-1" vertex="1">
          <mxGeometry x="1500" y="503.5" width="80" height="40" as="geometry" />
        </mxCell>
        <mxCell id="dVSpkT2BSdJXHW_wpIsH-187" value="特征pipeline" style="rounded=0;whiteSpace=wrap;html=1;strokeColor=#000000;fillColor=none;" parent="dVSpkT2BSdJXHW_wpIsH-1" vertex="1">
          <mxGeometry x="1500" y="439" width="80" height="40" as="geometry" />
        </mxCell>
        <mxCell id="dVSpkT2BSdJXHW_wpIsH-192" style="edgeStyle=orthogonalEdgeStyle;rounded=0;orthogonalLoop=1;jettySize=auto;html=1;entryX=0;entryY=0.5;entryDx=0;entryDy=0;strokeColor=#000000;fillColor=#FFF2CC;" parent="dVSpkT2BSdJXHW_wpIsH-1" source="dVSpkT2BSdJXHW_wpIsH-189" target="dVSpkT2BSdJXHW_wpIsH-190" edge="1">
          <mxGeometry relative="1" as="geometry" />
        </mxCell>
        <mxCell id="dVSpkT2BSdJXHW_wpIsH-189" value="tcs" style="rounded=0;whiteSpace=wrap;html=1;strokeColor=#000000;fillColor=none;" parent="dVSpkT2BSdJXHW_wpIsH-1" vertex="1">
          <mxGeometry x="1620" y="503.5" width="80" height="40" as="geometry" />
        </mxCell>
        <mxCell id="dVSpkT2BSdJXHW_wpIsH-238" style="edgeStyle=orthogonalEdgeStyle;rounded=0;orthogonalLoop=1;jettySize=auto;html=1;entryX=0.5;entryY=1;entryDx=0;entryDy=0;strokeColor=#000000;fillColor=#FFF2CC;exitX=0.5;exitY=0;exitDx=0;exitDy=0;" parent="dVSpkT2BSdJXHW_wpIsH-1" source="dVSpkT2BSdJXHW_wpIsH-190" target="dVSpkT2BSdJXHW_wpIsH-223" edge="1">
          <mxGeometry relative="1" as="geometry">
            <Array as="points">
              <mxPoint x="1780" y="386" />
              <mxPoint x="1780" y="386" />
            </Array>
          </mxGeometry>
        </mxCell>
        <mxCell id="dVSpkT2BSdJXHW_wpIsH-190" value="router" style="rounded=0;whiteSpace=wrap;html=1;strokeColor=#000000;fillColor=none;" parent="dVSpkT2BSdJXHW_wpIsH-1" vertex="1">
          <mxGeometry x="1740" y="503.5" width="80" height="40" as="geometry" />
        </mxCell>
        <mxCell id="dVSpkT2BSdJXHW_wpIsH-211" style="edgeStyle=orthogonalEdgeStyle;rounded=0;orthogonalLoop=1;jettySize=auto;html=1;strokeColor=#000000;fillColor=#FFF2CC;" parent="dVSpkT2BSdJXHW_wpIsH-1" source="dVSpkT2BSdJXHW_wpIsH-195" target="dVSpkT2BSdJXHW_wpIsH-202" edge="1">
          <mxGeometry relative="1" as="geometry" />
        </mxCell>
        <mxCell id="dVSpkT2BSdJXHW_wpIsH-195" value="&lt;span&gt;vcloud&lt;/span&gt;" style="rounded=1;whiteSpace=wrap;html=1;strokeColor=#000000;fillColor=none;" parent="dVSpkT2BSdJXHW_wpIsH-1" vertex="1">
          <mxGeometry x="1360" y="263.5" width="80" height="40" as="geometry" />
        </mxCell>
        <mxCell id="dVSpkT2BSdJXHW_wpIsH-196" value="&lt;span&gt;pop&lt;/span&gt;" style="rounded=1;whiteSpace=wrap;html=1;strokeColor=#000000;fillColor=none;" parent="dVSpkT2BSdJXHW_wpIsH-1" vertex="1">
          <mxGeometry x="1360" y="383.5" width="80" height="40" as="geometry" />
        </mxCell>
        <mxCell id="dVSpkT2BSdJXHW_wpIsH-200" style="edgeStyle=orthogonalEdgeStyle;rounded=0;orthogonalLoop=1;jettySize=auto;html=1;entryX=0;entryY=0.5;entryDx=0;entryDy=0;strokeColor=#000000;fillColor=#FFF2CC;" parent="dVSpkT2BSdJXHW_wpIsH-1" source="dVSpkT2BSdJXHW_wpIsH-197" target="dVSpkT2BSdJXHW_wpIsH-185" edge="1">
          <mxGeometry relative="1" as="geometry" />
        </mxCell>
        <mxCell id="dVSpkT2BSdJXHW_wpIsH-201" style="edgeStyle=orthogonalEdgeStyle;rounded=0;orthogonalLoop=1;jettySize=auto;html=1;entryX=0;entryY=0.5;entryDx=0;entryDy=0;strokeColor=#000000;fillColor=#FFF2CC;" parent="dVSpkT2BSdJXHW_wpIsH-1" source="dVSpkT2BSdJXHW_wpIsH-197" target="dVSpkT2BSdJXHW_wpIsH-187" edge="1">
          <mxGeometry relative="1" as="geometry" />
        </mxCell>
        <mxCell id="dVSpkT2BSdJXHW_wpIsH-197" value="&lt;span&gt;review_queue&lt;/span&gt;" style="rounded=1;whiteSpace=wrap;html=1;strokeColor=#000000;fillColor=none;" parent="dVSpkT2BSdJXHW_wpIsH-1" vertex="1">
          <mxGeometry x="1360" y="503.5" width="80" height="40" as="geometry" />
        </mxCell>
        <mxCell id="dVSpkT2BSdJXHW_wpIsH-199" value="redis" style="shape=cylinder3;whiteSpace=wrap;html=1;boundedLbl=1;backgroundOutline=1;size=15;strokeColor=#000000;fillColor=none;" parent="dVSpkT2BSdJXHW_wpIsH-1" vertex="1">
          <mxGeometry x="1360" y="675.5" width="80" height="81" as="geometry" />
        </mxCell>
        <mxCell id="dVSpkT2BSdJXHW_wpIsH-202" value="transcode&lt;br&gt;event" style="ellipse;shape=cloud;whiteSpace=wrap;html=1;strokeColor=#000000;fillColor=none;" parent="dVSpkT2BSdJXHW_wpIsH-1" vertex="1">
          <mxGeometry x="1470" y="248.5" width="90" height="70" as="geometry" />
        </mxCell>
        <mxCell id="dVSpkT2BSdJXHW_wpIsH-219" style="edgeStyle=orthogonalEdgeStyle;rounded=0;orthogonalLoop=1;jettySize=auto;html=1;entryX=1;entryY=0.5;entryDx=0;entryDy=0;strokeColor=#000000;fillColor=#FFF2CC;" parent="dVSpkT2BSdJXHW_wpIsH-1" source="dVSpkT2BSdJXHW_wpIsH-212" target="dVSpkT2BSdJXHW_wpIsH-218" edge="1">
          <mxGeometry relative="1" as="geometry" />
        </mxCell>
        <mxCell id="dVSpkT2BSdJXHW_wpIsH-212" value="transcode_callback" style="rounded=1;whiteSpace=wrap;html=1;strokeColor=#000000;fillColor=none;" parent="dVSpkT2BSdJXHW_wpIsH-1" vertex="1">
          <mxGeometry x="1460" y="116" width="120" height="40" as="geometry" />
        </mxCell>
        <mxCell id="dVSpkT2BSdJXHW_wpIsH-213" value="" style="endArrow=none;dashed=1;html=1;dashPattern=1 3;strokeWidth=2;fillColor=#FFF2CC;entryX=0.5;entryY=1;entryDx=0;entryDy=0;exitX=0.556;exitY=0.121;exitDx=0;exitDy=0;exitPerimeter=0;" parent="dVSpkT2BSdJXHW_wpIsH-1" source="dVSpkT2BSdJXHW_wpIsH-202" target="dVSpkT2BSdJXHW_wpIsH-212" edge="1">
          <mxGeometry width="50" height="50" relative="1" as="geometry">
            <mxPoint x="1370" y="236" as="sourcePoint" />
            <mxPoint x="1420" y="186" as="targetPoint" />
          </mxGeometry>
        </mxCell>
        <mxCell id="dVSpkT2BSdJXHW_wpIsH-215" style="edgeStyle=orthogonalEdgeStyle;rounded=0;orthogonalLoop=1;jettySize=auto;html=1;entryX=0.5;entryY=0;entryDx=0;entryDy=0;strokeColor=#000000;fillColor=#FFF2CC;" parent="dVSpkT2BSdJXHW_wpIsH-1" source="dVSpkT2BSdJXHW_wpIsH-214" target="dVSpkT2BSdJXHW_wpIsH-40" edge="1">
          <mxGeometry relative="1" as="geometry" />
        </mxCell>
        <mxCell id="dVSpkT2BSdJXHW_wpIsH-214" value="修改属性接口" style="rounded=0;whiteSpace=wrap;html=1;strokeColor=#000000;fillColor=none;" parent="dVSpkT2BSdJXHW_wpIsH-1" vertex="1">
          <mxGeometry x="760" y="316" width="80" height="40" as="geometry" />
        </mxCell>
        <mxCell id="dVSpkT2BSdJXHW_wpIsH-220" style="edgeStyle=orthogonalEdgeStyle;rounded=0;orthogonalLoop=1;jettySize=auto;html=1;strokeColor=#000000;fillColor=#FFF2CC;" parent="dVSpkT2BSdJXHW_wpIsH-1" source="dVSpkT2BSdJXHW_wpIsH-218" target="dVSpkT2BSdJXHW_wpIsH-214" edge="1">
          <mxGeometry relative="1" as="geometry" />
        </mxCell>
        <mxCell id="dVSpkT2BSdJXHW_wpIsH-218" value="pipeline_callback" style="rounded=1;whiteSpace=wrap;html=1;strokeColor=#000000;fillColor=none;" parent="dVSpkT2BSdJXHW_wpIsH-1" vertex="1">
          <mxGeometry x="1000" y="116" width="120" height="40" as="geometry" />
        </mxCell>
        <mxCell id="dVSpkT2BSdJXHW_wpIsH-225" style="edgeStyle=orthogonalEdgeStyle;rounded=0;orthogonalLoop=1;jettySize=auto;html=1;entryX=0.75;entryY=1;entryDx=0;entryDy=0;strokeColor=#000000;fillColor=#FFF2CC;exitX=0.5;exitY=0;exitDx=0;exitDy=0;" parent="dVSpkT2BSdJXHW_wpIsH-1" source="dVSpkT2BSdJXHW_wpIsH-223" target="dVSpkT2BSdJXHW_wpIsH-218" edge="1">
          <mxGeometry relative="1" as="geometry">
            <Array as="points">
              <mxPoint x="1780" y="206" />
              <mxPoint x="1090" y="206" />
            </Array>
          </mxGeometry>
        </mxCell>
        <mxCell id="dVSpkT2BSdJXHW_wpIsH-223" value="review_judge" style="rounded=1;whiteSpace=wrap;html=1;strokeColor=#000000;fillColor=none;" parent="dVSpkT2BSdJXHW_wpIsH-1" vertex="1">
          <mxGeometry x="1740" y="316" width="80" height="40" as="geometry" />
        </mxCell>
        <mxCell id="dVSpkT2BSdJXHW_wpIsH-226" value="author&lt;br&gt;callback" style="rounded=1;whiteSpace=wrap;html=1;strokeColor=#000000;fillColor=none;" parent="dVSpkT2BSdJXHW_wpIsH-1" vertex="1">
          <mxGeometry x="1400" y="596" width="80" height="40" as="geometry" />
        </mxCell>
        <mxCell id="dVSpkT2BSdJXHW_wpIsH-227" value="stats&lt;br&gt;callback" style="rounded=1;whiteSpace=wrap;html=1;strokeColor=#000000;fillColor=none;" parent="dVSpkT2BSdJXHW_wpIsH-1" vertex="1">
          <mxGeometry x="1500" y="596" width="80" height="40" as="geometry" />
        </mxCell>
        <mxCell id="dVSpkT2BSdJXHW_wpIsH-228" value="paid&lt;br&gt;callback" style="rounded=1;whiteSpace=wrap;html=1;strokeColor=#000000;fillColor=none;" parent="dVSpkT2BSdJXHW_wpIsH-1" vertex="1">
          <mxGeometry x="1600" y="596" width="80" height="40" as="geometry" />
        </mxCell>
        <mxCell id="dVSpkT2BSdJXHW_wpIsH-233" style="edgeStyle=orthogonalEdgeStyle;rounded=0;orthogonalLoop=1;jettySize=auto;html=1;entryX=0;entryY=0.5;entryDx=0;entryDy=0;entryPerimeter=0;strokeColor=#000000;fillColor=#FFF2CC;" parent="dVSpkT2BSdJXHW_wpIsH-1" source="dVSpkT2BSdJXHW_wpIsH-232" target="dVSpkT2BSdJXHW_wpIsH-172" edge="1">
          <mxGeometry relative="1" as="geometry" />
        </mxCell>
        <mxCell id="dVSpkT2BSdJXHW_wpIsH-234" style="edgeStyle=orthogonalEdgeStyle;rounded=0;orthogonalLoop=1;jettySize=auto;html=1;entryX=0;entryY=0.75;entryDx=0;entryDy=0;strokeColor=#000000;fillColor=#FFF2CC;exitX=1;exitY=0.5;exitDx=0;exitDy=0;" parent="dVSpkT2BSdJXHW_wpIsH-1" source="dVSpkT2BSdJXHW_wpIsH-232" target="dVSpkT2BSdJXHW_wpIsH-63" edge="1">
          <mxGeometry relative="1" as="geometry">
            <Array as="points">
              <mxPoint x="610" y="826" />
              <mxPoint x="610" y="691" />
            </Array>
          </mxGeometry>
        </mxCell>
        <mxCell id="dVSpkT2BSdJXHW_wpIsH-232" value="文章服务" style="rounded=1;whiteSpace=wrap;html=1;strokeColor=#000000;fillColor=none;" parent="dVSpkT2BSdJXHW_wpIsH-1" vertex="1">
          <mxGeometry x="500" y="806" width="80" height="40" as="geometry" />
        </mxCell>
        <mxCell id="dVSpkT2BSdJXHW_wpIsH-235" value="user.info" style="rounded=1;whiteSpace=wrap;html=1;strokeColor=#000000;fillColor=none;" parent="dVSpkT2BSdJXHW_wpIsH-1" vertex="1">
          <mxGeometry x="520" y="516" width="80" height="40" as="geometry" />
        </mxCell>
        <mxCell id="dVSpkT2BSdJXHW_wpIsH-242" style="edgeStyle=orthogonalEdgeStyle;rounded=0;orthogonalLoop=1;jettySize=auto;html=1;entryX=0;entryY=0.5;entryDx=0;entryDy=0;strokeColor=#000000;fillColor=#FFF2CC;" parent="dVSpkT2BSdJXHW_wpIsH-1" source="dVSpkT2BSdJXHW_wpIsH-239" target="dVSpkT2BSdJXHW_wpIsH-241" edge="1">
          <mxGeometry relative="1" as="geometry" />
        </mxCell>
        <mxCell id="dVSpkT2BSdJXHW_wpIsH-239" value="Actor" style="shape=umlActor;verticalLabelPosition=bottom;verticalAlign=top;html=1;outlineConnect=0;strokeColor=#000000;fillColor=none;" parent="dVSpkT2BSdJXHW_wpIsH-1" vertex="1">
          <mxGeometry x="80" y="906" width="30" height="60" as="geometry" />
        </mxCell>
        <mxCell id="dVSpkT2BSdJXHW_wpIsH-244" style="edgeStyle=orthogonalEdgeStyle;rounded=0;orthogonalLoop=1;jettySize=auto;html=1;entryX=0;entryY=0.5;entryDx=0;entryDy=0;strokeColor=#000000;fillColor=#FFF2CC;" parent="dVSpkT2BSdJXHW_wpIsH-1" source="dVSpkT2BSdJXHW_wpIsH-241" target="dVSpkT2BSdJXHW_wpIsH-243" edge="1">
          <mxGeometry relative="1" as="geometry" />
        </mxCell>
        <mxCell id="dVSpkT2BSdJXHW_wpIsH-241" value="个人主页" style="rounded=0;whiteSpace=wrap;html=1;strokeColor=#000000;fillColor=none;" parent="dVSpkT2BSdJXHW_wpIsH-1" vertex="1">
          <mxGeometry x="158" y="916" width="80" height="40" as="geometry" />
        </mxCell>
        <mxCell id="dVSpkT2BSdJXHW_wpIsH-246" style="edgeStyle=orthogonalEdgeStyle;rounded=0;orthogonalLoop=1;jettySize=auto;html=1;entryX=0;entryY=0.5;entryDx=0;entryDy=0;strokeColor=#000000;fillColor=#FFF2CC;" parent="dVSpkT2BSdJXHW_wpIsH-1" source="dVSpkT2BSdJXHW_wpIsH-243" target="dVSpkT2BSdJXHW_wpIsH-245" edge="1">
          <mxGeometry relative="1" as="geometry" />
        </mxCell>
        <mxCell id="dVSpkT2BSdJXHW_wpIsH-251" style="edgeStyle=orthogonalEdgeStyle;rounded=0;orthogonalLoop=1;jettySize=auto;html=1;entryX=0.5;entryY=1;entryDx=0;entryDy=0;strokeColor=#000000;fillColor=#FFF2CC;" parent="dVSpkT2BSdJXHW_wpIsH-1" source="dVSpkT2BSdJXHW_wpIsH-243" target="dVSpkT2BSdJXHW_wpIsH-250" edge="1">
          <mxGeometry relative="1" as="geometry" />
        </mxCell>
        <mxCell id="dVSpkT2BSdJXHW_wpIsH-243" value="拉取拉链" style="rounded=0;whiteSpace=wrap;html=1;strokeColor=#000000;fillColor=none;" parent="dVSpkT2BSdJXHW_wpIsH-1" vertex="1">
          <mxGeometry x="278" y="916" width="80" height="40" as="geometry" />
        </mxCell>
        <mxCell id="dVSpkT2BSdJXHW_wpIsH-249" style="edgeStyle=orthogonalEdgeStyle;rounded=0;orthogonalLoop=1;jettySize=auto;html=1;entryX=0;entryY=0.5;entryDx=0;entryDy=0;strokeColor=#000000;fillColor=#FFF2CC;exitX=0.5;exitY=0;exitDx=0;exitDy=0;" parent="dVSpkT2BSdJXHW_wpIsH-1" source="dVSpkT2BSdJXHW_wpIsH-245" target="dVSpkT2BSdJXHW_wpIsH-232" edge="1">
          <mxGeometry relative="1" as="geometry" />
        </mxCell>
        <mxCell id="dVSpkT2BSdJXHW_wpIsH-245" value="获取文章信息" style="rounded=0;whiteSpace=wrap;html=1;strokeColor=#000000;fillColor=none;" parent="dVSpkT2BSdJXHW_wpIsH-1" vertex="1">
          <mxGeometry x="398" y="916" width="80" height="40" as="geometry" />
        </mxCell>
        <mxCell id="dVSpkT2BSdJXHW_wpIsH-250" value="pop" style="rounded=1;whiteSpace=wrap;html=1;strokeColor=#000000;fillColor=none;" parent="dVSpkT2BSdJXHW_wpIsH-1" vertex="1">
          <mxGeometry x="277" y="807.5" width="82" height="40" as="geometry" />
        </mxCell>
        <mxCell id="jXVKR33a2lAW2Qp4Rx-c-0" value="巡检 审计" style="rounded=0;whiteSpace=wrap;html=1;strokeColor=#000000;fillColor=none;" parent="dVSpkT2BSdJXHW_wpIsH-1" vertex="1">
          <mxGeometry x="1126" y="622.5" width="80" height="37" as="geometry" />
        </mxCell>
        <mxCell id="jXVKR33a2lAW2Qp4Rx-c-1" value="" style="endArrow=none;dashed=1;html=1;dashPattern=1 3;strokeWidth=2;fillColor=#FFF2CC;entryX=0.55;entryY=0.95;entryDx=0;entryDy=0;entryPerimeter=0;" parent="dVSpkT2BSdJXHW_wpIsH-1" source="jXVKR33a2lAW2Qp4Rx-c-0" target="dVSpkT2BSdJXHW_wpIsH-119" edge="1">
          <mxGeometry width="50" height="50" relative="1" as="geometry">
            <mxPoint x="970" y="666" as="sourcePoint" />
            <mxPoint x="1020" y="616" as="targetPoint" />
          </mxGeometry>
        </mxCell>
      </root>
    </mxGraphModel>
  </diagram>
  <diagram id="mMrOWGaiTARFOjG-VQNV" name="模块-组件-基础服务">
    <mxGraphModel dx="1666" dy="793" grid="0" gridSize="10" guides="1" tooltips="1" connect="1" arrows="1" fold="1" page="1" pageScale="1" pageWidth="3300" pageHeight="4681" math="0" shadow="0">
      <root>
        <mxCell id="vscLrrFI-MaF_BJ3BJ-U-0" />
        <mxCell id="vscLrrFI-MaF_BJ3BJ-U-1" parent="vscLrrFI-MaF_BJ3BJ-U-0" />
        <mxCell id="nOqZ9Snd2Wtsz4dVx8iG-1" value="" style="rounded=0;whiteSpace=wrap;html=1;strokeColor=#EA6B66;fillColor=#F8CECC;fontSize=16;" parent="vscLrrFI-MaF_BJ3BJ-U-1" vertex="1">
          <mxGeometry x="520" y="40" width="430" height="180" as="geometry" />
        </mxCell>
        <mxCell id="nOqZ9Snd2Wtsz4dVx8iG-2" value="" style="rounded=0;whiteSpace=wrap;html=1;strokeColor=#EA6B66;fillColor=#F8CECC;fontSize=16;" parent="vscLrrFI-MaF_BJ3BJ-U-1" vertex="1">
          <mxGeometry x="1000" y="40" width="220" height="180" as="geometry" />
        </mxCell>
        <mxCell id="vscLrrFI-MaF_BJ3BJ-U-3" value="" style="rounded=0;whiteSpace=wrap;html=1;strokeColor=#EA6B66;fillColor=#F8CECC;fontSize=16;" parent="vscLrrFI-MaF_BJ3BJ-U-1" vertex="1">
          <mxGeometry x="160" y="40" width="320" height="180" as="geometry" />
        </mxCell>
        <mxCell id="vscLrrFI-MaF_BJ3BJ-U-2" value="模&lt;br&gt;块" style="rounded=0;whiteSpace=wrap;html=1;strokeColor=#EA6B66;fillColor=#F8CECC;fontSize=16;" parent="vscLrrFI-MaF_BJ3BJ-U-1" vertex="1">
          <mxGeometry x="80" y="40" width="40" height="180" as="geometry" />
        </mxCell>
        <mxCell id="vscLrrFI-MaF_BJ3BJ-U-4" value="内容云平台" style="text;html=1;align=center;verticalAlign=middle;resizable=0;points=[];autosize=1;fontSize=12;fillColor=#F8CECC;strokeColor=#EA6B66;" parent="vscLrrFI-MaF_BJ3BJ-U-1" vertex="1">
          <mxGeometry x="280" y="46" width="80" height="20" as="geometry" />
        </mxCell>
        <mxCell id="nOqZ9Snd2Wtsz4dVx8iG-0" value="组&lt;br&gt;件" style="rounded=0;whiteSpace=wrap;html=1;strokeColor=#FFD966;fillColor=#FFF2CC;fontSize=16;" parent="vscLrrFI-MaF_BJ3BJ-U-1" vertex="1">
          <mxGeometry x="80" y="260" width="40" height="300" as="geometry" />
        </mxCell>
        <mxCell id="nOqZ9Snd2Wtsz4dVx8iG-3" value="发布服务" style="text;html=1;align=center;verticalAlign=middle;resizable=0;points=[];autosize=1;fontSize=12;fillColor=#F8CECC;strokeColor=#EA6B66;" parent="vscLrrFI-MaF_BJ3BJ-U-1" vertex="1">
          <mxGeometry x="720" y="46" width="60" height="20" as="geometry" />
        </mxCell>
        <mxCell id="nOqZ9Snd2Wtsz4dVx8iG-4" value="文章服务" style="text;html=1;align=center;verticalAlign=middle;resizable=0;points=[];autosize=1;fontSize=12;fillColor=#F8CECC;strokeColor=#EA6B66;" parent="vscLrrFI-MaF_BJ3BJ-U-1" vertex="1">
          <mxGeometry x="1080" y="46" width="60" height="20" as="geometry" />
        </mxCell>
        <mxCell id="-Bmk-o3F1ZwzMa_hJmFP-3" value="发文策略" style="rounded=1;whiteSpace=wrap;html=1;strokeColor=#EA6B66;fillColor=#F8CECC;fontSize=12;" parent="vscLrrFI-MaF_BJ3BJ-U-1" vertex="1">
          <mxGeometry x="180" y="80" width="80" height="30" as="geometry" />
        </mxCell>
        <mxCell id="-Bmk-o3F1ZwzMa_hJmFP-4" value="推荐策略" style="rounded=1;whiteSpace=wrap;html=1;strokeColor=#EA6B66;fillColor=#F8CECC;fontSize=12;" parent="vscLrrFI-MaF_BJ3BJ-U-1" vertex="1">
          <mxGeometry x="180" y="130" width="80" height="30" as="geometry" />
        </mxCell>
        <mxCell id="-Bmk-o3F1ZwzMa_hJmFP-5" value="打包策略" style="rounded=1;whiteSpace=wrap;html=1;strokeColor=#EA6B66;fillColor=#F8CECC;fontSize=12;" parent="vscLrrFI-MaF_BJ3BJ-U-1" vertex="1">
          <mxGeometry x="180" y="180" width="80" height="30" as="geometry" />
        </mxCell>
        <mxCell id="-Bmk-o3F1ZwzMa_hJmFP-7" value="属性管理" style="rounded=1;whiteSpace=wrap;html=1;strokeColor=#EA6B66;fillColor=#F8CECC;fontSize=12;" parent="vscLrrFI-MaF_BJ3BJ-U-1" vertex="1">
          <mxGeometry x="280" y="80" width="80" height="30" as="geometry" />
        </mxCell>
        <mxCell id="-Bmk-o3F1ZwzMa_hJmFP-8" value="权限管理" style="rounded=1;whiteSpace=wrap;html=1;strokeColor=#EA6B66;fillColor=#F8CECC;fontSize=12;" parent="vscLrrFI-MaF_BJ3BJ-U-1" vertex="1">
          <mxGeometry x="280" y="130" width="80" height="30" as="geometry" />
        </mxCell>
        <mxCell id="-Bmk-o3F1ZwzMa_hJmFP-9" value="问题反馈" style="rounded=1;whiteSpace=wrap;html=1;strokeColor=#EA6B66;fillColor=#F8CECC;fontSize=12;" parent="vscLrrFI-MaF_BJ3BJ-U-1" vertex="1">
          <mxGeometry x="280" y="180" width="80" height="30" as="geometry" />
        </mxCell>
        <mxCell id="-Bmk-o3F1ZwzMa_hJmFP-10" value="case追查" style="rounded=1;whiteSpace=wrap;html=1;strokeColor=#EA6B66;fillColor=#F8CECC;fontSize=12;" parent="vscLrrFI-MaF_BJ3BJ-U-1" vertex="1">
          <mxGeometry x="380" y="80" width="80" height="30" as="geometry" />
        </mxCell>
        <mxCell id="-Bmk-o3F1ZwzMa_hJmFP-11" value="case修复" style="rounded=1;whiteSpace=wrap;html=1;strokeColor=#EA6B66;fillColor=#F8CECC;fontSize=12;" parent="vscLrrFI-MaF_BJ3BJ-U-1" vertex="1">
          <mxGeometry x="380" y="130" width="80" height="30" as="geometry" />
        </mxCell>
        <mxCell id="-Bmk-o3F1ZwzMa_hJmFP-12" value="监控报警" style="rounded=1;whiteSpace=wrap;html=1;strokeColor=#EA6B66;fillColor=#F8CECC;fontSize=12;" parent="vscLrrFI-MaF_BJ3BJ-U-1" vertex="1">
          <mxGeometry x="380" y="180" width="80" height="30" as="geometry" />
        </mxCell>
        <mxCell id="-Bmk-o3F1ZwzMa_hJmFP-13" value="定时发文" style="rounded=1;whiteSpace=wrap;html=1;strokeColor=#EA6B66;fillColor=#F8CECC;fontSize=12;" parent="vscLrrFI-MaF_BJ3BJ-U-1" vertex="1">
          <mxGeometry x="640" y="80" width="80" height="30" as="geometry" />
        </mxCell>
        <mxCell id="-Bmk-o3F1ZwzMa_hJmFP-14" value="版本控制" style="rounded=1;whiteSpace=wrap;html=1;strokeColor=#EA6B66;fillColor=#F8CECC;fontSize=12;" parent="vscLrrFI-MaF_BJ3BJ-U-1" vertex="1">
          <mxGeometry x="540" y="180" width="80" height="30" as="geometry" />
        </mxCell>
        <mxCell id="-Bmk-o3F1ZwzMa_hJmFP-15" value="属性变更" style="rounded=1;whiteSpace=wrap;html=1;strokeColor=#EA6B66;fillColor=#F8CECC;fontSize=12;" parent="vscLrrFI-MaF_BJ3BJ-U-1" vertex="1">
          <mxGeometry x="640" y="130" width="80" height="30" as="geometry" />
        </mxCell>
        <mxCell id="-Bmk-o3F1ZwzMa_hJmFP-16" value="转码/回调" style="rounded=1;whiteSpace=wrap;html=1;strokeColor=#EA6B66;fillColor=#F8CECC;fontSize=12;" parent="vscLrrFI-MaF_BJ3BJ-U-1" vertex="1">
          <mxGeometry x="740" y="80" width="80" height="30" as="geometry" />
        </mxCell>
        <mxCell id="-Bmk-o3F1ZwzMa_hJmFP-17" value="特征/送审" style="rounded=1;whiteSpace=wrap;html=1;strokeColor=#EA6B66;fillColor=#F8CECC;fontSize=12;" parent="vscLrrFI-MaF_BJ3BJ-U-1" vertex="1">
          <mxGeometry x="740" y="130" width="80" height="30" as="geometry" />
        </mxCell>
        <mxCell id="-Bmk-o3F1ZwzMa_hJmFP-18" value="拉链同步" style="rounded=1;whiteSpace=wrap;html=1;strokeColor=#EA6B66;fillColor=#F8CECC;fontSize=12;" parent="vscLrrFI-MaF_BJ3BJ-U-1" vertex="1">
          <mxGeometry x="740" y="180" width="80" height="30" as="geometry" />
        </mxCell>
        <mxCell id="-Bmk-o3F1ZwzMa_hJmFP-21" value="版本读取" style="rounded=1;whiteSpace=wrap;html=1;strokeColor=#EA6B66;fillColor=#F8CECC;fontSize=12;" parent="vscLrrFI-MaF_BJ3BJ-U-1" vertex="1">
          <mxGeometry x="850" y="130" width="80" height="30" as="geometry" />
        </mxCell>
        <mxCell id="-Bmk-o3F1ZwzMa_hJmFP-23" value="审计Bubble" style="rounded=1;whiteSpace=wrap;html=1;strokeColor=#EA6B66;fillColor=#F8CECC;fontSize=12;" parent="vscLrrFI-MaF_BJ3BJ-U-1" vertex="1">
          <mxGeometry x="640" y="180" width="80" height="30" as="geometry" />
        </mxCell>
        <mxCell id="-Bmk-o3F1ZwzMa_hJmFP-24" value="推荐倒排" style="rounded=1;whiteSpace=wrap;html=1;strokeColor=#EA6B66;fillColor=#F8CECC;fontSize=12;" parent="vscLrrFI-MaF_BJ3BJ-U-1" vertex="1">
          <mxGeometry x="850" y="180" width="80" height="30" as="geometry" />
        </mxCell>
        <mxCell id="-Bmk-o3F1ZwzMa_hJmFP-25" value="用户检查" style="rounded=1;whiteSpace=wrap;html=1;strokeColor=#EA6B66;fillColor=#F8CECC;fontSize=12;" parent="vscLrrFI-MaF_BJ3BJ-U-1" vertex="1">
          <mxGeometry x="540" y="80" width="80" height="30" as="geometry" />
        </mxCell>
        <mxCell id="-Bmk-o3F1ZwzMa_hJmFP-26" value="格式检查" style="rounded=1;whiteSpace=wrap;html=1;strokeColor=#EA6B66;fillColor=#F8CECC;fontSize=12;" parent="vscLrrFI-MaF_BJ3BJ-U-1" vertex="1">
          <mxGeometry x="540" y="130" width="80" height="30" as="geometry" />
        </mxCell>
        <mxCell id="-Bmk-o3F1ZwzMa_hJmFP-27" value="最新版本" style="rounded=1;whiteSpace=wrap;html=1;strokeColor=#EA6B66;fillColor=#F8CECC;fontSize=12;" parent="vscLrrFI-MaF_BJ3BJ-U-1" vertex="1">
          <mxGeometry x="850" y="80" width="80" height="30" as="geometry" />
        </mxCell>
        <mxCell id="-Bmk-o3F1ZwzMa_hJmFP-28" value="内容打包" style="rounded=1;whiteSpace=wrap;html=1;strokeColor=#EA6B66;fillColor=#F8CECC;fontSize=12;" parent="vscLrrFI-MaF_BJ3BJ-U-1" vertex="1">
          <mxGeometry x="1020" y="80" width="80" height="30" as="geometry" />
        </mxCell>
        <mxCell id="-Bmk-o3F1ZwzMa_hJmFP-29" value="数据打包" style="rounded=1;whiteSpace=wrap;html=1;strokeColor=#EA6B66;fillColor=#F8CECC;fontSize=12;" parent="vscLrrFI-MaF_BJ3BJ-U-1" vertex="1">
          <mxGeometry x="1020" y="130" width="80" height="30" as="geometry" />
        </mxCell>
        <mxCell id="-Bmk-o3F1ZwzMa_hJmFP-30" value="可见度过滤" style="rounded=1;whiteSpace=wrap;html=1;strokeColor=#EA6B66;fillColor=#F8CECC;fontSize=12;" parent="vscLrrFI-MaF_BJ3BJ-U-1" vertex="1">
          <mxGeometry x="1120" y="80" width="80" height="30" as="geometry" />
        </mxCell>
        <mxCell id="-Bmk-o3F1ZwzMa_hJmFP-31" value="用户过滤" style="rounded=1;whiteSpace=wrap;html=1;strokeColor=#EA6B66;fillColor=#F8CECC;fontSize=12;" parent="vscLrrFI-MaF_BJ3BJ-U-1" vertex="1">
          <mxGeometry x="1120" y="130" width="80" height="30" as="geometry" />
        </mxCell>
        <mxCell id="-Bmk-o3F1ZwzMa_hJmFP-32" value="权限控制" style="rounded=1;whiteSpace=wrap;html=1;strokeColor=#EA6B66;fillColor=#F8CECC;fontSize=12;" parent="vscLrrFI-MaF_BJ3BJ-U-1" vertex="1">
          <mxGeometry x="1120" y="180" width="80" height="30" as="geometry" />
        </mxCell>
        <mxCell id="-Bmk-o3F1ZwzMa_hJmFP-33" value="" style="rounded=0;whiteSpace=wrap;html=1;strokeColor=#FFD966;fillColor=#FFF2CC;fontSize=12;" parent="vscLrrFI-MaF_BJ3BJ-U-1" vertex="1">
          <mxGeometry x="160" y="260" width="1060" height="80" as="geometry" />
        </mxCell>
        <mxCell id="-Bmk-o3F1ZwzMa_hJmFP-35" value="业务策略" style="rounded=1;whiteSpace=wrap;html=1;strokeColor=#FFD966;fillColor=#FFF2CC;fontSize=12;" parent="vscLrrFI-MaF_BJ3BJ-U-1" vertex="1">
          <mxGeometry x="180" y="300" width="140" height="30" as="geometry" />
        </mxCell>
        <mxCell id="-Bmk-o3F1ZwzMa_hJmFP-36" value="内容格式" style="rounded=1;whiteSpace=wrap;html=1;strokeColor=#FFD966;fillColor=#FFF2CC;fontSize=12;" parent="vscLrrFI-MaF_BJ3BJ-U-1" vertex="1">
          <mxGeometry x="380" y="300" width="160" height="30" as="geometry" />
        </mxCell>
        <mxCell id="-Bmk-o3F1ZwzMa_hJmFP-37" value="公有组件" style="text;html=1;align=center;verticalAlign=middle;resizable=0;points=[];autosize=1;fontSize=12;fillColor=#FFF2CC;strokeColor=#FFD966;" parent="vscLrrFI-MaF_BJ3BJ-U-1" vertex="1">
          <mxGeometry x="660" y="270" width="60" height="20" as="geometry" />
        </mxCell>
        <mxCell id="-Bmk-o3F1ZwzMa_hJmFP-39" value="权限控制" style="rounded=1;whiteSpace=wrap;html=1;strokeColor=#FFD966;fillColor=#FFF2CC;fontSize=12;" parent="vscLrrFI-MaF_BJ3BJ-U-1" vertex="1">
          <mxGeometry x="830" y="300" width="160" height="30" as="geometry" />
        </mxCell>
        <mxCell id="-Bmk-o3F1ZwzMa_hJmFP-41" value="" style="rounded=0;whiteSpace=wrap;html=1;strokeColor=#FFD966;fillColor=#FFF2CC;fontSize=12;" parent="vscLrrFI-MaF_BJ3BJ-U-1" vertex="1">
          <mxGeometry x="160" y="370" width="790" height="80" as="geometry" />
        </mxCell>
        <mxCell id="-Bmk-o3F1ZwzMa_hJmFP-42" value="公有组件" style="text;html=1;align=center;verticalAlign=middle;resizable=0;points=[];autosize=1;fontSize=12;fillColor=#FFF2CC;strokeColor=#FFD966;" parent="vscLrrFI-MaF_BJ3BJ-U-1" vertex="1">
          <mxGeometry x="500" y="380" width="60" height="20" as="geometry" />
        </mxCell>
        <mxCell id="-Bmk-o3F1ZwzMa_hJmFP-43" value="行为审计" style="rounded=1;whiteSpace=wrap;html=1;strokeColor=#FFD966;fillColor=#FFF2CC;fontSize=12;" parent="vscLrrFI-MaF_BJ3BJ-U-1" vertex="1">
          <mxGeometry x="430" y="410" width="200" height="30" as="geometry" />
        </mxCell>
        <mxCell id="-Bmk-o3F1ZwzMa_hJmFP-44" value="属性管理" style="rounded=1;whiteSpace=wrap;html=1;strokeColor=#FFD966;fillColor=#FFF2CC;fontSize=12;" parent="vscLrrFI-MaF_BJ3BJ-U-1" vertex="1">
          <mxGeometry x="610" y="300" width="160" height="30" as="geometry" />
        </mxCell>
        <mxCell id="-Bmk-o3F1ZwzMa_hJmFP-46" value="" style="rounded=0;whiteSpace=wrap;html=1;strokeColor=#FFD966;fillColor=#FFF2CC;fontSize=12;" parent="vscLrrFI-MaF_BJ3BJ-U-1" vertex="1">
          <mxGeometry x="520" y="480" width="700" height="80" as="geometry" />
        </mxCell>
        <mxCell id="-Bmk-o3F1ZwzMa_hJmFP-47" value="公有组件" style="text;html=1;align=center;verticalAlign=middle;resizable=0;points=[];autosize=1;fontSize=12;fillColor=#FFF2CC;strokeColor=#FFD966;" parent="vscLrrFI-MaF_BJ3BJ-U-1" vertex="1">
          <mxGeometry x="845" y="490" width="60" height="20" as="geometry" />
        </mxCell>
        <mxCell id="-Bmk-o3F1ZwzMa_hJmFP-48" value="数据服务" style="rounded=1;whiteSpace=wrap;html=1;strokeColor=#FFD966;fillColor=#FFF2CC;fontSize=12;" parent="vscLrrFI-MaF_BJ3BJ-U-1" vertex="1">
          <mxGeometry x="640" y="520" width="200" height="30" as="geometry" />
        </mxCell>
        <mxCell id="-Bmk-o3F1ZwzMa_hJmFP-49" value="缓存管理" style="rounded=1;whiteSpace=wrap;html=1;strokeColor=#FFD966;fillColor=#FFF2CC;fontSize=12;" parent="vscLrrFI-MaF_BJ3BJ-U-1" vertex="1">
          <mxGeometry x="960" y="520" width="200" height="30" as="geometry" />
        </mxCell>
        <mxCell id="-Bmk-o3F1ZwzMa_hJmFP-50" value="监控报警" style="rounded=1;whiteSpace=wrap;html=1;strokeColor=#FFD966;fillColor=#FFF2CC;fontSize=12;" parent="vscLrrFI-MaF_BJ3BJ-U-1" vertex="1">
          <mxGeometry x="1040" y="300" width="160" height="30" as="geometry" />
        </mxCell>
        <mxCell id="-Bmk-o3F1ZwzMa_hJmFP-51" value="基&lt;br&gt;础&lt;br&gt;服&lt;br&gt;务" style="rounded=0;whiteSpace=wrap;html=1;strokeColor=#97D077;fillColor=#D5E8D4;fontSize=16;" parent="vscLrrFI-MaF_BJ3BJ-U-1" vertex="1">
          <mxGeometry x="80" y="600" width="40" height="190" as="geometry" />
        </mxCell>
        <mxCell id="-Bmk-o3F1ZwzMa_hJmFP-52" value="" style="rounded=0;whiteSpace=wrap;html=1;strokeColor=#97D077;fillColor=#D5E8D4;fontSize=12;" parent="vscLrrFI-MaF_BJ3BJ-U-1" vertex="1">
          <mxGeometry x="160" y="600" width="1060" height="80" as="geometry" />
        </mxCell>
        <mxCell id="-Bmk-o3F1ZwzMa_hJmFP-53" value="服务管理" style="text;html=1;align=center;verticalAlign=middle;resizable=0;points=[];autosize=1;fontSize=12;fillColor=#D5E8D4;strokeColor=#97D077;" parent="vscLrrFI-MaF_BJ3BJ-U-1" vertex="1">
          <mxGeometry x="670" y="610" width="60" height="20" as="geometry" />
        </mxCell>
        <mxCell id="-Bmk-o3F1ZwzMa_hJmFP-55" value="ApiGateway" style="rounded=1;whiteSpace=wrap;html=1;strokeColor=#97D077;fillColor=#D5E8D4;fontSize=12;" parent="vscLrrFI-MaF_BJ3BJ-U-1" vertex="1">
          <mxGeometry x="190" y="640" width="140" height="30" as="geometry" />
        </mxCell>
        <mxCell id="-Bmk-o3F1ZwzMa_hJmFP-56" value="服务注册/发现" style="rounded=1;whiteSpace=wrap;html=1;strokeColor=#97D077;fillColor=#D5E8D4;fontSize=12;" parent="vscLrrFI-MaF_BJ3BJ-U-1" vertex="1">
          <mxGeometry x="370" y="640" width="140" height="30" as="geometry" />
        </mxCell>
        <mxCell id="-Bmk-o3F1ZwzMa_hJmFP-57" value="服务管理" style="rounded=1;whiteSpace=wrap;html=1;strokeColor=#97D077;fillColor=#D5E8D4;fontSize=12;" parent="vscLrrFI-MaF_BJ3BJ-U-1" vertex="1">
          <mxGeometry x="550" y="640" width="140" height="30" as="geometry" />
        </mxCell>
        <mxCell id="-Bmk-o3F1ZwzMa_hJmFP-58" value="" style="rounded=0;whiteSpace=wrap;html=1;strokeColor=#97D077;fillColor=#D5E8D4;fontSize=12;" parent="vscLrrFI-MaF_BJ3BJ-U-1" vertex="1">
          <mxGeometry x="160" y="710" width="1060" height="80" as="geometry" />
        </mxCell>
        <mxCell id="-Bmk-o3F1ZwzMa_hJmFP-59" value="存储管理" style="text;html=1;align=center;verticalAlign=middle;resizable=0;points=[];autosize=1;fontSize=12;fillColor=#D5E8D4;strokeColor=#97D077;" parent="vscLrrFI-MaF_BJ3BJ-U-1" vertex="1">
          <mxGeometry x="670" y="720" width="60" height="20" as="geometry" />
        </mxCell>
        <mxCell id="-Bmk-o3F1ZwzMa_hJmFP-60" value="Redis" style="rounded=1;whiteSpace=wrap;html=1;strokeColor=#97D077;fillColor=#D5E8D4;fontSize=12;" parent="vscLrrFI-MaF_BJ3BJ-U-1" vertex="1">
          <mxGeometry x="190" y="750" width="100" height="30" as="geometry" />
        </mxCell>
        <mxCell id="-Bmk-o3F1ZwzMa_hJmFP-61" value="MySQL" style="rounded=1;whiteSpace=wrap;html=1;strokeColor=#97D077;fillColor=#D5E8D4;fontSize=12;" parent="vscLrrFI-MaF_BJ3BJ-U-1" vertex="1">
          <mxGeometry x="330" y="750" width="100" height="30" as="geometry" />
        </mxCell>
        <mxCell id="-Bmk-o3F1ZwzMa_hJmFP-64" value="Abase" style="rounded=1;whiteSpace=wrap;html=1;strokeColor=#97D077;fillColor=#D5E8D4;fontSize=12;" parent="vscLrrFI-MaF_BJ3BJ-U-1" vertex="1">
          <mxGeometry x="470" y="750" width="100" height="30" as="geometry" />
        </mxCell>
        <mxCell id="-Bmk-o3F1ZwzMa_hJmFP-65" value="Tcc" style="rounded=1;whiteSpace=wrap;html=1;strokeColor=#97D077;fillColor=#D5E8D4;fontSize=12;" parent="vscLrrFI-MaF_BJ3BJ-U-1" vertex="1">
          <mxGeometry x="730" y="750" width="90" height="30" as="geometry" />
        </mxCell>
        <mxCell id="-Bmk-o3F1ZwzMa_hJmFP-66" value="ClickHouse" style="rounded=1;whiteSpace=wrap;html=1;strokeColor=#97D077;fillColor=#D5E8D4;fontSize=12;" parent="vscLrrFI-MaF_BJ3BJ-U-1" vertex="1">
          <mxGeometry x="980" y="750" width="90" height="30" as="geometry" />
        </mxCell>
        <mxCell id="-Bmk-o3F1ZwzMa_hJmFP-67" value="Hive" style="rounded=1;whiteSpace=wrap;html=1;strokeColor=#97D077;fillColor=#D5E8D4;fontSize=12;" parent="vscLrrFI-MaF_BJ3BJ-U-1" vertex="1">
          <mxGeometry x="850" y="750" width="100" height="30" as="geometry" />
        </mxCell>
        <mxCell id="-Bmk-o3F1ZwzMa_hJmFP-68" value="LogHouse" style="rounded=1;whiteSpace=wrap;html=1;strokeColor=#97D077;fillColor=#D5E8D4;fontSize=12;" parent="vscLrrFI-MaF_BJ3BJ-U-1" vertex="1">
          <mxGeometry x="1100" y="750" width="100" height="30" as="geometry" />
        </mxCell>
        <mxCell id="-Bmk-o3F1ZwzMa_hJmFP-69" value="" style="rounded=0;whiteSpace=wrap;html=1;strokeColor=#FFD966;fillColor=#FFF2CC;fontSize=12;" parent="vscLrrFI-MaF_BJ3BJ-U-1" vertex="1">
          <mxGeometry x="160" y="480" width="320" height="80" as="geometry" />
        </mxCell>
        <mxCell id="-Bmk-o3F1ZwzMa_hJmFP-70" value="自有组件" style="text;html=1;align=center;verticalAlign=middle;resizable=0;points=[];autosize=1;fontSize=12;fillColor=#FFF2CC;strokeColor=#FFD966;" parent="vscLrrFI-MaF_BJ3BJ-U-1" vertex="1">
          <mxGeometry x="290" y="486" width="60" height="20" as="geometry" />
        </mxCell>
        <mxCell id="-Bmk-o3F1ZwzMa_hJmFP-71" value="Bpm" style="rounded=1;whiteSpace=wrap;html=1;strokeColor=#FFD966;fillColor=#FFF2CC;fontSize=12;" parent="vscLrrFI-MaF_BJ3BJ-U-1" vertex="1">
          <mxGeometry x="180" y="520" width="110" height="30" as="geometry" />
        </mxCell>
        <mxCell id="-Bmk-o3F1ZwzMa_hJmFP-72" value="Oncall" style="rounded=1;whiteSpace=wrap;html=1;strokeColor=#FFD966;fillColor=#FFF2CC;fontSize=12;" parent="vscLrrFI-MaF_BJ3BJ-U-1" vertex="1">
          <mxGeometry x="350" y="520" width="110" height="30" as="geometry" />
        </mxCell>
        <mxCell id="-Bmk-o3F1ZwzMa_hJmFP-74" value="ByteSQL" style="rounded=1;whiteSpace=wrap;html=1;strokeColor=#97D077;fillColor=#D5E8D4;fontSize=12;" parent="vscLrrFI-MaF_BJ3BJ-U-1" vertex="1">
          <mxGeometry x="610" y="750" width="90" height="30" as="geometry" />
        </mxCell>
      </root>
    </mxGraphModel>
  </diagram>
  <diagram id="a_oD4YHrr4sDRb4rBs7o" name="整体架构">
    <mxGraphModel dx="1426" dy="793" grid="0" gridSize="10" guides="1" tooltips="1" connect="1" arrows="1" fold="1" page="1" pageScale="1" pageWidth="3300" pageHeight="4681" math="0" shadow="0">
      <root>
        <mxCell id="JnQvERnG6liZoV8mHrTV-0" />
        <mxCell id="JnQvERnG6liZoV8mHrTV-1" parent="JnQvERnG6liZoV8mHrTV-0" />
        <mxCell id="MClw5wDJbvM42zxDQt-A-0" value="业务接入" style="rounded=0;whiteSpace=wrap;html=1;strokeColor=#67AB9F;fillColor=#D5E8D4;" parent="JnQvERnG6liZoV8mHrTV-1" vertex="1">
          <mxGeometry x="200" y="80" width="120" height="40" as="geometry" />
        </mxCell>
        <mxCell id="MClw5wDJbvM42zxDQt-A-1" value="业务运维" style="rounded=0;whiteSpace=wrap;html=1;strokeColor=#67AB9F;fillColor=#D5E8D4;" parent="JnQvERnG6liZoV8mHrTV-1" vertex="1">
          <mxGeometry x="400" y="80" width="120" height="40" as="geometry" />
        </mxCell>
        <mxCell id="MClw5wDJbvM42zxDQt-A-2" value="业务发文" style="rounded=0;whiteSpace=wrap;html=1;strokeColor=#67AB9F;fillColor=#D5E8D4;" parent="JnQvERnG6liZoV8mHrTV-1" vertex="1">
          <mxGeometry x="600" y="80" width="80" height="40" as="geometry" />
        </mxCell>
        <mxCell id="MClw5wDJbvM42zxDQt-A-3" value="审核" style="rounded=0;whiteSpace=wrap;html=1;strokeColor=#67AB9F;fillColor=#D5E8D4;" parent="JnQvERnG6liZoV8mHrTV-1" vertex="1">
          <mxGeometry x="840" y="80" width="80" height="40" as="geometry" />
        </mxCell>
        <mxCell id="MClw5wDJbvM42zxDQt-A-4" value="推荐" style="rounded=0;whiteSpace=wrap;html=1;strokeColor=#67AB9F;fillColor=#D5E8D4;" parent="JnQvERnG6liZoV8mHrTV-1" vertex="1">
          <mxGeometry x="1240" y="80" width="80" height="40" as="geometry" />
        </mxCell>
        <mxCell id="MClw5wDJbvM42zxDQt-A-5" value="&lt;span&gt;业务后台&lt;/span&gt;" style="whiteSpace=wrap;html=1;strokeColor=#67AB9F;fillColor=#D5E8D4;" parent="JnQvERnG6liZoV8mHrTV-1" vertex="1">
          <mxGeometry x="720" y="80" width="80" height="40" as="geometry" />
        </mxCell>
        <mxCell id="MClw5wDJbvM42zxDQt-A-6" value="&lt;span&gt;用户&lt;/span&gt;" style="whiteSpace=wrap;html=1;strokeColor=#67AB9F;fillColor=#D5E8D4;" parent="JnQvERnG6liZoV8mHrTV-1" vertex="1">
          <mxGeometry x="1000" y="80" width="80" height="40" as="geometry" />
        </mxCell>
        <mxCell id="MClw5wDJbvM42zxDQt-A-7" value="内容平台" style="rounded=0;whiteSpace=wrap;html=1;strokeColor=#FFD966;fillColor=#FFF2CC;" parent="JnQvERnG6liZoV8mHrTV-1" vertex="1">
          <mxGeometry x="200" y="160" width="320" height="40" as="geometry" />
        </mxCell>
        <mxCell id="MClw5wDJbvM42zxDQt-A-8" value="发布服务" style="rounded=0;whiteSpace=wrap;html=1;strokeColor=#FFD966;fillColor=#FFF2CC;" parent="JnQvERnG6liZoV8mHrTV-1" vertex="1">
          <mxGeometry x="600" y="160" width="320" height="40" as="geometry" />
        </mxCell>
        <mxCell id="MClw5wDJbvM42zxDQt-A-9" value="文章服务" style="rounded=0;whiteSpace=wrap;html=1;strokeColor=#FFD966;fillColor=#FFF2CC;" parent="JnQvERnG6liZoV8mHrTV-1" vertex="1">
          <mxGeometry x="1000" y="160" width="320" height="40" as="geometry" />
        </mxCell>
        <mxCell id="MClw5wDJbvM42zxDQt-A-10" value="发文策略" style="rounded=0;whiteSpace=wrap;html=1;strokeColor=#FFD966;fillColor=#FFF2CC;" parent="JnQvERnG6liZoV8mHrTV-1" vertex="1">
          <mxGeometry x="200" y="240" width="80" height="40" as="geometry" />
        </mxCell>
        <mxCell id="MClw5wDJbvM42zxDQt-A-11" value="推荐策略" style="rounded=0;whiteSpace=wrap;html=1;strokeColor=#FFD966;fillColor=#FFF2CC;" parent="JnQvERnG6liZoV8mHrTV-1" vertex="1">
          <mxGeometry x="200" y="300" width="80" height="40" as="geometry" />
        </mxCell>
        <mxCell id="MClw5wDJbvM42zxDQt-A-12" value="打包策略" style="rounded=0;whiteSpace=wrap;html=1;strokeColor=#FFD966;fillColor=#FFF2CC;" parent="JnQvERnG6liZoV8mHrTV-1" vertex="1">
          <mxGeometry x="200" y="360" width="80" height="40" as="geometry" />
        </mxCell>
        <mxCell id="MClw5wDJbvM42zxDQt-A-13" value="属性管理" style="whiteSpace=wrap;html=1;strokeColor=#FFD966;fillColor=#FFF2CC;" parent="JnQvERnG6liZoV8mHrTV-1" vertex="1">
          <mxGeometry x="320" y="240" width="80" height="40" as="geometry" />
        </mxCell>
        <mxCell id="MClw5wDJbvM42zxDQt-A-14" value="权限管理" style="whiteSpace=wrap;html=1;strokeColor=#FFD966;fillColor=#FFF2CC;" parent="JnQvERnG6liZoV8mHrTV-1" vertex="1">
          <mxGeometry x="320" y="300" width="80" height="40" as="geometry" />
        </mxCell>
        <mxCell id="MClw5wDJbvM42zxDQt-A-15" value="问题反馈" style="whiteSpace=wrap;html=1;strokeColor=#FFD966;fillColor=#FFF2CC;" parent="JnQvERnG6liZoV8mHrTV-1" vertex="1">
          <mxGeometry x="320" y="360" width="80" height="40" as="geometry" />
        </mxCell>
        <mxCell id="MClw5wDJbvM42zxDQt-A-16" value="case查询工具" style="whiteSpace=wrap;html=1;strokeColor=#FFD966;fillColor=#FFF2CC;" parent="JnQvERnG6liZoV8mHrTV-1" vertex="1">
          <mxGeometry x="440" y="240" width="80" height="40" as="geometry" />
        </mxCell>
        <mxCell id="MClw5wDJbvM42zxDQt-A-17" value="case修复工具" style="whiteSpace=wrap;html=1;strokeColor=#FFD966;fillColor=#FFF2CC;" parent="JnQvERnG6liZoV8mHrTV-1" vertex="1">
          <mxGeometry x="440" y="300" width="80" height="40" as="geometry" />
        </mxCell>
        <mxCell id="MClw5wDJbvM42zxDQt-A-18" value="监控/巡检" style="whiteSpace=wrap;html=1;strokeColor=#FFD966;fillColor=#FFF2CC;" parent="JnQvERnG6liZoV8mHrTV-1" vertex="1">
          <mxGeometry x="440" y="360" width="80" height="40" as="geometry" />
        </mxCell>
        <mxCell id="MClw5wDJbvM42zxDQt-A-19" value="工单系统" style="rounded=0;whiteSpace=wrap;html=1;strokeColor=#EA6B66;fillColor=#F8CECC;" parent="JnQvERnG6liZoV8mHrTV-1" vertex="1">
          <mxGeometry x="200" y="440" width="160" height="40" as="geometry" />
        </mxCell>
        <mxCell id="MClw5wDJbvM42zxDQt-A-20" value="权限管理系统" style="rounded=0;whiteSpace=wrap;html=1;strokeColor=#EA6B66;fillColor=#F8CECC;" parent="JnQvERnG6liZoV8mHrTV-1" vertex="1">
          <mxGeometry x="200" y="500" width="160" height="40" as="geometry" />
        </mxCell>
        <mxCell id="MClw5wDJbvM42zxDQt-A-21" value="数据基础" style="rounded=0;whiteSpace=wrap;html=1;strokeColor=#EA6B66;fillColor=#F8CECC;" parent="JnQvERnG6liZoV8mHrTV-1" vertex="1">
          <mxGeometry x="400" y="440" width="120" height="100" as="geometry" />
        </mxCell>
        <mxCell id="MClw5wDJbvM42zxDQt-A-25" value="存储读/写服务" style="rounded=0;whiteSpace=wrap;html=1;strokeColor=#EA6B66;fillColor=#F8CECC;" parent="JnQvERnG6liZoV8mHrTV-1" vertex="1">
          <mxGeometry x="600" y="440" width="320" height="40" as="geometry" />
        </mxCell>
        <mxCell id="MClw5wDJbvM42zxDQt-A-26" value="数据库" style="rounded=0;whiteSpace=wrap;html=1;strokeColor=#EA6B66;fillColor=#F8CECC;" parent="JnQvERnG6liZoV8mHrTV-1" vertex="1">
          <mxGeometry x="600" y="500" width="320" height="40" as="geometry" />
        </mxCell>
        <mxCell id="MClw5wDJbvM42zxDQt-A-30" value="存储读服务" style="rounded=0;whiteSpace=wrap;html=1;strokeColor=#EA6B66;fillColor=#F8CECC;" parent="JnQvERnG6liZoV8mHrTV-1" vertex="1">
          <mxGeometry x="1000" y="438" width="320" height="40" as="geometry" />
        </mxCell>
        <mxCell id="MClw5wDJbvM42zxDQt-A-31" value="数据库" style="rounded=0;whiteSpace=wrap;html=1;strokeColor=#EA6B66;fillColor=#F8CECC;" parent="JnQvERnG6liZoV8mHrTV-1" vertex="1">
          <mxGeometry x="1000" y="500" width="320" height="40" as="geometry" />
        </mxCell>
        <mxCell id="MClw5wDJbvM42zxDQt-A-32" value="&lt;span&gt;运营&lt;/span&gt;" style="whiteSpace=wrap;html=1;strokeColor=#67AB9F;fillColor=#D5E8D4;" parent="JnQvERnG6liZoV8mHrTV-1" vertex="1">
          <mxGeometry x="1120" y="80" width="80" height="40" as="geometry" />
        </mxCell>
        <mxCell id="MClw5wDJbvM42zxDQt-A-33" value="" style="endArrow=none;dashed=1;html=1;dashPattern=1 3;strokeWidth=2;fillColor=#FFF2CC;" parent="JnQvERnG6liZoV8mHrTV-1" edge="1">
          <mxGeometry width="50" height="50" relative="1" as="geometry">
            <mxPoint x="80" y="140" as="sourcePoint" />
            <mxPoint x="1350" y="140" as="targetPoint" />
          </mxGeometry>
        </mxCell>
        <mxCell id="MClw5wDJbvM42zxDQt-A-34" value="接入层" style="text;html=1;align=center;verticalAlign=middle;resizable=0;points=[];autosize=1;fontSize=16;" parent="JnQvERnG6liZoV8mHrTV-1" vertex="1">
          <mxGeometry x="80" y="90" width="60" height="20" as="geometry" />
        </mxCell>
        <mxCell id="MClw5wDJbvM42zxDQt-A-35" value="" style="endArrow=none;dashed=1;html=1;dashPattern=1 3;strokeWidth=2;fillColor=#FFF2CC;fontSize=16;" parent="JnQvERnG6liZoV8mHrTV-1" edge="1">
          <mxGeometry width="50" height="50" relative="1" as="geometry">
            <mxPoint x="80" y="423" as="sourcePoint" />
            <mxPoint x="1350" y="413" as="targetPoint" />
          </mxGeometry>
        </mxCell>
        <mxCell id="MClw5wDJbvM42zxDQt-A-36" value="服务&lt;br&gt;功能模块" style="text;html=1;align=center;verticalAlign=middle;resizable=0;points=[];autosize=1;fontSize=16;" parent="JnQvERnG6liZoV8mHrTV-1" vertex="1">
          <mxGeometry x="70" y="270" width="80" height="40" as="geometry" />
        </mxCell>
        <mxCell id="MClw5wDJbvM42zxDQt-A-37" value="存储" style="text;html=1;align=center;verticalAlign=middle;resizable=0;points=[];autosize=1;fontSize=16;" parent="JnQvERnG6liZoV8mHrTV-1" vertex="1">
          <mxGeometry x="80" y="480" width="50" height="20" as="geometry" />
        </mxCell>
        <mxCell id="jcTlxUgHtbDUBaHSLVvl-0" value="用户检查" style="rounded=0;whiteSpace=wrap;html=1;strokeColor=#FFD966;fillColor=#FFF2CC;" vertex="1" parent="JnQvERnG6liZoV8mHrTV-1">
          <mxGeometry x="600" y="240" width="80" height="40" as="geometry" />
        </mxCell>
        <mxCell id="jcTlxUgHtbDUBaHSLVvl-1" value="格式检查" style="rounded=0;whiteSpace=wrap;html=1;strokeColor=#FFD966;fillColor=#FFF2CC;" vertex="1" parent="JnQvERnG6liZoV8mHrTV-1">
          <mxGeometry x="600" y="300" width="80" height="40" as="geometry" />
        </mxCell>
        <mxCell id="jcTlxUgHtbDUBaHSLVvl-2" value="版本控制" style="rounded=0;whiteSpace=wrap;html=1;strokeColor=#FFD966;fillColor=#FFF2CC;" vertex="1" parent="JnQvERnG6liZoV8mHrTV-1">
          <mxGeometry x="600" y="360" width="80" height="40" as="geometry" />
        </mxCell>
        <mxCell id="jcTlxUgHtbDUBaHSLVvl-3" value="定时发文" style="rounded=0;whiteSpace=wrap;html=1;strokeColor=#FFD966;fillColor=#FFF2CC;" vertex="1" parent="JnQvERnG6liZoV8mHrTV-1">
          <mxGeometry x="720" y="240" width="80" height="40" as="geometry" />
        </mxCell>
        <mxCell id="jcTlxUgHtbDUBaHSLVvl-4" value="属性变更" style="rounded=0;whiteSpace=wrap;html=1;strokeColor=#FFD966;fillColor=#FFF2CC;" vertex="1" parent="JnQvERnG6liZoV8mHrTV-1">
          <mxGeometry x="840" y="240" width="80" height="40" as="geometry" />
        </mxCell>
        <mxCell id="jcTlxUgHtbDUBaHSLVvl-5" value="转码/回调" style="rounded=0;whiteSpace=wrap;html=1;strokeColor=#FFD966;fillColor=#FFF2CC;" vertex="1" parent="JnQvERnG6liZoV8mHrTV-1">
          <mxGeometry x="720" y="300" width="80" height="40" as="geometry" />
        </mxCell>
        <mxCell id="jcTlxUgHtbDUBaHSLVvl-6" value="特征/送审" style="rounded=0;whiteSpace=wrap;html=1;strokeColor=#FFD966;fillColor=#FFF2CC;" vertex="1" parent="JnQvERnG6liZoV8mHrTV-1">
          <mxGeometry x="720" y="360" width="80" height="40" as="geometry" />
        </mxCell>
        <mxCell id="jcTlxUgHtbDUBaHSLVvl-7" value="拉链同步" style="rounded=0;whiteSpace=wrap;html=1;strokeColor=#FFD966;fillColor=#FFF2CC;" vertex="1" parent="JnQvERnG6liZoV8mHrTV-1">
          <mxGeometry x="840" y="300" width="80" height="40" as="geometry" />
        </mxCell>
        <mxCell id="jcTlxUgHtbDUBaHSLVvl-8" value="审计bubble" style="rounded=0;whiteSpace=wrap;html=1;strokeColor=#FFD966;fillColor=#FFF2CC;" vertex="1" parent="JnQvERnG6liZoV8mHrTV-1">
          <mxGeometry x="840" y="360" width="80" height="40" as="geometry" />
        </mxCell>
        <mxCell id="jcTlxUgHtbDUBaHSLVvl-9" value="内容打包" style="rounded=0;whiteSpace=wrap;html=1;strokeColor=#FFD966;fillColor=#FFF2CC;" vertex="1" parent="JnQvERnG6liZoV8mHrTV-1">
          <mxGeometry x="1000" y="240" width="80" height="40" as="geometry" />
        </mxCell>
        <mxCell id="jcTlxUgHtbDUBaHSLVvl-10" value="互动数据打包" style="rounded=0;whiteSpace=wrap;html=1;strokeColor=#FFD966;fillColor=#FFF2CC;" vertex="1" parent="JnQvERnG6liZoV8mHrTV-1">
          <mxGeometry x="1000" y="300" width="80" height="40" as="geometry" />
        </mxCell>
        <mxCell id="jcTlxUgHtbDUBaHSLVvl-12" value="可见度过滤" style="rounded=0;whiteSpace=wrap;html=1;strokeColor=#FFD966;fillColor=#FFF2CC;" vertex="1" parent="JnQvERnG6liZoV8mHrTV-1">
          <mxGeometry x="1120" y="240" width="80" height="40" as="geometry" />
        </mxCell>
        <mxCell id="jcTlxUgHtbDUBaHSLVvl-13" value="隐私过滤" style="rounded=0;whiteSpace=wrap;html=1;strokeColor=#FFD966;fillColor=#FFF2CC;" vertex="1" parent="JnQvERnG6liZoV8mHrTV-1">
          <mxGeometry x="1120" y="300" width="80" height="40" as="geometry" />
        </mxCell>
        <mxCell id="jcTlxUgHtbDUBaHSLVvl-14" value="权限控制" style="rounded=0;whiteSpace=wrap;html=1;strokeColor=#FFD966;fillColor=#FFF2CC;" vertex="1" parent="JnQvERnG6liZoV8mHrTV-1">
          <mxGeometry x="1120" y="360" width="80" height="40" as="geometry" />
        </mxCell>
        <mxCell id="jcTlxUgHtbDUBaHSLVvl-15" value="离线回扫" style="rounded=0;whiteSpace=wrap;html=1;strokeColor=#FFD966;fillColor=#FFF2CC;" vertex="1" parent="JnQvERnG6liZoV8mHrTV-1">
          <mxGeometry x="1240" y="240" width="80" height="40" as="geometry" />
        </mxCell>
      </root>
    </mxGraphModel>
  </diagram>
  <diagram id="HPu4fFhCXF-YkR7POJ7n" name="Page-9">
    <mxGraphModel dx="1426" dy="793" grid="0" gridSize="10" guides="1" tooltips="1" connect="1" arrows="1" fold="1" page="1" pageScale="1" pageWidth="3300" pageHeight="4681" math="0" shadow="0">
      <root>
        <mxCell id="8IMsg2FKTkAX5py7JAQ_-0" />
        <mxCell id="8IMsg2FKTkAX5py7JAQ_-1" parent="8IMsg2FKTkAX5py7JAQ_-0" />
        <mxCell id="8IMsg2FKTkAX5py7JAQ_-4" style="edgeStyle=orthogonalEdgeStyle;rounded=0;orthogonalLoop=1;jettySize=auto;html=1;entryX=0.5;entryY=0;entryDx=0;entryDy=0;" edge="1" parent="8IMsg2FKTkAX5py7JAQ_-1" source="8IMsg2FKTkAX5py7JAQ_-2" target="8IMsg2FKTkAX5py7JAQ_-3">
          <mxGeometry relative="1" as="geometry" />
        </mxCell>
        <mxCell id="8IMsg2FKTkAX5py7JAQ_-2" value="作者发文" style="rounded=0;whiteSpace=wrap;html=1;" vertex="1" parent="8IMsg2FKTkAX5py7JAQ_-1">
          <mxGeometry x="200" y="80" width="120" height="40" as="geometry" />
        </mxCell>
        <mxCell id="8IMsg2FKTkAX5py7JAQ_-6" style="edgeStyle=orthogonalEdgeStyle;rounded=0;orthogonalLoop=1;jettySize=auto;html=1;" edge="1" parent="8IMsg2FKTkAX5py7JAQ_-1" source="8IMsg2FKTkAX5py7JAQ_-3" target="8IMsg2FKTkAX5py7JAQ_-5">
          <mxGeometry relative="1" as="geometry" />
        </mxCell>
        <mxCell id="8IMsg2FKTkAX5py7JAQ_-3" value="current_version=0&lt;br&gt;latest_version=0" style="rounded=0;whiteSpace=wrap;html=1;" vertex="1" parent="8IMsg2FKTkAX5py7JAQ_-1">
          <mxGeometry x="200" y="160" width="120" height="40" as="geometry" />
        </mxCell>
        <mxCell id="8IMsg2FKTkAX5py7JAQ_-10" style="edgeStyle=orthogonalEdgeStyle;rounded=0;orthogonalLoop=1;jettySize=auto;html=1;entryX=0.5;entryY=0;entryDx=0;entryDy=0;" edge="1" parent="8IMsg2FKTkAX5py7JAQ_-1" source="8IMsg2FKTkAX5py7JAQ_-5" target="8IMsg2FKTkAX5py7JAQ_-9">
          <mxGeometry relative="1" as="geometry" />
        </mxCell>
        <mxCell id="8IMsg2FKTkAX5py7JAQ_-5" value="文章审核" style="rounded=0;whiteSpace=wrap;html=1;" vertex="1" parent="8IMsg2FKTkAX5py7JAQ_-1">
          <mxGeometry x="200" y="240" width="120" height="40" as="geometry" />
        </mxCell>
        <mxCell id="8IMsg2FKTkAX5py7JAQ_-12" style="edgeStyle=orthogonalEdgeStyle;rounded=0;orthogonalLoop=1;jettySize=auto;html=1;entryX=0.5;entryY=0;entryDx=0;entryDy=0;" edge="1" parent="8IMsg2FKTkAX5py7JAQ_-1" source="8IMsg2FKTkAX5py7JAQ_-9" target="8IMsg2FKTkAX5py7JAQ_-11">
          <mxGeometry relative="1" as="geometry" />
        </mxCell>
        <mxCell id="8IMsg2FKTkAX5py7JAQ_-15" style="edgeStyle=orthogonalEdgeStyle;rounded=0;orthogonalLoop=1;jettySize=auto;html=1;entryX=0;entryY=0.5;entryDx=0;entryDy=0;" edge="1" parent="8IMsg2FKTkAX5py7JAQ_-1" source="8IMsg2FKTkAX5py7JAQ_-9" target="8IMsg2FKTkAX5py7JAQ_-14">
          <mxGeometry relative="1" as="geometry" />
        </mxCell>
        <mxCell id="8IMsg2FKTkAX5py7JAQ_-9" value="文章是否审核通过" style="rhombus;whiteSpace=wrap;html=1;" vertex="1" parent="8IMsg2FKTkAX5py7JAQ_-1">
          <mxGeometry x="200" y="320" width="120" height="80" as="geometry" />
        </mxCell>
        <mxCell id="8IMsg2FKTkAX5py7JAQ_-11" value="&lt;span&gt;current_version=0&lt;/span&gt;&lt;br&gt;&lt;span&gt;latest_version=0&lt;br&gt;&lt;br&gt;状态为审核通过&lt;br&gt;可见度为可见&lt;br&gt;&lt;/span&gt;" style="rounded=0;whiteSpace=wrap;html=1;" vertex="1" parent="8IMsg2FKTkAX5py7JAQ_-1">
          <mxGeometry x="200" y="440" width="120" height="80" as="geometry" />
        </mxCell>
        <mxCell id="8IMsg2FKTkAX5py7JAQ_-17" style="edgeStyle=orthogonalEdgeStyle;rounded=0;orthogonalLoop=1;jettySize=auto;html=1;entryX=0.5;entryY=0;entryDx=0;entryDy=0;" edge="1" parent="8IMsg2FKTkAX5py7JAQ_-1" source="8IMsg2FKTkAX5py7JAQ_-13" target="8IMsg2FKTkAX5py7JAQ_-16">
          <mxGeometry relative="1" as="geometry" />
        </mxCell>
        <mxCell id="8IMsg2FKTkAX5py7JAQ_-13" value="作者修改文章" style="rounded=0;whiteSpace=wrap;html=1;" vertex="1" parent="8IMsg2FKTkAX5py7JAQ_-1">
          <mxGeometry x="1120" y="80" width="120" height="40" as="geometry" />
        </mxCell>
        <mxCell id="8IMsg2FKTkAX5py7JAQ_-14" value="&lt;span&gt;current_version=0&lt;/span&gt;&lt;br&gt;&lt;span&gt;latest_version=0&lt;br&gt;&lt;br&gt;状态为审核不通过&lt;br&gt;可见度为不可见&lt;br&gt;&lt;/span&gt;" style="rounded=0;whiteSpace=wrap;html=1;" vertex="1" parent="8IMsg2FKTkAX5py7JAQ_-1">
          <mxGeometry x="360" y="320" width="120" height="80" as="geometry" />
        </mxCell>
        <mxCell id="8IMsg2FKTkAX5py7JAQ_-19" style="edgeStyle=orthogonalEdgeStyle;rounded=0;orthogonalLoop=1;jettySize=auto;html=1;entryX=0.5;entryY=0;entryDx=0;entryDy=0;" edge="1" parent="8IMsg2FKTkAX5py7JAQ_-1" source="8IMsg2FKTkAX5py7JAQ_-16" target="8IMsg2FKTkAX5py7JAQ_-18">
          <mxGeometry relative="1" as="geometry" />
        </mxCell>
        <mxCell id="8IMsg2FKTkAX5py7JAQ_-16" value="current_version=0&lt;br&gt;latest_version=1" style="rounded=0;whiteSpace=wrap;html=1;" vertex="1" parent="8IMsg2FKTkAX5py7JAQ_-1">
          <mxGeometry x="1120" y="160" width="120" height="40" as="geometry" />
        </mxCell>
        <mxCell id="8IMsg2FKTkAX5py7JAQ_-21" style="edgeStyle=orthogonalEdgeStyle;rounded=0;orthogonalLoop=1;jettySize=auto;html=1;" edge="1" parent="8IMsg2FKTkAX5py7JAQ_-1" source="8IMsg2FKTkAX5py7JAQ_-18" target="8IMsg2FKTkAX5py7JAQ_-20">
          <mxGeometry relative="1" as="geometry" />
        </mxCell>
        <mxCell id="8IMsg2FKTkAX5py7JAQ_-18" value="文章修改审核" style="rounded=0;whiteSpace=wrap;html=1;" vertex="1" parent="8IMsg2FKTkAX5py7JAQ_-1">
          <mxGeometry x="1120" y="240" width="120" height="40" as="geometry" />
        </mxCell>
        <mxCell id="8IMsg2FKTkAX5py7JAQ_-23" style="edgeStyle=orthogonalEdgeStyle;rounded=0;orthogonalLoop=1;jettySize=auto;html=1;entryX=0.5;entryY=0;entryDx=0;entryDy=0;" edge="1" parent="8IMsg2FKTkAX5py7JAQ_-1" source="8IMsg2FKTkAX5py7JAQ_-20" target="8IMsg2FKTkAX5py7JAQ_-22">
          <mxGeometry relative="1" as="geometry" />
        </mxCell>
        <mxCell id="8IMsg2FKTkAX5py7JAQ_-25" style="edgeStyle=orthogonalEdgeStyle;rounded=0;orthogonalLoop=1;jettySize=auto;html=1;entryX=0;entryY=0.5;entryDx=0;entryDy=0;" edge="1" parent="8IMsg2FKTkAX5py7JAQ_-1" source="8IMsg2FKTkAX5py7JAQ_-20" target="8IMsg2FKTkAX5py7JAQ_-24">
          <mxGeometry relative="1" as="geometry" />
        </mxCell>
        <mxCell id="8IMsg2FKTkAX5py7JAQ_-20" value="文章是否审核通过" style="rhombus;whiteSpace=wrap;html=1;" vertex="1" parent="8IMsg2FKTkAX5py7JAQ_-1">
          <mxGeometry x="1120" y="320" width="120" height="80" as="geometry" />
        </mxCell>
        <mxCell id="8IMsg2FKTkAX5py7JAQ_-22" value="&lt;span&gt;current_version=1&lt;/span&gt;&lt;br&gt;&lt;span&gt;latest_version=1&lt;br&gt;&lt;br&gt;状态为审核通过&lt;br&gt;可见度为可见&lt;br&gt;&lt;/span&gt;" style="rounded=0;whiteSpace=wrap;html=1;" vertex="1" parent="8IMsg2FKTkAX5py7JAQ_-1">
          <mxGeometry x="1120" y="440" width="120" height="80" as="geometry" />
        </mxCell>
        <mxCell id="8IMsg2FKTkAX5py7JAQ_-24" value="&lt;span&gt;current_version=0&lt;/span&gt;&lt;br&gt;&lt;span&gt;latest_version=1&lt;br&gt;&lt;br&gt;状态为审核通过&lt;br&gt;可见度为可见&lt;br&gt;&lt;/span&gt;" style="rounded=0;whiteSpace=wrap;html=1;" vertex="1" parent="8IMsg2FKTkAX5py7JAQ_-1">
          <mxGeometry x="1280" y="320" width="120" height="80" as="geometry" />
        </mxCell>
        <mxCell id="8IMsg2FKTkAX5py7JAQ_-26" style="edgeStyle=orthogonalEdgeStyle;rounded=0;orthogonalLoop=1;jettySize=auto;html=1;entryX=0.5;entryY=0;entryDx=0;entryDy=0;" edge="1" parent="8IMsg2FKTkAX5py7JAQ_-1" source="8IMsg2FKTkAX5py7JAQ_-27" target="8IMsg2FKTkAX5py7JAQ_-29">
          <mxGeometry relative="1" as="geometry" />
        </mxCell>
        <mxCell id="8IMsg2FKTkAX5py7JAQ_-27" value="作者修改文章" style="rounded=0;whiteSpace=wrap;html=1;" vertex="1" parent="8IMsg2FKTkAX5py7JAQ_-1">
          <mxGeometry x="640" y="80" width="120" height="40" as="geometry" />
        </mxCell>
        <mxCell id="8IMsg2FKTkAX5py7JAQ_-28" style="edgeStyle=orthogonalEdgeStyle;rounded=0;orthogonalLoop=1;jettySize=auto;html=1;entryX=0.5;entryY=0;entryDx=0;entryDy=0;" edge="1" parent="8IMsg2FKTkAX5py7JAQ_-1" source="8IMsg2FKTkAX5py7JAQ_-29" target="8IMsg2FKTkAX5py7JAQ_-31">
          <mxGeometry relative="1" as="geometry" />
        </mxCell>
        <mxCell id="8IMsg2FKTkAX5py7JAQ_-29" value="current_version=&amp;nbsp;current_version&lt;br&gt;latest_version=&amp;nbsp;latest_version+1" style="rounded=0;whiteSpace=wrap;html=1;" vertex="1" parent="8IMsg2FKTkAX5py7JAQ_-1">
          <mxGeometry x="600" y="160" width="200" height="40" as="geometry" />
        </mxCell>
        <mxCell id="8IMsg2FKTkAX5py7JAQ_-30" style="edgeStyle=orthogonalEdgeStyle;rounded=0;orthogonalLoop=1;jettySize=auto;html=1;" edge="1" parent="8IMsg2FKTkAX5py7JAQ_-1" source="8IMsg2FKTkAX5py7JAQ_-31" target="8IMsg2FKTkAX5py7JAQ_-34">
          <mxGeometry relative="1" as="geometry" />
        </mxCell>
        <mxCell id="8IMsg2FKTkAX5py7JAQ_-31" value="文章修改审核" style="rounded=0;whiteSpace=wrap;html=1;" vertex="1" parent="8IMsg2FKTkAX5py7JAQ_-1">
          <mxGeometry x="640" y="240" width="120" height="40" as="geometry" />
        </mxCell>
        <mxCell id="8IMsg2FKTkAX5py7JAQ_-33" style="edgeStyle=orthogonalEdgeStyle;rounded=0;orthogonalLoop=1;jettySize=auto;html=1;entryX=0;entryY=0.5;entryDx=0;entryDy=0;" edge="1" parent="8IMsg2FKTkAX5py7JAQ_-1" source="8IMsg2FKTkAX5py7JAQ_-34" target="8IMsg2FKTkAX5py7JAQ_-36">
          <mxGeometry relative="1" as="geometry" />
        </mxCell>
        <mxCell id="8IMsg2FKTkAX5py7JAQ_-38" style="edgeStyle=orthogonalEdgeStyle;rounded=0;orthogonalLoop=1;jettySize=auto;html=1;entryX=0.5;entryY=0;entryDx=0;entryDy=0;" edge="1" parent="8IMsg2FKTkAX5py7JAQ_-1" source="8IMsg2FKTkAX5py7JAQ_-34" target="8IMsg2FKTkAX5py7JAQ_-37">
          <mxGeometry relative="1" as="geometry" />
        </mxCell>
        <mxCell id="8IMsg2FKTkAX5py7JAQ_-34" value="文章是否审核通过" style="rhombus;whiteSpace=wrap;html=1;" vertex="1" parent="8IMsg2FKTkAX5py7JAQ_-1">
          <mxGeometry x="640" y="320" width="120" height="80" as="geometry" />
        </mxCell>
        <mxCell id="8IMsg2FKTkAX5py7JAQ_-36" value="&lt;span&gt;current_version=&lt;/span&gt;&amp;nbsp;current_version&lt;br&gt;&lt;span&gt;latest_version=&lt;/span&gt;&amp;nbsp;latest_version&lt;span&gt;&lt;br&gt;&lt;br&gt;状态为&lt;/span&gt;current_version的状态&lt;span&gt;&lt;br&gt;可见度为&lt;/span&gt;current_version的可见度&lt;span&gt;&lt;br&gt;&lt;/span&gt;" style="rounded=0;whiteSpace=wrap;html=1;" vertex="1" parent="8IMsg2FKTkAX5py7JAQ_-1">
          <mxGeometry x="800" y="320" width="200" height="80" as="geometry" />
        </mxCell>
        <mxCell id="8IMsg2FKTkAX5py7JAQ_-37" value="&lt;span&gt;current_version=&lt;/span&gt;&amp;nbsp;latest_version&lt;br&gt;&lt;span&gt;latest_version=&lt;/span&gt;&amp;nbsp;latest_version&lt;span&gt;&lt;br&gt;&lt;br&gt;状态为&lt;/span&gt;latest_version的状态&lt;span&gt;&lt;br&gt;可见度为&lt;/span&gt;latest_version的可见度&lt;span&gt;&lt;br&gt;&lt;/span&gt;" style="rounded=0;whiteSpace=wrap;html=1;" vertex="1" parent="8IMsg2FKTkAX5py7JAQ_-1">
          <mxGeometry x="600" y="440" width="200" height="80" as="geometry" />
        </mxCell>
        <mxCell id="8IMsg2FKTkAX5py7JAQ_-39" style="edgeStyle=orthogonalEdgeStyle;rounded=0;orthogonalLoop=1;jettySize=auto;html=1;entryX=0.5;entryY=0;entryDx=0;entryDy=0;" edge="1" parent="8IMsg2FKTkAX5py7JAQ_-1" source="8IMsg2FKTkAX5py7JAQ_-40" target="8IMsg2FKTkAX5py7JAQ_-42">
          <mxGeometry relative="1" as="geometry" />
        </mxCell>
        <mxCell id="8IMsg2FKTkAX5py7JAQ_-40" value="作者修改文章" style="rounded=0;whiteSpace=wrap;html=1;" vertex="1" parent="8IMsg2FKTkAX5py7JAQ_-1">
          <mxGeometry x="1590" y="80" width="120" height="40" as="geometry" />
        </mxCell>
        <mxCell id="8IMsg2FKTkAX5py7JAQ_-41" style="edgeStyle=orthogonalEdgeStyle;rounded=0;orthogonalLoop=1;jettySize=auto;html=1;entryX=0.5;entryY=0;entryDx=0;entryDy=0;" edge="1" parent="8IMsg2FKTkAX5py7JAQ_-1" source="8IMsg2FKTkAX5py7JAQ_-42" target="8IMsg2FKTkAX5py7JAQ_-44">
          <mxGeometry relative="1" as="geometry" />
        </mxCell>
        <mxCell id="8IMsg2FKTkAX5py7JAQ_-42" value="current_version=0&lt;br&gt;latest_version=1" style="rounded=0;whiteSpace=wrap;html=1;" vertex="1" parent="8IMsg2FKTkAX5py7JAQ_-1">
          <mxGeometry x="1590" y="160" width="120" height="40" as="geometry" />
        </mxCell>
        <mxCell id="8IMsg2FKTkAX5py7JAQ_-43" style="edgeStyle=orthogonalEdgeStyle;rounded=0;orthogonalLoop=1;jettySize=auto;html=1;" edge="1" parent="8IMsg2FKTkAX5py7JAQ_-1" source="8IMsg2FKTkAX5py7JAQ_-44" target="8IMsg2FKTkAX5py7JAQ_-47">
          <mxGeometry relative="1" as="geometry" />
        </mxCell>
        <mxCell id="8IMsg2FKTkAX5py7JAQ_-44" value="文章修改审核" style="rounded=0;whiteSpace=wrap;html=1;" vertex="1" parent="8IMsg2FKTkAX5py7JAQ_-1">
          <mxGeometry x="1590" y="240" width="120" height="40" as="geometry" />
        </mxCell>
        <mxCell id="8IMsg2FKTkAX5py7JAQ_-45" style="edgeStyle=orthogonalEdgeStyle;rounded=0;orthogonalLoop=1;jettySize=auto;html=1;entryX=0.5;entryY=0;entryDx=0;entryDy=0;" edge="1" parent="8IMsg2FKTkAX5py7JAQ_-1" source="8IMsg2FKTkAX5py7JAQ_-47" target="8IMsg2FKTkAX5py7JAQ_-48">
          <mxGeometry relative="1" as="geometry" />
        </mxCell>
        <mxCell id="8IMsg2FKTkAX5py7JAQ_-46" style="edgeStyle=orthogonalEdgeStyle;rounded=0;orthogonalLoop=1;jettySize=auto;html=1;entryX=0;entryY=0.5;entryDx=0;entryDy=0;" edge="1" parent="8IMsg2FKTkAX5py7JAQ_-1" source="8IMsg2FKTkAX5py7JAQ_-47" target="8IMsg2FKTkAX5py7JAQ_-49">
          <mxGeometry relative="1" as="geometry" />
        </mxCell>
        <mxCell id="8IMsg2FKTkAX5py7JAQ_-47" value="文章是否审核通过" style="rhombus;whiteSpace=wrap;html=1;" vertex="1" parent="8IMsg2FKTkAX5py7JAQ_-1">
          <mxGeometry x="1590" y="320" width="120" height="80" as="geometry" />
        </mxCell>
        <mxCell id="8IMsg2FKTkAX5py7JAQ_-48" value="&lt;span&gt;current_version=1&lt;/span&gt;&lt;br&gt;&lt;span&gt;latest_version=1&lt;br&gt;&lt;br&gt;状态为审核通过&lt;br&gt;可见度为可见&lt;br&gt;&lt;/span&gt;" style="rounded=0;whiteSpace=wrap;html=1;" vertex="1" parent="8IMsg2FKTkAX5py7JAQ_-1">
          <mxGeometry x="1590" y="440" width="120" height="80" as="geometry" />
        </mxCell>
        <mxCell id="8IMsg2FKTkAX5py7JAQ_-49" value="&lt;span&gt;current_version=0&lt;/span&gt;&lt;br&gt;&lt;span&gt;latest_version=1&lt;br&gt;&lt;br&gt;状态为审核不通过&lt;br&gt;可见度为不可见&lt;br&gt;&lt;/span&gt;" style="rounded=0;whiteSpace=wrap;html=1;" vertex="1" parent="8IMsg2FKTkAX5py7JAQ_-1">
          <mxGeometry x="1750" y="320" width="120" height="80" as="geometry" />
        </mxCell>
        <mxCell id="8IMsg2FKTkAX5py7JAQ_-50" value="上个版本审核通过" style="text;html=1;align=center;verticalAlign=middle;resizable=0;points=[];autosize=1;" vertex="1" parent="8IMsg2FKTkAX5py7JAQ_-1">
          <mxGeometry x="1010" y="50" width="110" height="20" as="geometry" />
        </mxCell>
        <mxCell id="8IMsg2FKTkAX5py7JAQ_-51" value="上个版本审核不通过" style="text;html=1;align=center;verticalAlign=middle;resizable=0;points=[];autosize=1;" vertex="1" parent="8IMsg2FKTkAX5py7JAQ_-1">
          <mxGeometry x="1470" y="50" width="120" height="20" as="geometry" />
        </mxCell>
        <mxCell id="8IMsg2FKTkAX5py7JAQ_-54" style="edgeStyle=orthogonalEdgeStyle;rounded=0;orthogonalLoop=1;jettySize=auto;html=1;entryX=0.5;entryY=0;entryDx=0;entryDy=0;" edge="1" parent="8IMsg2FKTkAX5py7JAQ_-1" source="8IMsg2FKTkAX5py7JAQ_-52" target="8IMsg2FKTkAX5py7JAQ_-53">
          <mxGeometry relative="1" as="geometry" />
        </mxCell>
        <mxCell id="8IMsg2FKTkAX5py7JAQ_-52" value="某版本审核通过" style="rounded=0;whiteSpace=wrap;html=1;" vertex="1" parent="8IMsg2FKTkAX5py7JAQ_-1">
          <mxGeometry x="2000" y="80" width="120" height="40" as="geometry" />
        </mxCell>
        <mxCell id="8IMsg2FKTkAX5py7JAQ_-56" style="edgeStyle=orthogonalEdgeStyle;rounded=0;orthogonalLoop=1;jettySize=auto;html=1;entryX=0.5;entryY=0;entryDx=0;entryDy=0;" edge="1" parent="8IMsg2FKTkAX5py7JAQ_-1" source="8IMsg2FKTkAX5py7JAQ_-53" target="8IMsg2FKTkAX5py7JAQ_-55">
          <mxGeometry relative="1" as="geometry" />
        </mxCell>
        <mxCell id="8IMsg2FKTkAX5py7JAQ_-67" style="edgeStyle=orthogonalEdgeStyle;rounded=0;orthogonalLoop=1;jettySize=auto;html=1;entryX=0;entryY=0.5;entryDx=0;entryDy=0;" edge="1" parent="8IMsg2FKTkAX5py7JAQ_-1" source="8IMsg2FKTkAX5py7JAQ_-53" target="8IMsg2FKTkAX5py7JAQ_-66">
          <mxGeometry relative="1" as="geometry" />
        </mxCell>
        <mxCell id="8IMsg2FKTkAX5py7JAQ_-53" value="是否为线上版本" style="rhombus;whiteSpace=wrap;html=1;" vertex="1" parent="8IMsg2FKTkAX5py7JAQ_-1">
          <mxGeometry x="2000" y="160" width="120" height="80" as="geometry" />
        </mxCell>
        <mxCell id="8IMsg2FKTkAX5py7JAQ_-55" value="修改online &amp;amp; history" style="rounded=0;whiteSpace=wrap;html=1;" vertex="1" parent="8IMsg2FKTkAX5py7JAQ_-1">
          <mxGeometry x="2000" y="280" width="120" height="40" as="geometry" />
        </mxCell>
        <mxCell id="8IMsg2FKTkAX5py7JAQ_-59" style="edgeStyle=orthogonalEdgeStyle;rounded=0;orthogonalLoop=1;jettySize=auto;html=1;entryX=0.5;entryY=0;entryDx=0;entryDy=0;" edge="1" parent="8IMsg2FKTkAX5py7JAQ_-1" source="8IMsg2FKTkAX5py7JAQ_-60" target="8IMsg2FKTkAX5py7JAQ_-63">
          <mxGeometry relative="1" as="geometry" />
        </mxCell>
        <mxCell id="8IMsg2FKTkAX5py7JAQ_-60" value="某版本审核不通过" style="rounded=0;whiteSpace=wrap;html=1;" vertex="1" parent="8IMsg2FKTkAX5py7JAQ_-1">
          <mxGeometry x="2560" y="80" width="120" height="40" as="geometry" />
        </mxCell>
        <mxCell id="8IMsg2FKTkAX5py7JAQ_-75" style="edgeStyle=orthogonalEdgeStyle;rounded=0;orthogonalLoop=1;jettySize=auto;html=1;" edge="1" parent="8IMsg2FKTkAX5py7JAQ_-1" source="8IMsg2FKTkAX5py7JAQ_-63" target="8IMsg2FKTkAX5py7JAQ_-74">
          <mxGeometry relative="1" as="geometry" />
        </mxCell>
        <mxCell id="8IMsg2FKTkAX5py7JAQ_-78" style="edgeStyle=orthogonalEdgeStyle;rounded=0;orthogonalLoop=1;jettySize=auto;html=1;entryX=0;entryY=0.5;entryDx=0;entryDy=0;" edge="1" parent="8IMsg2FKTkAX5py7JAQ_-1" source="8IMsg2FKTkAX5py7JAQ_-63" target="8IMsg2FKTkAX5py7JAQ_-77">
          <mxGeometry relative="1" as="geometry" />
        </mxCell>
        <mxCell id="8IMsg2FKTkAX5py7JAQ_-63" value="是否为线上版本" style="rhombus;whiteSpace=wrap;html=1;" vertex="1" parent="8IMsg2FKTkAX5py7JAQ_-1">
          <mxGeometry x="2560" y="160" width="120" height="80" as="geometry" />
        </mxCell>
        <mxCell id="8IMsg2FKTkAX5py7JAQ_-69" style="edgeStyle=orthogonalEdgeStyle;rounded=0;orthogonalLoop=1;jettySize=auto;html=1;entryX=0.5;entryY=0;entryDx=0;entryDy=0;" edge="1" parent="8IMsg2FKTkAX5py7JAQ_-1" source="8IMsg2FKTkAX5py7JAQ_-66" target="8IMsg2FKTkAX5py7JAQ_-68">
          <mxGeometry relative="1" as="geometry" />
        </mxCell>
        <mxCell id="8IMsg2FKTkAX5py7JAQ_-72" style="edgeStyle=orthogonalEdgeStyle;rounded=0;orthogonalLoop=1;jettySize=auto;html=1;entryX=0;entryY=0.5;entryDx=0;entryDy=0;" edge="1" parent="8IMsg2FKTkAX5py7JAQ_-1" source="8IMsg2FKTkAX5py7JAQ_-66" target="8IMsg2FKTkAX5py7JAQ_-71">
          <mxGeometry relative="1" as="geometry" />
        </mxCell>
        <mxCell id="8IMsg2FKTkAX5py7JAQ_-66" value="是否大于线上版本" style="rhombus;whiteSpace=wrap;html=1;" vertex="1" parent="8IMsg2FKTkAX5py7JAQ_-1">
          <mxGeometry x="2160" y="160" width="120" height="80" as="geometry" />
        </mxCell>
        <mxCell id="8IMsg2FKTkAX5py7JAQ_-68" value="提升线上版本&lt;br&gt;修改online &amp;amp; history" style="rounded=0;whiteSpace=wrap;html=1;" vertex="1" parent="8IMsg2FKTkAX5py7JAQ_-1">
          <mxGeometry x="2160" y="280" width="120" height="40" as="geometry" />
        </mxCell>
        <mxCell id="8IMsg2FKTkAX5py7JAQ_-71" value="修改 history" style="rounded=0;whiteSpace=wrap;html=1;" vertex="1" parent="8IMsg2FKTkAX5py7JAQ_-1">
          <mxGeometry x="2320" y="180" width="120" height="40" as="geometry" />
        </mxCell>
        <mxCell id="8IMsg2FKTkAX5py7JAQ_-73" value="降线上版本&lt;br&gt;修改online &amp;amp; history" style="rounded=0;whiteSpace=wrap;html=1;" vertex="1" parent="8IMsg2FKTkAX5py7JAQ_-1">
          <mxGeometry x="2560" y="390" width="120" height="40" as="geometry" />
        </mxCell>
        <mxCell id="8IMsg2FKTkAX5py7JAQ_-76" style="edgeStyle=orthogonalEdgeStyle;rounded=0;orthogonalLoop=1;jettySize=auto;html=1;entryX=0.5;entryY=0;entryDx=0;entryDy=0;" edge="1" parent="8IMsg2FKTkAX5py7JAQ_-1" source="8IMsg2FKTkAX5py7JAQ_-74" target="8IMsg2FKTkAX5py7JAQ_-73">
          <mxGeometry relative="1" as="geometry" />
        </mxCell>
        <mxCell id="8IMsg2FKTkAX5py7JAQ_-80" style="edgeStyle=orthogonalEdgeStyle;rounded=0;orthogonalLoop=1;jettySize=auto;html=1;entryX=0;entryY=0.5;entryDx=0;entryDy=0;" edge="1" parent="8IMsg2FKTkAX5py7JAQ_-1" source="8IMsg2FKTkAX5py7JAQ_-74" target="8IMsg2FKTkAX5py7JAQ_-79">
          <mxGeometry relative="1" as="geometry" />
        </mxCell>
        <mxCell id="8IMsg2FKTkAX5py7JAQ_-74" value="是否有上一个&lt;br&gt;审核通过的版本" style="rhombus;whiteSpace=wrap;html=1;" vertex="1" parent="8IMsg2FKTkAX5py7JAQ_-1">
          <mxGeometry x="2560" y="280" width="120" height="80" as="geometry" />
        </mxCell>
        <mxCell id="8IMsg2FKTkAX5py7JAQ_-77" value="修改 history" style="rounded=0;whiteSpace=wrap;html=1;" vertex="1" parent="8IMsg2FKTkAX5py7JAQ_-1">
          <mxGeometry x="2720" y="180" width="120" height="40" as="geometry" />
        </mxCell>
        <mxCell id="8IMsg2FKTkAX5py7JAQ_-79" value="文章下架&lt;br&gt;修改online &amp;amp; history" style="rounded=0;whiteSpace=wrap;html=1;" vertex="1" parent="8IMsg2FKTkAX5py7JAQ_-1">
          <mxGeometry x="2720" y="300" width="120" height="40" as="geometry" />
        </mxCell>
      </root>
    </mxGraphModel>
  </diagram>
</mxfile>
